<svg width="141" height="75" viewBox="0 0 141 75" fill="none" xmlns="http://www.w3.org/2000/svg">
<rect y="6" width="47" height="27" fill="#72B63F"/>
<rect y="43" width="47" height="28" fill="#3B84CF"/>
<path d="M63.1562 10.8672H68.4883C70.7695 10.8672 72.4961 11.1875 73.668 11.8281C74.8398 12.4688 75.4258 13.5938 75.4258 15.2031C75.4258 15.8516 75.3203 16.4375 75.1094 16.9609C74.9062 17.4844 74.6094 17.9141 74.2188 18.25C73.8281 18.5859 73.3516 18.8047 72.7891 18.9062V19.0234C73.3594 19.1406 73.875 19.3438 74.3359 19.6328C74.7969 19.9141 75.1641 20.3281 75.4375 20.875C75.7188 21.4141 75.8594 22.1328 75.8594 23.0312C75.8594 24.0703 75.6055 24.9609 75.0977 25.7031C74.5898 26.4453 73.8633 27.0156 72.918 27.4141C71.9805 27.8047 70.8633 28 69.5664 28H63.1562V10.8672ZM66.7891 17.6523H68.8984C69.9531 17.6523 70.6836 17.4883 71.0898 17.1602C71.4961 16.8242 71.6992 16.332 71.6992 15.6836C71.6992 15.0273 71.457 14.5586 70.9727 14.2773C70.4961 13.9883 69.7383 13.8438 68.6992 13.8438H66.7891V17.6523ZM66.7891 20.5352V25H69.1562C70.25 25 71.0117 24.7891 71.4414 24.3672C71.8711 23.9453 72.0859 23.3789 72.0859 22.668C72.0859 22.2461 71.9922 21.875 71.8047 21.5547C71.6172 21.2344 71.3008 20.9844 70.8555 20.8047C70.418 20.625 69.8125 20.5352 69.0391 20.5352H66.7891ZM91.0234 14.8984V28H88.2812L87.8008 26.3242H87.6133C87.332 26.7695 86.9805 27.1328 86.5586 27.4141C86.1367 27.6953 85.6719 27.9023 85.1641 28.0352C84.6562 28.168 84.1289 28.2344 83.582 28.2344C82.6445 28.2344 81.8281 28.0703 81.1328 27.7422C80.4375 27.4062 79.8945 26.8867 79.5039 26.1836C79.1211 25.4805 78.9297 24.5664 78.9297 23.4414V14.8984H82.5039V22.5508C82.5039 23.4883 82.6719 24.1953 83.0078 24.6719C83.3438 25.1484 83.8789 25.3867 84.6133 25.3867C85.3398 25.3867 85.9102 25.2227 86.3242 24.8945C86.7383 24.5586 87.0273 24.0703 87.1914 23.4297C87.3633 22.7812 87.4492 21.9922 87.4492 21.0625V14.8984H91.0234ZM103.914 24.1094C103.914 25 103.703 25.7539 103.281 26.3711C102.867 26.9805 102.246 27.4453 101.418 27.7656C100.59 28.0781 99.5586 28.2344 98.3242 28.2344C97.4102 28.2344 96.625 28.1758 95.9688 28.0586C95.3203 27.9414 94.6641 27.7461 94 27.4727V24.5195C94.7109 24.8398 95.4727 25.1055 96.2852 25.3164C97.1055 25.5195 97.8242 25.6211 98.4414 25.6211C99.1367 25.6211 99.6328 25.5195 99.9297 25.3164C100.234 25.1055 100.387 24.832 100.387 24.4961C100.387 24.2773 100.324 24.082 100.199 23.9102C100.082 23.7305 99.8242 23.5312 99.4258 23.3125C99.0273 23.0859 98.4023 22.793 97.5508 22.4336C96.7305 22.0898 96.0547 21.7422 95.5234 21.3906C95 21.0391 94.6094 20.625 94.3516 20.1484C94.1016 19.6641 93.9766 19.0508 93.9766 18.3086C93.9766 17.0977 94.4453 16.1875 95.3828 15.5781C96.3281 14.9609 97.5898 14.6523 99.168 14.6523C99.9805 14.6523 100.754 14.7344 101.488 14.8984C102.23 15.0625 102.992 15.3242 103.773 15.6836L102.695 18.2617C102.047 17.9805 101.434 17.75 100.855 17.5703C100.285 17.3906 99.7031 17.3008 99.1094 17.3008C98.5859 17.3008 98.1914 17.3711 97.9258 17.5117C97.6602 17.6523 97.5273 17.8672 97.5273 18.1562C97.5273 18.3672 97.5938 18.5547 97.7266 18.7188C97.8672 18.8828 98.1328 19.0664 98.5234 19.2695C98.9219 19.4648 99.5039 19.7188 100.27 20.0312C101.012 20.3359 101.656 20.6562 102.203 20.9922C102.75 21.3203 103.172 21.7305 103.469 22.2227C103.766 22.707 103.914 23.3359 103.914 24.1094ZM122.77 18.1094L122.219 20.8281H125.242V23.2422H121.762L120.859 28H118.281L119.195 23.2422H116.922L116.031 28H113.512L114.379 23.2422H111.59V20.8281H114.836L115.387 18.1094H112.434V15.6602H115.82L116.723 10.8906H119.289L118.387 15.6602H120.707L121.621 10.8906H124.141L123.227 15.6602H126.039V18.1094H122.77ZM117.379 20.8281H119.676L120.227 18.1094H117.93L117.379 20.8281ZM136.492 28H132.871V18.0859C132.871 17.8125 132.875 17.4766 132.883 17.0781C132.891 16.6719 132.902 16.2578 132.918 15.8359C132.934 15.4062 132.949 15.0195 132.965 14.6758C132.879 14.7773 132.703 14.9531 132.438 15.2031C132.18 15.4453 131.938 15.6641 131.711 15.8594L129.742 17.4414L127.996 15.2617L133.516 10.8672H136.492V28ZM63.1562 48.8672H68.4883C70.7695 48.8672 72.4961 49.1875 73.668 49.8281C74.8398 50.4688 75.4258 51.5938 75.4258 53.2031C75.4258 53.8516 75.3203 54.4375 75.1094 54.9609C74.9062 55.4844 74.6094 55.9141 74.2188 56.25C73.8281 56.5859 73.3516 56.8047 72.7891 56.9062V57.0234C73.3594 57.1406 73.875 57.3438 74.3359 57.6328C74.7969 57.9141 75.1641 58.3281 75.4375 58.875C75.7188 59.4141 75.8594 60.1328 75.8594 61.0312C75.8594 62.0703 75.6055 62.9609 75.0977 63.7031C74.5898 64.4453 73.8633 65.0156 72.918 65.4141C71.9805 65.8047 70.8633 66 69.5664 66H63.1562V48.8672ZM66.7891 55.6523H68.8984C69.9531 55.6523 70.6836 55.4883 71.0898 55.1602C71.4961 54.8242 71.6992 54.332 71.6992 53.6836C71.6992 53.0273 71.457 52.5586 70.9727 52.2773C70.4961 51.9883 69.7383 51.8438 68.6992 51.8438H66.7891V55.6523ZM66.7891 58.5352V63H69.1562C70.25 63 71.0117 62.7891 71.4414 62.3672C71.8711 61.9453 72.0859 61.3789 72.0859 60.668C72.0859 60.2461 71.9922 59.875 71.8047 59.5547C71.6172 59.2344 71.3008 58.9844 70.8555 58.8047C70.418 58.625 69.8125 58.5352 69.0391 58.5352H66.7891ZM91.0234 52.8984V66H88.2812L87.8008 64.3242H87.6133C87.332 64.7695 86.9805 65.1328 86.5586 65.4141C86.1367 65.6953 85.6719 65.9023 85.1641 66.0352C84.6562 66.168 84.1289 66.2344 83.582 66.2344C82.6445 66.2344 81.8281 66.0703 81.1328 65.7422C80.4375 65.4062 79.8945 64.8867 79.5039 64.1836C79.1211 63.4805 78.9297 62.5664 78.9297 61.4414V52.8984H82.5039V60.5508C82.5039 61.4883 82.6719 62.1953 83.0078 62.6719C83.3438 63.1484 83.8789 63.3867 84.6133 63.3867C85.3398 63.3867 85.9102 63.2227 86.3242 62.8945C86.7383 62.5586 87.0273 62.0703 87.1914 61.4297C87.3633 60.7812 87.4492 59.9922 87.4492 59.0625V52.8984H91.0234ZM103.914 62.1094C103.914 63 103.703 63.7539 103.281 64.3711C102.867 64.9805 102.246 65.4453 101.418 65.7656C100.59 66.0781 99.5586 66.2344 98.3242 66.2344C97.4102 66.2344 96.625 66.1758 95.9688 66.0586C95.3203 65.9414 94.6641 65.7461 94 65.4727V62.5195C94.7109 62.8398 95.4727 63.1055 96.2852 63.3164C97.1055 63.5195 97.8242 63.6211 98.4414 63.6211C99.1367 63.6211 99.6328 63.5195 99.9297 63.3164C100.234 63.1055 100.387 62.832 100.387 62.4961C100.387 62.2773 100.324 62.082 100.199 61.9102C100.082 61.7305 99.8242 61.5312 99.4258 61.3125C99.0273 61.0859 98.4023 60.793 97.5508 60.4336C96.7305 60.0898 96.0547 59.7422 95.5234 59.3906C95 59.0391 94.6094 58.625 94.3516 58.1484C94.1016 57.6641 93.9766 57.0508 93.9766 56.3086C93.9766 55.0977 94.4453 54.1875 95.3828 53.5781C96.3281 52.9609 97.5898 52.6523 99.168 52.6523C99.9805 52.6523 100.754 52.7344 101.488 52.8984C102.23 53.0625 102.992 53.3242 103.773 53.6836L102.695 56.2617C102.047 55.9805 101.434 55.75 100.855 55.5703C100.285 55.3906 99.7031 55.3008 99.1094 55.3008C98.5859 55.3008 98.1914 55.3711 97.9258 55.5117C97.6602 55.6523 97.5273 55.8672 97.5273 56.1562C97.5273 56.3672 97.5938 56.5547 97.7266 56.7188C97.8672 56.8828 98.1328 57.0664 98.5234 57.2695C98.9219 57.4648 99.5039 57.7188 100.27 58.0312C101.012 58.3359 101.656 58.6562 102.203 58.9922C102.75 59.3203 103.172 59.7305 103.469 60.2227C103.766 60.707 103.914 61.3359 103.914 62.1094ZM122.77 56.1094L122.219 58.8281H125.242V61.2422H121.762L120.859 66H118.281L119.195 61.2422H116.922L116.031 66H113.512L114.379 61.2422H111.59V58.8281H114.836L115.387 56.1094H112.434V53.6602H115.82L116.723 48.8906H119.289L118.387 53.6602H120.707L121.621 48.8906H124.141L123.227 53.6602H126.039V56.1094H122.77ZM117.379 58.8281H119.676L120.227 56.1094H117.93L117.379 58.8281ZM139.516 66H127.539V63.4805L131.84 59.1328C132.707 58.2422 133.402 57.5 133.926 56.9062C134.457 56.3047 134.84 55.7578 135.074 55.2656C135.316 54.7734 135.438 54.2461 135.438 53.6836C135.438 53.0039 135.246 52.4961 134.863 52.1602C134.488 51.8164 133.984 51.6445 133.352 51.6445C132.688 51.6445 132.043 51.7969 131.418 52.1016C130.793 52.4062 130.141 52.8398 129.461 53.4023L127.492 51.0703C127.984 50.6484 128.504 50.25 129.051 49.875C129.605 49.5 130.246 49.1992 130.973 48.9727C131.707 48.7383 132.586 48.6211 133.609 48.6211C134.734 48.6211 135.699 48.8242 136.504 49.2305C137.316 49.6367 137.941 50.1914 138.379 50.8945C138.816 51.5898 139.035 52.3789 139.035 53.2617C139.035 54.207 138.848 55.0703 138.473 55.8516C138.098 56.6328 137.551 57.4062 136.832 58.1719C136.121 58.9375 135.262 59.7852 134.254 60.7148L132.051 62.7891V62.9531H139.516V66Z" fill="white"/>
</svg>
