<svg width="257" height="225" viewBox="0 0 257 225" fill="none" xmlns="http://www.w3.org/2000/svg">
<rect y="6" width="47" height="27" fill="#479BED"/>
<rect y="43" width="47" height="28" fill="#63ACEF"/>
<rect y="81" width="47" height="27" fill="#63ACEF"/>
<rect y="118" width="47" height="27" fill="#8CC2F3"/>
<rect y="155" width="47" height="27" fill="#B7D9F7"/>
<rect y="192" width="47" height="28" fill="#E1F0FB"/>
<path d="M63.1562 10.8672H68.4883C70.7695 10.8672 72.4961 11.1875 73.668 11.8281C74.8398 12.4688 75.4258 13.5938 75.4258 15.2031C75.4258 15.8516 75.3203 16.4375 75.1094 16.9609C74.9062 17.4844 74.6094 17.9141 74.2188 18.25C73.8281 18.5859 73.3516 18.8047 72.7891 18.9062V19.0234C73.3594 19.1406 73.875 19.3438 74.3359 19.6328C74.7969 19.9141 75.1641 20.3281 75.4375 20.875C75.7188 21.4141 75.8594 22.1328 75.8594 23.0312C75.8594 24.0703 75.6055 24.9609 75.0977 25.7031C74.5898 26.4453 73.8633 27.0156 72.918 27.4141C71.9805 27.8047 70.8633 28 69.5664 28H63.1562V10.8672ZM66.7891 17.6523H68.8984C69.9531 17.6523 70.6836 17.4883 71.0898 17.1602C71.4961 16.8242 71.6992 16.332 71.6992 15.6836C71.6992 15.0273 71.457 14.5586 70.9727 14.2773C70.4961 13.9883 69.7383 13.8438 68.6992 13.8438H66.7891V17.6523ZM66.7891 20.5352V25H69.1562C70.25 25 71.0117 24.7891 71.4414 24.3672C71.8711 23.9453 72.0859 23.3789 72.0859 22.668C72.0859 22.2461 71.9922 21.875 71.8047 21.5547C71.6172 21.2344 71.3008 20.9844 70.8555 20.8047C70.418 20.625 69.8125 20.5352 69.0391 20.5352H66.7891ZM91.0234 14.8984V28H88.2812L87.8008 26.3242H87.6133C87.332 26.7695 86.9805 27.1328 86.5586 27.4141C86.1367 27.6953 85.6719 27.9023 85.1641 28.0352C84.6562 28.168 84.1289 28.2344 83.582 28.2344C82.6445 28.2344 81.8281 28.0703 81.1328 27.7422C80.4375 27.4062 79.8945 26.8867 79.5039 26.1836C79.1211 25.4805 78.9297 24.5664 78.9297 23.4414V14.8984H82.5039V22.5508C82.5039 23.4883 82.6719 24.1953 83.0078 24.6719C83.3438 25.1484 83.8789 25.3867 84.6133 25.3867C85.3398 25.3867 85.9102 25.2227 86.3242 24.8945C86.7383 24.5586 87.0273 24.0703 87.1914 23.4297C87.3633 22.7812 87.4492 21.9922 87.4492 21.0625V14.8984H91.0234ZM103.914 24.1094C103.914 25 103.703 25.7539 103.281 26.3711C102.867 26.9805 102.246 27.4453 101.418 27.7656C100.59 28.0781 99.5586 28.2344 98.3242 28.2344C97.4102 28.2344 96.625 28.1758 95.9688 28.0586C95.3203 27.9414 94.6641 27.7461 94 27.4727V24.5195C94.7109 24.8398 95.4727 25.1055 96.2852 25.3164C97.1055 25.5195 97.8242 25.6211 98.4414 25.6211C99.1367 25.6211 99.6328 25.5195 99.9297 25.3164C100.234 25.1055 100.387 24.832 100.387 24.4961C100.387 24.2773 100.324 24.082 100.199 23.9102C100.082 23.7305 99.8242 23.5312 99.4258 23.3125C99.0273 23.0859 98.4023 22.793 97.5508 22.4336C96.7305 22.0898 96.0547 21.7422 95.5234 21.3906C95 21.0391 94.6094 20.625 94.3516 20.1484C94.1016 19.6641 93.9766 19.0508 93.9766 18.3086C93.9766 17.0977 94.4453 16.1875 95.3828 15.5781C96.3281 14.9609 97.5898 14.6523 99.168 14.6523C99.9805 14.6523 100.754 14.7344 101.488 14.8984C102.23 15.0625 102.992 15.3242 103.773 15.6836L102.695 18.2617C102.047 17.9805 101.434 17.75 100.855 17.5703C100.285 17.3906 99.7031 17.3008 99.1094 17.3008C98.5859 17.3008 98.1914 17.3711 97.9258 17.5117C97.6602 17.6523 97.5273 17.8672 97.5273 18.1562C97.5273 18.3672 97.5938 18.5547 97.7266 18.7188C97.8672 18.8828 98.1328 19.0664 98.5234 19.2695C98.9219 19.4648 99.5039 19.7188 100.27 20.0312C101.012 20.3359 101.656 20.6562 102.203 20.9922C102.75 21.3203 103.172 21.7305 103.469 22.2227C103.766 22.707 103.914 23.3359 103.914 24.1094ZM122.77 18.1094L122.219 20.8281H125.242V23.2422H121.762L120.859 28H118.281L119.195 23.2422H116.922L116.031 28H113.512L114.379 23.2422H111.59V20.8281H114.836L115.387 18.1094H112.434V15.6602H115.82L116.723 10.8906H119.289L118.387 15.6602H120.707L121.621 10.8906H124.141L123.227 15.6602H126.039V18.1094H122.77ZM117.379 20.8281H119.676L120.227 18.1094H117.93L117.379 20.8281ZM139.516 28H127.539V25.4805L131.84 21.1328C132.707 20.2422 133.402 19.5 133.926 18.9062C134.457 18.3047 134.84 17.7578 135.074 17.2656C135.316 16.7734 135.438 16.2461 135.438 15.6836C135.438 15.0039 135.246 14.4961 134.863 14.1602C134.488 13.8164 133.984 13.6445 133.352 13.6445C132.688 13.6445 132.043 13.7969 131.418 14.1016C130.793 14.4062 130.141 14.8398 129.461 15.4023L127.492 13.0703C127.984 12.6484 128.504 12.25 129.051 11.875C129.605 11.5 130.246 11.1992 130.973 10.9727C131.707 10.7383 132.586 10.6211 133.609 10.6211C134.734 10.6211 135.699 10.8242 136.504 11.2305C137.316 11.6367 137.941 12.1914 138.379 12.8945C138.816 13.5898 139.035 14.3789 139.035 15.2617C139.035 16.207 138.848 17.0703 138.473 17.8516C138.098 18.6328 137.551 19.4062 136.832 20.1719C136.121 20.9375 135.262 21.7852 134.254 22.7148L132.051 24.7891V24.9531H139.516V28ZM158.816 23.2422C158.816 24.2578 158.57 25.1406 158.078 25.8906C157.586 26.6406 156.867 27.2188 155.922 27.625C154.984 28.0312 153.844 28.2344 152.5 28.2344C151.906 28.2344 151.324 28.1953 150.754 28.1172C150.191 28.0391 149.648 27.9258 149.125 27.7773C148.609 27.6211 148.117 27.4297 147.648 27.2031V23.8281C148.461 24.1875 149.305 24.5117 150.18 24.8008C151.055 25.0898 151.922 25.2344 152.781 25.2344C153.375 25.2344 153.852 25.1562 154.211 25C154.578 24.8438 154.844 24.6289 155.008 24.3555C155.172 24.082 155.254 23.7695 155.254 23.418C155.254 22.9883 155.109 22.6211 154.82 22.3164C154.531 22.0117 154.133 21.7266 153.625 21.4609C153.125 21.1953 152.559 20.9102 151.926 20.6055C151.527 20.418 151.094 20.1914 150.625 19.9258C150.156 19.6523 149.711 19.3203 149.289 18.9297C148.867 18.5391 148.52 18.0664 148.246 17.5117C147.98 16.9492 147.848 16.2773 147.848 15.4961C147.848 14.4727 148.082 13.5977 148.551 12.8711C149.02 12.1445 149.688 11.5898 150.555 11.207C151.43 10.8164 152.461 10.6211 153.648 10.6211C154.539 10.6211 155.387 10.7266 156.191 10.9375C157.004 11.1406 157.852 11.4375 158.734 11.8281L157.562 14.6523C156.773 14.332 156.066 14.0859 155.441 13.9141C154.816 13.7344 154.18 13.6445 153.531 13.6445C153.078 13.6445 152.691 13.7188 152.371 13.8672C152.051 14.0078 151.809 14.2109 151.645 14.4766C151.48 14.7344 151.398 15.0352 151.398 15.3789C151.398 15.7852 151.516 16.1289 151.75 16.4102C151.992 16.6836 152.352 16.9492 152.828 17.207C153.312 17.4648 153.914 17.7656 154.633 18.1094C155.508 18.5234 156.254 18.957 156.871 19.4102C157.496 19.8555 157.977 20.3828 158.312 20.9922C158.648 21.5938 158.816 22.3438 158.816 23.2422ZM173.664 14.8984V28H170.922L170.441 26.3242H170.254C169.973 26.7695 169.621 27.1328 169.199 27.4141C168.777 27.6953 168.312 27.9023 167.805 28.0352C167.297 28.168 166.77 28.2344 166.223 28.2344C165.285 28.2344 164.469 28.0703 163.773 27.7422C163.078 27.4062 162.535 26.8867 162.145 26.1836C161.762 25.4805 161.57 24.5664 161.57 23.4414V14.8984H165.145V22.5508C165.145 23.4883 165.312 24.1953 165.648 24.6719C165.984 25.1484 166.52 25.3867 167.254 25.3867C167.98 25.3867 168.551 25.2227 168.965 24.8945C169.379 24.5586 169.668 24.0703 169.832 23.4297C170.004 22.7812 170.09 21.9922 170.09 21.0625V14.8984H173.664ZM184.855 14.6523C186.254 14.6523 187.379 15.0352 188.23 15.8008C189.082 16.5586 189.508 17.7773 189.508 19.457V28H185.934V20.3477C185.934 19.4102 185.762 18.7031 185.418 18.2266C185.082 17.75 184.551 17.5117 183.824 17.5117C182.73 17.5117 181.984 17.8828 181.586 18.625C181.188 19.3672 180.988 20.4375 180.988 21.8359V28H177.414V14.8984H180.145L180.625 16.5742H180.824C181.105 16.1211 181.453 15.7539 181.867 15.4727C182.289 15.1914 182.754 14.9844 183.262 14.8516C183.777 14.7188 184.309 14.6523 184.855 14.6523ZM197.336 28.2344C195.875 28.2344 194.684 27.6641 193.762 26.5234C192.848 25.375 192.391 23.6914 192.391 21.4727C192.391 19.2305 192.855 17.5352 193.785 16.3867C194.715 15.2305 195.93 14.6523 197.43 14.6523C198.055 14.6523 198.605 14.7383 199.082 14.9102C199.559 15.082 199.969 15.3125 200.312 15.6016C200.664 15.8906 200.961 16.2148 201.203 16.5742H201.32C201.273 16.3242 201.215 15.957 201.145 15.4727C201.082 14.9805 201.051 14.4766 201.051 13.9609V9.76562H204.637V28H201.895L201.203 26.3008H201.051C200.824 26.6602 200.539 26.9883 200.195 27.2852C199.859 27.5742 199.457 27.8047 198.988 27.9766C198.52 28.1484 197.969 28.2344 197.336 28.2344ZM198.59 25.3867C199.566 25.3867 200.254 25.0977 200.652 24.5195C201.059 23.9336 201.273 23.0547 201.297 21.8828V21.4961C201.297 20.2227 201.102 19.25 200.711 18.5781C200.32 17.8984 199.594 17.5586 198.531 17.5586C197.742 17.5586 197.125 17.8984 196.68 18.5781C196.234 19.2578 196.012 20.2383 196.012 21.5195C196.012 22.8008 196.234 23.7656 196.68 24.4141C197.133 25.0625 197.77 25.3867 198.59 25.3867ZM213.742 14.6289C215.5 14.6289 216.848 15.0117 217.785 15.7773C218.723 16.543 219.191 17.707 219.191 19.2695V28H216.695L216.004 26.2188H215.91C215.535 26.6875 215.152 27.0703 214.762 27.3672C214.371 27.6641 213.922 27.8828 213.414 28.0234C212.906 28.1641 212.289 28.2344 211.562 28.2344C210.789 28.2344 210.094 28.0859 209.477 27.7891C208.867 27.4922 208.387 27.0391 208.035 26.4297C207.684 25.8125 207.508 25.0312 207.508 24.0859C207.508 22.6953 207.996 21.6719 208.973 21.0156C209.949 20.3516 211.414 19.9844 213.367 19.9141L215.641 19.8438V19.2695C215.641 18.582 215.461 18.0781 215.102 17.7578C214.742 17.4375 214.242 17.2773 213.602 17.2773C212.969 17.2773 212.348 17.3672 211.738 17.5469C211.129 17.7266 210.52 17.9531 209.91 18.2266L208.727 15.8125C209.422 15.4453 210.199 15.1562 211.059 14.9453C211.926 14.7344 212.82 14.6289 213.742 14.6289ZM215.641 21.9297L214.258 21.9766C213.102 22.0078 212.297 22.2148 211.844 22.5977C211.398 22.9805 211.176 23.4844 211.176 24.1094C211.176 24.6562 211.336 25.0469 211.656 25.2812C211.977 25.5078 212.395 25.6211 212.91 25.6211C213.676 25.6211 214.32 25.3945 214.844 24.9414C215.375 24.4883 215.641 23.8438 215.641 23.0078V21.9297ZM221.008 14.8984H224.922L227.395 22.2695C227.473 22.5039 227.539 22.7422 227.594 22.9844C227.648 23.2266 227.695 23.4766 227.734 23.7344C227.773 23.9922 227.805 24.2617 227.828 24.543H227.898C227.945 24.1211 228.008 23.7266 228.086 23.3594C228.172 22.9922 228.277 22.6289 228.402 22.2695L230.828 14.8984H234.66L229.117 29.6758C228.781 30.582 228.344 31.3359 227.805 31.9375C227.266 32.5469 226.645 33.0039 225.941 33.3086C225.246 33.6133 224.48 33.7656 223.645 33.7656C223.238 33.7656 222.887 33.7422 222.59 33.6953C222.293 33.6562 222.039 33.6133 221.828 33.5664V30.7305C221.992 30.7695 222.199 30.8047 222.449 30.8359C222.699 30.8672 222.961 30.8828 223.234 30.8828C223.734 30.8828 224.164 30.7773 224.523 30.5664C224.883 30.3555 225.184 30.0703 225.426 29.7109C225.668 29.3594 225.859 28.9727 226 28.5508L226.211 27.9062L221.008 14.8984ZM63.1562 48.8672H68.4883C70.7695 48.8672 72.4961 49.1875 73.668 49.8281C74.8398 50.4688 75.4258 51.5938 75.4258 53.2031C75.4258 53.8516 75.3203 54.4375 75.1094 54.9609C74.9062 55.4844 74.6094 55.9141 74.2188 56.25C73.8281 56.5859 73.3516 56.8047 72.7891 56.9062V57.0234C73.3594 57.1406 73.875 57.3438 74.3359 57.6328C74.7969 57.9141 75.1641 58.3281 75.4375 58.875C75.7188 59.4141 75.8594 60.1328 75.8594 61.0312C75.8594 62.0703 75.6055 62.9609 75.0977 63.7031C74.5898 64.4453 73.8633 65.0156 72.918 65.4141C71.9805 65.8047 70.8633 66 69.5664 66H63.1562V48.8672ZM66.7891 55.6523H68.8984C69.9531 55.6523 70.6836 55.4883 71.0898 55.1602C71.4961 54.8242 71.6992 54.332 71.6992 53.6836C71.6992 53.0273 71.457 52.5586 70.9727 52.2773C70.4961 51.9883 69.7383 51.8438 68.6992 51.8438H66.7891V55.6523ZM66.7891 58.5352V63H69.1562C70.25 63 71.0117 62.7891 71.4414 62.3672C71.8711 61.9453 72.0859 61.3789 72.0859 60.668C72.0859 60.2461 71.9922 59.875 71.8047 59.5547C71.6172 59.2344 71.3008 58.9844 70.8555 58.8047C70.418 58.625 69.8125 58.5352 69.0391 58.5352H66.7891ZM91.0234 52.8984V66H88.2812L87.8008 64.3242H87.6133C87.332 64.7695 86.9805 65.1328 86.5586 65.4141C86.1367 65.6953 85.6719 65.9023 85.1641 66.0352C84.6562 66.168 84.1289 66.2344 83.582 66.2344C82.6445 66.2344 81.8281 66.0703 81.1328 65.7422C80.4375 65.4062 79.8945 64.8867 79.5039 64.1836C79.1211 63.4805 78.9297 62.5664 78.9297 61.4414V52.8984H82.5039V60.5508C82.5039 61.4883 82.6719 62.1953 83.0078 62.6719C83.3438 63.1484 83.8789 63.3867 84.6133 63.3867C85.3398 63.3867 85.9102 63.2227 86.3242 62.8945C86.7383 62.5586 87.0273 62.0703 87.1914 61.4297C87.3633 60.7812 87.4492 59.9922 87.4492 59.0625V52.8984H91.0234ZM103.914 62.1094C103.914 63 103.703 63.7539 103.281 64.3711C102.867 64.9805 102.246 65.4453 101.418 65.7656C100.59 66.0781 99.5586 66.2344 98.3242 66.2344C97.4102 66.2344 96.625 66.1758 95.9688 66.0586C95.3203 65.9414 94.6641 65.7461 94 65.4727V62.5195C94.7109 62.8398 95.4727 63.1055 96.2852 63.3164C97.1055 63.5195 97.8242 63.6211 98.4414 63.6211C99.1367 63.6211 99.6328 63.5195 99.9297 63.3164C100.234 63.1055 100.387 62.832 100.387 62.4961C100.387 62.2773 100.324 62.082 100.199 61.9102C100.082 61.7305 99.8242 61.5312 99.4258 61.3125C99.0273 61.0859 98.4023 60.793 97.5508 60.4336C96.7305 60.0898 96.0547 59.7422 95.5234 59.3906C95 59.0391 94.6094 58.625 94.3516 58.1484C94.1016 57.6641 93.9766 57.0508 93.9766 56.3086C93.9766 55.0977 94.4453 54.1875 95.3828 53.5781C96.3281 52.9609 97.5898 52.6523 99.168 52.6523C99.9805 52.6523 100.754 52.7344 101.488 52.8984C102.23 53.0625 102.992 53.3242 103.773 53.6836L102.695 56.2617C102.047 55.9805 101.434 55.75 100.855 55.5703C100.285 55.3906 99.7031 55.3008 99.1094 55.3008C98.5859 55.3008 98.1914 55.3711 97.9258 55.5117C97.6602 55.6523 97.5273 55.8672 97.5273 56.1562C97.5273 56.3672 97.5938 56.5547 97.7266 56.7188C97.8672 56.8828 98.1328 57.0664 98.5234 57.2695C98.9219 57.4648 99.5039 57.7188 100.27 58.0312C101.012 58.3359 101.656 58.6562 102.203 58.9922C102.75 59.3203 103.172 59.7305 103.469 60.2227C103.766 60.707 103.914 61.3359 103.914 62.1094ZM122.77 56.1094L122.219 58.8281H125.242V61.2422H121.762L120.859 66H118.281L119.195 61.2422H116.922L116.031 66H113.512L114.379 61.2422H111.59V58.8281H114.836L115.387 56.1094H112.434V53.6602H115.82L116.723 48.8906H119.289L118.387 53.6602H120.707L121.621 48.8906H124.141L123.227 53.6602H126.039V56.1094H122.77ZM117.379 58.8281H119.676L120.227 56.1094H117.93L117.379 58.8281ZM139.516 66H127.539V63.4805L131.84 59.1328C132.707 58.2422 133.402 57.5 133.926 56.9062C134.457 56.3047 134.84 55.7578 135.074 55.2656C135.316 54.7734 135.438 54.2461 135.438 53.6836C135.438 53.0039 135.246 52.4961 134.863 52.1602C134.488 51.8164 133.984 51.6445 133.352 51.6445C132.688 51.6445 132.043 51.7969 131.418 52.1016C130.793 52.4062 130.141 52.8398 129.461 53.4023L127.492 51.0703C127.984 50.6484 128.504 50.25 129.051 49.875C129.605 49.5 130.246 49.1992 130.973 48.9727C131.707 48.7383 132.586 48.6211 133.609 48.6211C134.734 48.6211 135.699 48.8242 136.504 49.2305C137.316 49.6367 137.941 50.1914 138.379 50.8945C138.816 51.5898 139.035 52.3789 139.035 53.2617C139.035 54.207 138.848 55.0703 138.473 55.8516C138.098 56.6328 137.551 57.4062 136.832 58.1719C136.121 58.9375 135.262 59.7852 134.254 60.7148L132.051 62.7891V62.9531H139.516V66ZM158.816 61.2422C158.816 62.2578 158.57 63.1406 158.078 63.8906C157.586 64.6406 156.867 65.2188 155.922 65.625C154.984 66.0312 153.844 66.2344 152.5 66.2344C151.906 66.2344 151.324 66.1953 150.754 66.1172C150.191 66.0391 149.648 65.9258 149.125 65.7773C148.609 65.6211 148.117 65.4297 147.648 65.2031V61.8281C148.461 62.1875 149.305 62.5117 150.18 62.8008C151.055 63.0898 151.922 63.2344 152.781 63.2344C153.375 63.2344 153.852 63.1562 154.211 63C154.578 62.8438 154.844 62.6289 155.008 62.3555C155.172 62.082 155.254 61.7695 155.254 61.418C155.254 60.9883 155.109 60.6211 154.82 60.3164C154.531 60.0117 154.133 59.7266 153.625 59.4609C153.125 59.1953 152.559 58.9102 151.926 58.6055C151.527 58.418 151.094 58.1914 150.625 57.9258C150.156 57.6523 149.711 57.3203 149.289 56.9297C148.867 56.5391 148.52 56.0664 148.246 55.5117C147.98 54.9492 147.848 54.2773 147.848 53.4961C147.848 52.4727 148.082 51.5977 148.551 50.8711C149.02 50.1445 149.688 49.5898 150.555 49.207C151.43 48.8164 152.461 48.6211 153.648 48.6211C154.539 48.6211 155.387 48.7266 156.191 48.9375C157.004 49.1406 157.852 49.4375 158.734 49.8281L157.562 52.6523C156.773 52.332 156.066 52.0859 155.441 51.9141C154.816 51.7344 154.18 51.6445 153.531 51.6445C153.078 51.6445 152.691 51.7188 152.371 51.8672C152.051 52.0078 151.809 52.2109 151.645 52.4766C151.48 52.7344 151.398 53.0352 151.398 53.3789C151.398 53.7852 151.516 54.1289 151.75 54.4102C151.992 54.6836 152.352 54.9492 152.828 55.207C153.312 55.4648 153.914 55.7656 154.633 56.1094C155.508 56.5234 156.254 56.957 156.871 57.4102C157.496 57.8555 157.977 58.3828 158.312 58.9922C158.648 59.5938 158.816 60.3438 158.816 61.2422ZM167.008 52.6289C168.766 52.6289 170.113 53.0117 171.051 53.7773C171.988 54.543 172.457 55.707 172.457 57.2695V66H169.961L169.27 64.2188H169.176C168.801 64.6875 168.418 65.0703 168.027 65.3672C167.637 65.6641 167.188 65.8828 166.68 66.0234C166.172 66.1641 165.555 66.2344 164.828 66.2344C164.055 66.2344 163.359 66.0859 162.742 65.7891C162.133 65.4922 161.652 65.0391 161.301 64.4297C160.949 63.8125 160.773 63.0312 160.773 62.0859C160.773 60.6953 161.262 59.6719 162.238 59.0156C163.215 58.3516 164.68 57.9844 166.633 57.9141L168.906 57.8438V57.2695C168.906 56.582 168.727 56.0781 168.367 55.7578C168.008 55.4375 167.508 55.2773 166.867 55.2773C166.234 55.2773 165.613 55.3672 165.004 55.5469C164.395 55.7266 163.785 55.9531 163.176 56.2266L161.992 53.8125C162.688 53.4453 163.465 53.1562 164.324 52.9453C165.191 52.7344 166.086 52.6289 167.008 52.6289ZM168.906 59.9297L167.523 59.9766C166.367 60.0078 165.562 60.2148 165.109 60.5977C164.664 60.9805 164.441 61.4844 164.441 62.1094C164.441 62.6562 164.602 63.0469 164.922 63.2812C165.242 63.5078 165.66 63.6211 166.176 63.6211C166.941 63.6211 167.586 63.3945 168.109 62.9414C168.641 62.4883 168.906 61.8438 168.906 61.0078V59.9297ZM181.668 63.3867C182.059 63.3867 182.438 63.3477 182.805 63.2695C183.18 63.1914 183.551 63.0938 183.918 62.9766V65.6367C183.535 65.8086 183.059 65.9492 182.488 66.0586C181.926 66.1758 181.309 66.2344 180.637 66.2344C179.855 66.2344 179.152 66.1094 178.527 65.8594C177.91 65.6016 177.422 65.1602 177.062 64.5352C176.711 63.9023 176.535 63.0234 176.535 61.8984V55.582H174.824V54.0703L176.793 52.875L177.824 50.1094H180.109V52.8984H183.777V55.582H180.109V61.8984C180.109 62.3984 180.25 62.7734 180.531 63.0234C180.82 63.2656 181.199 63.3867 181.668 63.3867ZM198.602 52.8984V66H195.859L195.379 64.3242H195.191C194.91 64.7695 194.559 65.1328 194.137 65.4141C193.715 65.6953 193.25 65.9023 192.742 66.0352C192.234 66.168 191.707 66.2344 191.16 66.2344C190.223 66.2344 189.406 66.0703 188.711 65.7422C188.016 65.4062 187.473 64.8867 187.082 64.1836C186.699 63.4805 186.508 62.5664 186.508 61.4414V52.8984H190.082V60.5508C190.082 61.4883 190.25 62.1953 190.586 62.6719C190.922 63.1484 191.457 63.3867 192.191 63.3867C192.918 63.3867 193.488 63.2227 193.902 62.8945C194.316 62.5586 194.605 62.0703 194.77 61.4297C194.941 60.7812 195.027 59.9922 195.027 59.0625V52.8984H198.602ZM209.664 52.6523C209.844 52.6523 210.051 52.6641 210.285 52.6875C210.527 52.7031 210.723 52.7266 210.871 52.7578L210.602 56.1094C210.484 56.0703 210.316 56.043 210.098 56.0273C209.887 56.0039 209.703 55.9922 209.547 55.9922C209.086 55.9922 208.637 56.0508 208.199 56.168C207.77 56.2852 207.383 56.4766 207.039 56.7422C206.695 57 206.422 57.3438 206.219 57.7734C206.023 58.1953 205.926 58.7148 205.926 59.332V66H202.352V52.8984H205.059L205.586 55.1016H205.762C206.02 54.6562 206.34 54.25 206.723 53.8828C207.113 53.5078 207.555 53.2109 208.047 52.9922C208.547 52.7656 209.086 52.6523 209.664 52.6523ZM217.398 66.2344C215.938 66.2344 214.746 65.6641 213.824 64.5234C212.91 63.375 212.453 61.6914 212.453 59.4727C212.453 57.2305 212.918 55.5352 213.848 54.3867C214.777 53.2305 215.992 52.6523 217.492 52.6523C218.117 52.6523 218.668 52.7383 219.145 52.9102C219.621 53.082 220.031 53.3125 220.375 53.6016C220.727 53.8906 221.023 54.2148 221.266 54.5742H221.383C221.336 54.3242 221.277 53.957 221.207 53.4727C221.145 52.9805 221.113 52.4766 221.113 51.9609V47.7656H224.699V66H221.957L221.266 64.3008H221.113C220.887 64.6602 220.602 64.9883 220.258 65.2852C219.922 65.5742 219.52 65.8047 219.051 65.9766C218.582 66.1484 218.031 66.2344 217.398 66.2344ZM218.652 63.3867C219.629 63.3867 220.316 63.0977 220.715 62.5195C221.121 61.9336 221.336 61.0547 221.359 59.8828V59.4961C221.359 58.2227 221.164 57.25 220.773 56.5781C220.383 55.8984 219.656 55.5586 218.594 55.5586C217.805 55.5586 217.188 55.8984 216.742 56.5781C216.297 57.2578 216.074 58.2383 216.074 59.5195C216.074 60.8008 216.297 61.7656 216.742 62.4141C217.195 63.0625 217.832 63.3867 218.652 63.3867ZM233.805 52.6289C235.562 52.6289 236.91 53.0117 237.848 53.7773C238.785 54.543 239.254 55.707 239.254 57.2695V66H236.758L236.066 64.2188H235.973C235.598 64.6875 235.215 65.0703 234.824 65.3672C234.434 65.6641 233.984 65.8828 233.477 66.0234C232.969 66.1641 232.352 66.2344 231.625 66.2344C230.852 66.2344 230.156 66.0859 229.539 65.7891C228.93 65.4922 228.449 65.0391 228.098 64.4297C227.746 63.8125 227.57 63.0312 227.57 62.0859C227.57 60.6953 228.059 59.6719 229.035 59.0156C230.012 58.3516 231.477 57.9844 233.43 57.9141L235.703 57.8438V57.2695C235.703 56.582 235.523 56.0781 235.164 55.7578C234.805 55.4375 234.305 55.2773 233.664 55.2773C233.031 55.2773 232.41 55.3672 231.801 55.5469C231.191 55.7266 230.582 55.9531 229.973 56.2266L228.789 53.8125C229.484 53.4453 230.262 53.1562 231.121 52.9453C231.988 52.7344 232.883 52.6289 233.805 52.6289ZM235.703 59.9297L234.32 59.9766C233.164 60.0078 232.359 60.2148 231.906 60.5977C231.461 60.9805 231.238 61.4844 231.238 62.1094C231.238 62.6562 231.398 63.0469 231.719 63.2812C232.039 63.5078 232.457 63.6211 232.973 63.6211C233.738 63.6211 234.383 63.3945 234.906 62.9414C235.438 62.4883 235.703 61.8438 235.703 61.0078V59.9297ZM241.07 52.8984H244.984L247.457 60.2695C247.535 60.5039 247.602 60.7422 247.656 60.9844C247.711 61.2266 247.758 61.4766 247.797 61.7344C247.836 61.9922 247.867 62.2617 247.891 62.543H247.961C248.008 62.1211 248.07 61.7266 248.148 61.3594C248.234 60.9922 248.34 60.6289 248.465 60.2695L250.891 52.8984H254.723L249.18 67.6758C248.844 68.582 248.406 69.3359 247.867 69.9375C247.328 70.5469 246.707 71.0039 246.004 71.3086C245.309 71.6133 244.543 71.7656 243.707 71.7656C243.301 71.7656 242.949 71.7422 242.652 71.6953C242.355 71.6562 242.102 71.6133 241.891 71.5664V68.7305C242.055 68.7695 242.262 68.8047 242.512 68.8359C242.762 68.8672 243.023 68.8828 243.297 68.8828C243.797 68.8828 244.227 68.7773 244.586 68.5664C244.945 68.3555 245.246 68.0703 245.488 67.7109C245.73 67.3594 245.922 66.9727 246.062 66.5508L246.273 65.9062L241.07 52.8984ZM63.1562 85.8672H68.4883C70.7695 85.8672 72.4961 86.1875 73.668 86.8281C74.8398 87.4688 75.4258 88.5938 75.4258 90.2031C75.4258 90.8516 75.3203 91.4375 75.1094 91.9609C74.9062 92.4844 74.6094 92.9141 74.2188 93.25C73.8281 93.5859 73.3516 93.8047 72.7891 93.9062V94.0234C73.3594 94.1406 73.875 94.3438 74.3359 94.6328C74.7969 94.9141 75.1641 95.3281 75.4375 95.875C75.7188 96.4141 75.8594 97.1328 75.8594 98.0312C75.8594 99.0703 75.6055 99.9609 75.0977 100.703C74.5898 101.445 73.8633 102.016 72.918 102.414C71.9805 102.805 70.8633 103 69.5664 103H63.1562V85.8672ZM66.7891 92.6523H68.8984C69.9531 92.6523 70.6836 92.4883 71.0898 92.1602C71.4961 91.8242 71.6992 91.332 71.6992 90.6836C71.6992 90.0273 71.457 89.5586 70.9727 89.2773C70.4961 88.9883 69.7383 88.8438 68.6992 88.8438H66.7891V92.6523ZM66.7891 95.5352V100H69.1562C70.25 100 71.0117 99.7891 71.4414 99.3672C71.8711 98.9453 72.0859 98.3789 72.0859 97.668C72.0859 97.2461 71.9922 96.875 71.8047 96.5547C71.6172 96.2344 71.3008 95.9844 70.8555 95.8047C70.418 95.625 69.8125 95.5352 69.0391 95.5352H66.7891ZM91.0234 89.8984V103H88.2812L87.8008 101.324H87.6133C87.332 101.77 86.9805 102.133 86.5586 102.414C86.1367 102.695 85.6719 102.902 85.1641 103.035C84.6562 103.168 84.1289 103.234 83.582 103.234C82.6445 103.234 81.8281 103.07 81.1328 102.742C80.4375 102.406 79.8945 101.887 79.5039 101.184C79.1211 100.48 78.9297 99.5664 78.9297 98.4414V89.8984H82.5039V97.5508C82.5039 98.4883 82.6719 99.1953 83.0078 99.6719C83.3438 100.148 83.8789 100.387 84.6133 100.387C85.3398 100.387 85.9102 100.223 86.3242 99.8945C86.7383 99.5586 87.0273 99.0703 87.1914 98.4297C87.3633 97.7812 87.4492 96.9922 87.4492 96.0625V89.8984H91.0234ZM103.914 99.1094C103.914 100 103.703 100.754 103.281 101.371C102.867 101.98 102.246 102.445 101.418 102.766C100.59 103.078 99.5586 103.234 98.3242 103.234C97.4102 103.234 96.625 103.176 95.9688 103.059C95.3203 102.941 94.6641 102.746 94 102.473V99.5195C94.7109 99.8398 95.4727 100.105 96.2852 100.316C97.1055 100.52 97.8242 100.621 98.4414 100.621C99.1367 100.621 99.6328 100.52 99.9297 100.316C100.234 100.105 100.387 99.832 100.387 99.4961C100.387 99.2773 100.324 99.082 100.199 98.9102C100.082 98.7305 99.8242 98.5312 99.4258 98.3125C99.0273 98.0859 98.4023 97.793 97.5508 97.4336C96.7305 97.0898 96.0547 96.7422 95.5234 96.3906C95 96.0391 94.6094 95.625 94.3516 95.1484C94.1016 94.6641 93.9766 94.0508 93.9766 93.3086C93.9766 92.0977 94.4453 91.1875 95.3828 90.5781C96.3281 89.9609 97.5898 89.6523 99.168 89.6523C99.9805 89.6523 100.754 89.7344 101.488 89.8984C102.23 90.0625 102.992 90.3242 103.773 90.6836L102.695 93.2617C102.047 92.9805 101.434 92.75 100.855 92.5703C100.285 92.3906 99.7031 92.3008 99.1094 92.3008C98.5859 92.3008 98.1914 92.3711 97.9258 92.5117C97.6602 92.6523 97.5273 92.8672 97.5273 93.1562C97.5273 93.3672 97.5938 93.5547 97.7266 93.7188C97.8672 93.8828 98.1328 94.0664 98.5234 94.2695C98.9219 94.4648 99.5039 94.7188 100.27 95.0312C101.012 95.3359 101.656 95.6562 102.203 95.9922C102.75 96.3203 103.172 96.7305 103.469 97.2227C103.766 97.707 103.914 98.3359 103.914 99.1094ZM122.77 93.1094L122.219 95.8281H125.242V98.2422H121.762L120.859 103H118.281L119.195 98.2422H116.922L116.031 103H113.512L114.379 98.2422H111.59V95.8281H114.836L115.387 93.1094H112.434V90.6602H115.82L116.723 85.8906H119.289L118.387 90.6602H120.707L121.621 85.8906H124.141L123.227 90.6602H126.039V93.1094H122.77ZM117.379 95.8281H119.676L120.227 93.1094H117.93L117.379 95.8281ZM139.516 103H127.539V100.48L131.84 96.1328C132.707 95.2422 133.402 94.5 133.926 93.9062C134.457 93.3047 134.84 92.7578 135.074 92.2656C135.316 91.7734 135.438 91.2461 135.438 90.6836C135.438 90.0039 135.246 89.4961 134.863 89.1602C134.488 88.8164 133.984 88.6445 133.352 88.6445C132.688 88.6445 132.043 88.7969 131.418 89.1016C130.793 89.4062 130.141 89.8398 129.461 90.4023L127.492 88.0703C127.984 87.6484 128.504 87.25 129.051 86.875C129.605 86.5 130.246 86.1992 130.973 85.9727C131.707 85.7383 132.586 85.6211 133.609 85.6211C134.734 85.6211 135.699 85.8242 136.504 86.2305C137.316 86.6367 137.941 87.1914 138.379 87.8945C138.816 88.5898 139.035 89.3789 139.035 90.2617C139.035 91.207 138.848 92.0703 138.473 92.8516C138.098 93.6328 137.551 94.4062 136.832 95.1719C136.121 95.9375 135.262 96.7852 134.254 97.7148L132.051 99.7891V99.9531H139.516V103ZM169.75 85.8672L165.391 103H161.254L158.934 94C158.887 93.8281 158.824 93.5664 158.746 93.2148C158.668 92.8633 158.586 92.4805 158.5 92.0664C158.414 91.6445 158.336 91.25 158.266 90.8828C158.203 90.5078 158.16 90.2109 158.137 89.9922C158.113 90.2109 158.066 90.5039 157.996 90.8711C157.934 91.2383 157.859 91.6289 157.773 92.043C157.695 92.457 157.617 92.8438 157.539 93.2031C157.461 93.5625 157.398 93.8359 157.352 94.0234L155.043 103H150.918L146.547 85.8672H150.121L152.312 95.2188C152.375 95.5 152.445 95.8359 152.523 96.2266C152.609 96.6172 152.691 97.0273 152.77 97.457C152.855 97.8789 152.93 98.2891 152.992 98.6875C153.062 99.0781 153.113 99.418 153.145 99.707C153.184 99.4102 153.234 99.0664 153.297 98.6758C153.359 98.2773 153.426 97.875 153.496 97.4688C153.574 97.0547 153.652 96.6719 153.73 96.3203C153.809 95.9688 153.879 95.6836 153.941 95.4648L156.438 85.8672H159.871L162.367 95.4648C162.422 95.6758 162.484 95.9609 162.555 96.3203C162.633 96.6719 162.711 97.0547 162.789 97.4688C162.867 97.8828 162.938 98.2891 163 98.6875C163.07 99.0781 163.121 99.418 163.152 99.707C163.207 99.3164 163.281 98.8438 163.375 98.2891C163.477 97.7266 163.582 97.168 163.691 96.6133C163.809 96.0586 163.91 95.5938 163.996 95.2188L166.176 85.8672H169.75ZM177.027 89.6523C178.238 89.6523 179.281 89.8867 180.156 90.3555C181.031 90.8164 181.707 91.4883 182.184 92.3711C182.66 93.2539 182.898 94.332 182.898 95.6055V97.3398H174.449C174.488 98.3477 174.789 99.1406 175.352 99.7188C175.922 100.289 176.711 100.574 177.719 100.574C178.555 100.574 179.32 100.488 180.016 100.316C180.711 100.145 181.426 99.8867 182.16 99.543V102.309C181.512 102.629 180.832 102.863 180.121 103.012C179.418 103.16 178.562 103.234 177.555 103.234C176.242 103.234 175.078 102.992 174.062 102.508C173.055 102.023 172.262 101.285 171.684 100.293C171.113 99.3008 170.828 98.0508 170.828 96.543C170.828 95.0117 171.086 93.7383 171.602 92.7227C172.125 91.6992 172.852 90.9336 173.781 90.4258C174.711 89.9102 175.793 89.6523 177.027 89.6523ZM177.051 92.1953C176.355 92.1953 175.777 92.418 175.316 92.8633C174.863 93.3086 174.602 94.0078 174.531 94.9609H179.547C179.539 94.4297 179.441 93.957 179.254 93.543C179.074 93.1289 178.801 92.8008 178.434 92.5586C178.074 92.3164 177.613 92.1953 177.051 92.1953ZM191.207 89.6523C192.418 89.6523 193.461 89.8867 194.336 90.3555C195.211 90.8164 195.887 91.4883 196.363 92.3711C196.84 93.2539 197.078 94.332 197.078 95.6055V97.3398H188.629C188.668 98.3477 188.969 99.1406 189.531 99.7188C190.102 100.289 190.891 100.574 191.898 100.574C192.734 100.574 193.5 100.488 194.195 100.316C194.891 100.145 195.605 99.8867 196.34 99.543V102.309C195.691 102.629 195.012 102.863 194.301 103.012C193.598 103.16 192.742 103.234 191.734 103.234C190.422 103.234 189.258 102.992 188.242 102.508C187.234 102.023 186.441 101.285 185.863 100.293C185.293 99.3008 185.008 98.0508 185.008 96.543C185.008 95.0117 185.266 93.7383 185.781 92.7227C186.305 91.6992 187.031 90.9336 187.961 90.4258C188.891 89.9102 189.973 89.6523 191.207 89.6523ZM191.23 92.1953C190.535 92.1953 189.957 92.418 189.496 92.8633C189.043 93.3086 188.781 94.0078 188.711 94.9609H193.727C193.719 94.4297 193.621 93.957 193.434 93.543C193.254 93.1289 192.98 92.8008 192.613 92.5586C192.254 92.3164 191.793 92.1953 191.23 92.1953ZM203.559 84.7656V92.9219C203.559 93.4141 203.539 93.9062 203.5 94.3984C203.461 94.8906 203.418 95.3828 203.371 95.875H203.418C203.66 95.5312 203.906 95.1914 204.156 94.8555C204.414 94.5195 204.688 94.1953 204.977 93.8828L208.645 89.8984H212.676L207.473 95.582L212.992 103H208.867L205.094 97.6914L203.559 98.9219V103H199.984V84.7656H203.559ZM219.016 103.234C217.555 103.234 216.363 102.664 215.441 101.523C214.527 100.375 214.07 98.6914 214.07 96.4727C214.07 94.2305 214.535 92.5352 215.465 91.3867C216.395 90.2305 217.609 89.6523 219.109 89.6523C219.734 89.6523 220.285 89.7383 220.762 89.9102C221.238 90.082 221.648 90.3125 221.992 90.6016C222.344 90.8906 222.641 91.2148 222.883 91.5742H223C222.953 91.3242 222.895 90.957 222.824 90.4727C222.762 89.9805 222.73 89.4766 222.73 88.9609V84.7656H226.316V103H223.574L222.883 101.301H222.73C222.504 101.66 222.219 101.988 221.875 102.285C221.539 102.574 221.137 102.805 220.668 102.977C220.199 103.148 219.648 103.234 219.016 103.234ZM220.27 100.387C221.246 100.387 221.934 100.098 222.332 99.5195C222.738 98.9336 222.953 98.0547 222.977 96.8828V96.4961C222.977 95.2227 222.781 94.25 222.391 93.5781C222 92.8984 221.273 92.5586 220.211 92.5586C219.422 92.5586 218.805 92.8984 218.359 93.5781C217.914 94.2578 217.691 95.2383 217.691 96.5195C217.691 97.8008 217.914 98.7656 218.359 99.4141C218.812 100.062 219.449 100.387 220.27 100.387ZM235.422 89.6289C237.18 89.6289 238.527 90.0117 239.465 90.7773C240.402 91.543 240.871 92.707 240.871 94.2695V103H238.375L237.684 101.219H237.59C237.215 101.688 236.832 102.07 236.441 102.367C236.051 102.664 235.602 102.883 235.094 103.023C234.586 103.164 233.969 103.234 233.242 103.234C232.469 103.234 231.773 103.086 231.156 102.789C230.547 102.492 230.066 102.039 229.715 101.43C229.363 100.812 229.188 100.031 229.188 99.0859C229.188 97.6953 229.676 96.6719 230.652 96.0156C231.629 95.3516 233.094 94.9844 235.047 94.9141L237.32 94.8438V94.2695C237.32 93.582 237.141 93.0781 236.781 92.7578C236.422 92.4375 235.922 92.2773 235.281 92.2773C234.648 92.2773 234.027 92.3672 233.418 92.5469C232.809 92.7266 232.199 92.9531 231.59 93.2266L230.406 90.8125C231.102 90.4453 231.879 90.1562 232.738 89.9453C233.605 89.7344 234.5 89.6289 235.422 89.6289ZM237.32 96.9297L235.938 96.9766C234.781 97.0078 233.977 97.2148 233.523 97.5977C233.078 97.9805 232.855 98.4844 232.855 99.1094C232.855 99.6562 233.016 100.047 233.336 100.281C233.656 100.508 234.074 100.621 234.59 100.621C235.355 100.621 236 100.395 236.523 99.9414C237.055 99.4883 237.32 98.8438 237.32 98.0078V96.9297ZM242.688 89.8984H246.602L249.074 97.2695C249.152 97.5039 249.219 97.7422 249.273 97.9844C249.328 98.2266 249.375 98.4766 249.414 98.7344C249.453 98.9922 249.484 99.2617 249.508 99.543H249.578C249.625 99.1211 249.688 98.7266 249.766 98.3594C249.852 97.9922 249.957 97.6289 250.082 97.2695L252.508 89.8984H256.34L250.797 104.676C250.461 105.582 250.023 106.336 249.484 106.938C248.945 107.547 248.324 108.004 247.621 108.309C246.926 108.613 246.16 108.766 245.324 108.766C244.918 108.766 244.566 108.742 244.27 108.695C243.973 108.656 243.719 108.613 243.508 108.566V105.73C243.672 105.77 243.879 105.805 244.129 105.836C244.379 105.867 244.641 105.883 244.914 105.883C245.414 105.883 245.844 105.777 246.203 105.566C246.562 105.355 246.863 105.07 247.105 104.711C247.348 104.359 247.539 103.973 247.68 103.551L247.891 102.906L242.688 89.8984ZM63.1562 123.867H68.4883C70.7695 123.867 72.4961 124.188 73.668 124.828C74.8398 125.469 75.4258 126.594 75.4258 128.203C75.4258 128.852 75.3203 129.438 75.1094 129.961C74.9062 130.484 74.6094 130.914 74.2188 131.25C73.8281 131.586 73.3516 131.805 72.7891 131.906V132.023C73.3594 132.141 73.875 132.344 74.3359 132.633C74.7969 132.914 75.1641 133.328 75.4375 133.875C75.7188 134.414 75.8594 135.133 75.8594 136.031C75.8594 137.07 75.6055 137.961 75.0977 138.703C74.5898 139.445 73.8633 140.016 72.918 140.414C71.9805 140.805 70.8633 141 69.5664 141H63.1562V123.867ZM66.7891 130.652H68.8984C69.9531 130.652 70.6836 130.488 71.0898 130.16C71.4961 129.824 71.6992 129.332 71.6992 128.684C71.6992 128.027 71.457 127.559 70.9727 127.277C70.4961 126.988 69.7383 126.844 68.6992 126.844H66.7891V130.652ZM66.7891 133.535V138H69.1562C70.25 138 71.0117 137.789 71.4414 137.367C71.8711 136.945 72.0859 136.379 72.0859 135.668C72.0859 135.246 71.9922 134.875 71.8047 134.555C71.6172 134.234 71.3008 133.984 70.8555 133.805C70.418 133.625 69.8125 133.535 69.0391 133.535H66.7891ZM91.0234 127.898V141H88.2812L87.8008 139.324H87.6133C87.332 139.77 86.9805 140.133 86.5586 140.414C86.1367 140.695 85.6719 140.902 85.1641 141.035C84.6562 141.168 84.1289 141.234 83.582 141.234C82.6445 141.234 81.8281 141.07 81.1328 140.742C80.4375 140.406 79.8945 139.887 79.5039 139.184C79.1211 138.48 78.9297 137.566 78.9297 136.441V127.898H82.5039V135.551C82.5039 136.488 82.6719 137.195 83.0078 137.672C83.3438 138.148 83.8789 138.387 84.6133 138.387C85.3398 138.387 85.9102 138.223 86.3242 137.895C86.7383 137.559 87.0273 137.07 87.1914 136.43C87.3633 135.781 87.4492 134.992 87.4492 134.062V127.898H91.0234ZM103.914 137.109C103.914 138 103.703 138.754 103.281 139.371C102.867 139.98 102.246 140.445 101.418 140.766C100.59 141.078 99.5586 141.234 98.3242 141.234C97.4102 141.234 96.625 141.176 95.9688 141.059C95.3203 140.941 94.6641 140.746 94 140.473V137.52C94.7109 137.84 95.4727 138.105 96.2852 138.316C97.1055 138.52 97.8242 138.621 98.4414 138.621C99.1367 138.621 99.6328 138.52 99.9297 138.316C100.234 138.105 100.387 137.832 100.387 137.496C100.387 137.277 100.324 137.082 100.199 136.91C100.082 136.73 99.8242 136.531 99.4258 136.312C99.0273 136.086 98.4023 135.793 97.5508 135.434C96.7305 135.09 96.0547 134.742 95.5234 134.391C95 134.039 94.6094 133.625 94.3516 133.148C94.1016 132.664 93.9766 132.051 93.9766 131.309C93.9766 130.098 94.4453 129.188 95.3828 128.578C96.3281 127.961 97.5898 127.652 99.168 127.652C99.9805 127.652 100.754 127.734 101.488 127.898C102.23 128.062 102.992 128.324 103.773 128.684L102.695 131.262C102.047 130.98 101.434 130.75 100.855 130.57C100.285 130.391 99.7031 130.301 99.1094 130.301C98.5859 130.301 98.1914 130.371 97.9258 130.512C97.6602 130.652 97.5273 130.867 97.5273 131.156C97.5273 131.367 97.5938 131.555 97.7266 131.719C97.8672 131.883 98.1328 132.066 98.5234 132.27C98.9219 132.465 99.5039 132.719 100.27 133.031C101.012 133.336 101.656 133.656 102.203 133.992C102.75 134.32 103.172 134.73 103.469 135.223C103.766 135.707 103.914 136.336 103.914 137.109ZM122.77 131.109L122.219 133.828H125.242V136.242H121.762L120.859 141H118.281L119.195 136.242H116.922L116.031 141H113.512L114.379 136.242H111.59V133.828H114.836L115.387 131.109H112.434V128.66H115.82L116.723 123.891H119.289L118.387 128.66H120.707L121.621 123.891H124.141L123.227 128.66H126.039V131.109H122.77ZM117.379 133.828H119.676L120.227 131.109H117.93L117.379 133.828ZM136.492 141H132.871V131.086C132.871 130.812 132.875 130.477 132.883 130.078C132.891 129.672 132.902 129.258 132.918 128.836C132.934 128.406 132.949 128.02 132.965 127.676C132.879 127.777 132.703 127.953 132.438 128.203C132.18 128.445 131.938 128.664 131.711 128.859L129.742 130.441L127.996 128.262L133.516 123.867H136.492V141ZM158.816 136.242C158.816 137.258 158.57 138.141 158.078 138.891C157.586 139.641 156.867 140.219 155.922 140.625C154.984 141.031 153.844 141.234 152.5 141.234C151.906 141.234 151.324 141.195 150.754 141.117C150.191 141.039 149.648 140.926 149.125 140.777C148.609 140.621 148.117 140.43 147.648 140.203V136.828C148.461 137.188 149.305 137.512 150.18 137.801C151.055 138.09 151.922 138.234 152.781 138.234C153.375 138.234 153.852 138.156 154.211 138C154.578 137.844 154.844 137.629 155.008 137.355C155.172 137.082 155.254 136.77 155.254 136.418C155.254 135.988 155.109 135.621 154.82 135.316C154.531 135.012 154.133 134.727 153.625 134.461C153.125 134.195 152.559 133.91 151.926 133.605C151.527 133.418 151.094 133.191 150.625 132.926C150.156 132.652 149.711 132.32 149.289 131.93C148.867 131.539 148.52 131.066 148.246 130.512C147.98 129.949 147.848 129.277 147.848 128.496C147.848 127.473 148.082 126.598 148.551 125.871C149.02 125.145 149.688 124.59 150.555 124.207C151.43 123.816 152.461 123.621 153.648 123.621C154.539 123.621 155.387 123.727 156.191 123.938C157.004 124.141 157.852 124.438 158.734 124.828L157.562 127.652C156.773 127.332 156.066 127.086 155.441 126.914C154.816 126.734 154.18 126.645 153.531 126.645C153.078 126.645 152.691 126.719 152.371 126.867C152.051 127.008 151.809 127.211 151.645 127.477C151.48 127.734 151.398 128.035 151.398 128.379C151.398 128.785 151.516 129.129 151.75 129.41C151.992 129.684 152.352 129.949 152.828 130.207C153.312 130.465 153.914 130.766 154.633 131.109C155.508 131.523 156.254 131.957 156.871 132.41C157.496 132.855 157.977 133.383 158.312 133.992C158.648 134.594 158.816 135.344 158.816 136.242ZM173.664 127.898V141H170.922L170.441 139.324H170.254C169.973 139.77 169.621 140.133 169.199 140.414C168.777 140.695 168.312 140.902 167.805 141.035C167.297 141.168 166.77 141.234 166.223 141.234C165.285 141.234 164.469 141.07 163.773 140.742C163.078 140.406 162.535 139.887 162.145 139.184C161.762 138.48 161.57 137.566 161.57 136.441V127.898H165.145V135.551C165.145 136.488 165.312 137.195 165.648 137.672C165.984 138.148 166.52 138.387 167.254 138.387C167.98 138.387 168.551 138.223 168.965 137.895C169.379 137.559 169.668 137.07 169.832 136.43C170.004 135.781 170.09 134.992 170.09 134.062V127.898H173.664ZM184.855 127.652C186.254 127.652 187.379 128.035 188.23 128.801C189.082 129.559 189.508 130.777 189.508 132.457V141H185.934V133.348C185.934 132.41 185.762 131.703 185.418 131.227C185.082 130.75 184.551 130.512 183.824 130.512C182.73 130.512 181.984 130.883 181.586 131.625C181.188 132.367 180.988 133.438 180.988 134.836V141H177.414V127.898H180.145L180.625 129.574H180.824C181.105 129.121 181.453 128.754 181.867 128.473C182.289 128.191 182.754 127.984 183.262 127.852C183.777 127.719 184.309 127.652 184.855 127.652ZM197.336 141.234C195.875 141.234 194.684 140.664 193.762 139.523C192.848 138.375 192.391 136.691 192.391 134.473C192.391 132.23 192.855 130.535 193.785 129.387C194.715 128.23 195.93 127.652 197.43 127.652C198.055 127.652 198.605 127.738 199.082 127.91C199.559 128.082 199.969 128.312 200.312 128.602C200.664 128.891 200.961 129.215 201.203 129.574H201.32C201.273 129.324 201.215 128.957 201.145 128.473C201.082 127.98 201.051 127.477 201.051 126.961V122.766H204.637V141H201.895L201.203 139.301H201.051C200.824 139.66 200.539 139.988 200.195 140.285C199.859 140.574 199.457 140.805 198.988 140.977C198.52 141.148 197.969 141.234 197.336 141.234ZM198.59 138.387C199.566 138.387 200.254 138.098 200.652 137.52C201.059 136.934 201.273 136.055 201.297 134.883V134.496C201.297 133.223 201.102 132.25 200.711 131.578C200.32 130.898 199.594 130.559 198.531 130.559C197.742 130.559 197.125 130.898 196.68 131.578C196.234 132.258 196.012 133.238 196.012 134.52C196.012 135.801 196.234 136.766 196.68 137.414C197.133 138.062 197.77 138.387 198.59 138.387ZM213.742 127.629C215.5 127.629 216.848 128.012 217.785 128.777C218.723 129.543 219.191 130.707 219.191 132.27V141H216.695L216.004 139.219H215.91C215.535 139.688 215.152 140.07 214.762 140.367C214.371 140.664 213.922 140.883 213.414 141.023C212.906 141.164 212.289 141.234 211.562 141.234C210.789 141.234 210.094 141.086 209.477 140.789C208.867 140.492 208.387 140.039 208.035 139.43C207.684 138.812 207.508 138.031 207.508 137.086C207.508 135.695 207.996 134.672 208.973 134.016C209.949 133.352 211.414 132.984 213.367 132.914L215.641 132.844V132.27C215.641 131.582 215.461 131.078 215.102 130.758C214.742 130.438 214.242 130.277 213.602 130.277C212.969 130.277 212.348 130.367 211.738 130.547C211.129 130.727 210.52 130.953 209.91 131.227L208.727 128.812C209.422 128.445 210.199 128.156 211.059 127.945C211.926 127.734 212.82 127.629 213.742 127.629ZM215.641 134.93L214.258 134.977C213.102 135.008 212.297 135.215 211.844 135.598C211.398 135.98 211.176 136.484 211.176 137.109C211.176 137.656 211.336 138.047 211.656 138.281C211.977 138.508 212.395 138.621 212.91 138.621C213.676 138.621 214.32 138.395 214.844 137.941C215.375 137.488 215.641 136.844 215.641 136.008V134.93ZM221.008 127.898H224.922L227.395 135.27C227.473 135.504 227.539 135.742 227.594 135.984C227.648 136.227 227.695 136.477 227.734 136.734C227.773 136.992 227.805 137.262 227.828 137.543H227.898C227.945 137.121 228.008 136.727 228.086 136.359C228.172 135.992 228.277 135.629 228.402 135.27L230.828 127.898H234.66L229.117 142.676C228.781 143.582 228.344 144.336 227.805 144.938C227.266 145.547 226.645 146.004 225.941 146.309C225.246 146.613 224.48 146.766 223.645 146.766C223.238 146.766 222.887 146.742 222.59 146.695C222.293 146.656 222.039 146.613 221.828 146.566V143.73C221.992 143.77 222.199 143.805 222.449 143.836C222.699 143.867 222.961 143.883 223.234 143.883C223.734 143.883 224.164 143.777 224.523 143.566C224.883 143.355 225.184 143.07 225.426 142.711C225.668 142.359 225.859 141.973 226 141.551L226.211 140.906L221.008 127.898ZM63.1562 160.867H68.4883C70.7695 160.867 72.4961 161.188 73.668 161.828C74.8398 162.469 75.4258 163.594 75.4258 165.203C75.4258 165.852 75.3203 166.438 75.1094 166.961C74.9062 167.484 74.6094 167.914 74.2188 168.25C73.8281 168.586 73.3516 168.805 72.7891 168.906V169.023C73.3594 169.141 73.875 169.344 74.3359 169.633C74.7969 169.914 75.1641 170.328 75.4375 170.875C75.7188 171.414 75.8594 172.133 75.8594 173.031C75.8594 174.07 75.6055 174.961 75.0977 175.703C74.5898 176.445 73.8633 177.016 72.918 177.414C71.9805 177.805 70.8633 178 69.5664 178H63.1562V160.867ZM66.7891 167.652H68.8984C69.9531 167.652 70.6836 167.488 71.0898 167.16C71.4961 166.824 71.6992 166.332 71.6992 165.684C71.6992 165.027 71.457 164.559 70.9727 164.277C70.4961 163.988 69.7383 163.844 68.6992 163.844H66.7891V167.652ZM66.7891 170.535V175H69.1562C70.25 175 71.0117 174.789 71.4414 174.367C71.8711 173.945 72.0859 173.379 72.0859 172.668C72.0859 172.246 71.9922 171.875 71.8047 171.555C71.6172 171.234 71.3008 170.984 70.8555 170.805C70.418 170.625 69.8125 170.535 69.0391 170.535H66.7891ZM91.0234 164.898V178H88.2812L87.8008 176.324H87.6133C87.332 176.77 86.9805 177.133 86.5586 177.414C86.1367 177.695 85.6719 177.902 85.1641 178.035C84.6562 178.168 84.1289 178.234 83.582 178.234C82.6445 178.234 81.8281 178.07 81.1328 177.742C80.4375 177.406 79.8945 176.887 79.5039 176.184C79.1211 175.48 78.9297 174.566 78.9297 173.441V164.898H82.5039V172.551C82.5039 173.488 82.6719 174.195 83.0078 174.672C83.3438 175.148 83.8789 175.387 84.6133 175.387C85.3398 175.387 85.9102 175.223 86.3242 174.895C86.7383 174.559 87.0273 174.07 87.1914 173.43C87.3633 172.781 87.4492 171.992 87.4492 171.062V164.898H91.0234ZM103.914 174.109C103.914 175 103.703 175.754 103.281 176.371C102.867 176.98 102.246 177.445 101.418 177.766C100.59 178.078 99.5586 178.234 98.3242 178.234C97.4102 178.234 96.625 178.176 95.9688 178.059C95.3203 177.941 94.6641 177.746 94 177.473V174.52C94.7109 174.84 95.4727 175.105 96.2852 175.316C97.1055 175.52 97.8242 175.621 98.4414 175.621C99.1367 175.621 99.6328 175.52 99.9297 175.316C100.234 175.105 100.387 174.832 100.387 174.496C100.387 174.277 100.324 174.082 100.199 173.91C100.082 173.73 99.8242 173.531 99.4258 173.312C99.0273 173.086 98.4023 172.793 97.5508 172.434C96.7305 172.09 96.0547 171.742 95.5234 171.391C95 171.039 94.6094 170.625 94.3516 170.148C94.1016 169.664 93.9766 169.051 93.9766 168.309C93.9766 167.098 94.4453 166.188 95.3828 165.578C96.3281 164.961 97.5898 164.652 99.168 164.652C99.9805 164.652 100.754 164.734 101.488 164.898C102.23 165.062 102.992 165.324 103.773 165.684L102.695 168.262C102.047 167.98 101.434 167.75 100.855 167.57C100.285 167.391 99.7031 167.301 99.1094 167.301C98.5859 167.301 98.1914 167.371 97.9258 167.512C97.6602 167.652 97.5273 167.867 97.5273 168.156C97.5273 168.367 97.5938 168.555 97.7266 168.719C97.8672 168.883 98.1328 169.066 98.5234 169.27C98.9219 169.465 99.5039 169.719 100.27 170.031C101.012 170.336 101.656 170.656 102.203 170.992C102.75 171.32 103.172 171.73 103.469 172.223C103.766 172.707 103.914 173.336 103.914 174.109ZM122.77 168.109L122.219 170.828H125.242V173.242H121.762L120.859 178H118.281L119.195 173.242H116.922L116.031 178H113.512L114.379 173.242H111.59V170.828H114.836L115.387 168.109H112.434V165.66H115.82L116.723 160.891H119.289L118.387 165.66H120.707L121.621 160.891H124.141L123.227 165.66H126.039V168.109H122.77ZM117.379 170.828H119.676L120.227 168.109H117.93L117.379 170.828ZM136.492 178H132.871V168.086C132.871 167.812 132.875 167.477 132.883 167.078C132.891 166.672 132.902 166.258 132.918 165.836C132.934 165.406 132.949 165.02 132.965 164.676C132.879 164.777 132.703 164.953 132.438 165.203C132.18 165.445 131.938 165.664 131.711 165.859L129.742 167.441L127.996 165.262L133.516 160.867H136.492V178ZM158.816 173.242C158.816 174.258 158.57 175.141 158.078 175.891C157.586 176.641 156.867 177.219 155.922 177.625C154.984 178.031 153.844 178.234 152.5 178.234C151.906 178.234 151.324 178.195 150.754 178.117C150.191 178.039 149.648 177.926 149.125 177.777C148.609 177.621 148.117 177.43 147.648 177.203V173.828C148.461 174.188 149.305 174.512 150.18 174.801C151.055 175.09 151.922 175.234 152.781 175.234C153.375 175.234 153.852 175.156 154.211 175C154.578 174.844 154.844 174.629 155.008 174.355C155.172 174.082 155.254 173.77 155.254 173.418C155.254 172.988 155.109 172.621 154.82 172.316C154.531 172.012 154.133 171.727 153.625 171.461C153.125 171.195 152.559 170.91 151.926 170.605C151.527 170.418 151.094 170.191 150.625 169.926C150.156 169.652 149.711 169.32 149.289 168.93C148.867 168.539 148.52 168.066 148.246 167.512C147.98 166.949 147.848 166.277 147.848 165.496C147.848 164.473 148.082 163.598 148.551 162.871C149.02 162.145 149.688 161.59 150.555 161.207C151.43 160.816 152.461 160.621 153.648 160.621C154.539 160.621 155.387 160.727 156.191 160.938C157.004 161.141 157.852 161.438 158.734 161.828L157.562 164.652C156.773 164.332 156.066 164.086 155.441 163.914C154.816 163.734 154.18 163.645 153.531 163.645C153.078 163.645 152.691 163.719 152.371 163.867C152.051 164.008 151.809 164.211 151.645 164.477C151.48 164.734 151.398 165.035 151.398 165.379C151.398 165.785 151.516 166.129 151.75 166.41C151.992 166.684 152.352 166.949 152.828 167.207C153.312 167.465 153.914 167.766 154.633 168.109C155.508 168.523 156.254 168.957 156.871 169.41C157.496 169.855 157.977 170.383 158.312 170.992C158.648 171.594 158.816 172.344 158.816 173.242ZM167.008 164.629C168.766 164.629 170.113 165.012 171.051 165.777C171.988 166.543 172.457 167.707 172.457 169.27V178H169.961L169.27 176.219H169.176C168.801 176.688 168.418 177.07 168.027 177.367C167.637 177.664 167.188 177.883 166.68 178.023C166.172 178.164 165.555 178.234 164.828 178.234C164.055 178.234 163.359 178.086 162.742 177.789C162.133 177.492 161.652 177.039 161.301 176.43C160.949 175.812 160.773 175.031 160.773 174.086C160.773 172.695 161.262 171.672 162.238 171.016C163.215 170.352 164.68 169.984 166.633 169.914L168.906 169.844V169.27C168.906 168.582 168.727 168.078 168.367 167.758C168.008 167.438 167.508 167.277 166.867 167.277C166.234 167.277 165.613 167.367 165.004 167.547C164.395 167.727 163.785 167.953 163.176 168.227L161.992 165.812C162.688 165.445 163.465 165.156 164.324 164.945C165.191 164.734 166.086 164.629 167.008 164.629ZM168.906 171.93L167.523 171.977C166.367 172.008 165.562 172.215 165.109 172.598C164.664 172.98 164.441 173.484 164.441 174.109C164.441 174.656 164.602 175.047 164.922 175.281C165.242 175.508 165.66 175.621 166.176 175.621C166.941 175.621 167.586 175.395 168.109 174.941C168.641 174.488 168.906 173.844 168.906 173.008V171.93ZM181.668 175.387C182.059 175.387 182.438 175.348 182.805 175.27C183.18 175.191 183.551 175.094 183.918 174.977V177.637C183.535 177.809 183.059 177.949 182.488 178.059C181.926 178.176 181.309 178.234 180.637 178.234C179.855 178.234 179.152 178.109 178.527 177.859C177.91 177.602 177.422 177.16 177.062 176.535C176.711 175.902 176.535 175.023 176.535 173.898V167.582H174.824V166.07L176.793 164.875L177.824 162.109H180.109V164.898H183.777V167.582H180.109V173.898C180.109 174.398 180.25 174.773 180.531 175.023C180.82 175.266 181.199 175.387 181.668 175.387ZM198.602 164.898V178H195.859L195.379 176.324H195.191C194.91 176.77 194.559 177.133 194.137 177.414C193.715 177.695 193.25 177.902 192.742 178.035C192.234 178.168 191.707 178.234 191.16 178.234C190.223 178.234 189.406 178.07 188.711 177.742C188.016 177.406 187.473 176.887 187.082 176.184C186.699 175.48 186.508 174.566 186.508 173.441V164.898H190.082V172.551C190.082 173.488 190.25 174.195 190.586 174.672C190.922 175.148 191.457 175.387 192.191 175.387C192.918 175.387 193.488 175.223 193.902 174.895C194.316 174.559 194.605 174.07 194.77 173.43C194.941 172.781 195.027 171.992 195.027 171.062V164.898H198.602ZM209.664 164.652C209.844 164.652 210.051 164.664 210.285 164.688C210.527 164.703 210.723 164.727 210.871 164.758L210.602 168.109C210.484 168.07 210.316 168.043 210.098 168.027C209.887 168.004 209.703 167.992 209.547 167.992C209.086 167.992 208.637 168.051 208.199 168.168C207.77 168.285 207.383 168.477 207.039 168.742C206.695 169 206.422 169.344 206.219 169.773C206.023 170.195 205.926 170.715 205.926 171.332V178H202.352V164.898H205.059L205.586 167.102H205.762C206.02 166.656 206.34 166.25 206.723 165.883C207.113 165.508 207.555 165.211 208.047 164.992C208.547 164.766 209.086 164.652 209.664 164.652ZM217.398 178.234C215.938 178.234 214.746 177.664 213.824 176.523C212.91 175.375 212.453 173.691 212.453 171.473C212.453 169.23 212.918 167.535 213.848 166.387C214.777 165.23 215.992 164.652 217.492 164.652C218.117 164.652 218.668 164.738 219.145 164.91C219.621 165.082 220.031 165.312 220.375 165.602C220.727 165.891 221.023 166.215 221.266 166.574H221.383C221.336 166.324 221.277 165.957 221.207 165.473C221.145 164.98 221.113 164.477 221.113 163.961V159.766H224.699V178H221.957L221.266 176.301H221.113C220.887 176.66 220.602 176.988 220.258 177.285C219.922 177.574 219.52 177.805 219.051 177.977C218.582 178.148 218.031 178.234 217.398 178.234ZM218.652 175.387C219.629 175.387 220.316 175.098 220.715 174.52C221.121 173.934 221.336 173.055 221.359 171.883V171.496C221.359 170.223 221.164 169.25 220.773 168.578C220.383 167.898 219.656 167.559 218.594 167.559C217.805 167.559 217.188 167.898 216.742 168.578C216.297 169.258 216.074 170.238 216.074 171.52C216.074 172.801 216.297 173.766 216.742 174.414C217.195 175.062 217.832 175.387 218.652 175.387ZM233.805 164.629C235.562 164.629 236.91 165.012 237.848 165.777C238.785 166.543 239.254 167.707 239.254 169.27V178H236.758L236.066 176.219H235.973C235.598 176.688 235.215 177.07 234.824 177.367C234.434 177.664 233.984 177.883 233.477 178.023C232.969 178.164 232.352 178.234 231.625 178.234C230.852 178.234 230.156 178.086 229.539 177.789C228.93 177.492 228.449 177.039 228.098 176.43C227.746 175.812 227.57 175.031 227.57 174.086C227.57 172.695 228.059 171.672 229.035 171.016C230.012 170.352 231.477 169.984 233.43 169.914L235.703 169.844V169.27C235.703 168.582 235.523 168.078 235.164 167.758C234.805 167.438 234.305 167.277 233.664 167.277C233.031 167.277 232.41 167.367 231.801 167.547C231.191 167.727 230.582 167.953 229.973 168.227L228.789 165.812C229.484 165.445 230.262 165.156 231.121 164.945C231.988 164.734 232.883 164.629 233.805 164.629ZM235.703 171.93L234.32 171.977C233.164 172.008 232.359 172.215 231.906 172.598C231.461 172.98 231.238 173.484 231.238 174.109C231.238 174.656 231.398 175.047 231.719 175.281C232.039 175.508 232.457 175.621 232.973 175.621C233.738 175.621 234.383 175.395 234.906 174.941C235.438 174.488 235.703 173.844 235.703 173.008V171.93ZM241.07 164.898H244.984L247.457 172.27C247.535 172.504 247.602 172.742 247.656 172.984C247.711 173.227 247.758 173.477 247.797 173.734C247.836 173.992 247.867 174.262 247.891 174.543H247.961C248.008 174.121 248.07 173.727 248.148 173.359C248.234 172.992 248.34 172.629 248.465 172.27L250.891 164.898H254.723L249.18 179.676C248.844 180.582 248.406 181.336 247.867 181.938C247.328 182.547 246.707 183.004 246.004 183.309C245.309 183.613 244.543 183.766 243.707 183.766C243.301 183.766 242.949 183.742 242.652 183.695C242.355 183.656 242.102 183.613 241.891 183.566V180.73C242.055 180.77 242.262 180.805 242.512 180.836C242.762 180.867 243.023 180.883 243.297 180.883C243.797 180.883 244.227 180.777 244.586 180.566C244.945 180.355 245.246 180.07 245.488 179.711C245.73 179.359 245.922 178.973 246.062 178.551L246.273 177.906L241.07 164.898ZM63.1562 198.867H68.4883C70.7695 198.867 72.4961 199.188 73.668 199.828C74.8398 200.469 75.4258 201.594 75.4258 203.203C75.4258 203.852 75.3203 204.438 75.1094 204.961C74.9062 205.484 74.6094 205.914 74.2188 206.25C73.8281 206.586 73.3516 206.805 72.7891 206.906V207.023C73.3594 207.141 73.875 207.344 74.3359 207.633C74.7969 207.914 75.1641 208.328 75.4375 208.875C75.7188 209.414 75.8594 210.133 75.8594 211.031C75.8594 212.07 75.6055 212.961 75.0977 213.703C74.5898 214.445 73.8633 215.016 72.918 215.414C71.9805 215.805 70.8633 216 69.5664 216H63.1562V198.867ZM66.7891 205.652H68.8984C69.9531 205.652 70.6836 205.488 71.0898 205.16C71.4961 204.824 71.6992 204.332 71.6992 203.684C71.6992 203.027 71.457 202.559 70.9727 202.277C70.4961 201.988 69.7383 201.844 68.6992 201.844H66.7891V205.652ZM66.7891 208.535V213H69.1562C70.25 213 71.0117 212.789 71.4414 212.367C71.8711 211.945 72.0859 211.379 72.0859 210.668C72.0859 210.246 71.9922 209.875 71.8047 209.555C71.6172 209.234 71.3008 208.984 70.8555 208.805C70.418 208.625 69.8125 208.535 69.0391 208.535H66.7891ZM91.0234 202.898V216H88.2812L87.8008 214.324H87.6133C87.332 214.77 86.9805 215.133 86.5586 215.414C86.1367 215.695 85.6719 215.902 85.1641 216.035C84.6562 216.168 84.1289 216.234 83.582 216.234C82.6445 216.234 81.8281 216.07 81.1328 215.742C80.4375 215.406 79.8945 214.887 79.5039 214.184C79.1211 213.48 78.9297 212.566 78.9297 211.441V202.898H82.5039V210.551C82.5039 211.488 82.6719 212.195 83.0078 212.672C83.3438 213.148 83.8789 213.387 84.6133 213.387C85.3398 213.387 85.9102 213.223 86.3242 212.895C86.7383 212.559 87.0273 212.07 87.1914 211.43C87.3633 210.781 87.4492 209.992 87.4492 209.062V202.898H91.0234ZM103.914 212.109C103.914 213 103.703 213.754 103.281 214.371C102.867 214.98 102.246 215.445 101.418 215.766C100.59 216.078 99.5586 216.234 98.3242 216.234C97.4102 216.234 96.625 216.176 95.9688 216.059C95.3203 215.941 94.6641 215.746 94 215.473V212.52C94.7109 212.84 95.4727 213.105 96.2852 213.316C97.1055 213.52 97.8242 213.621 98.4414 213.621C99.1367 213.621 99.6328 213.52 99.9297 213.316C100.234 213.105 100.387 212.832 100.387 212.496C100.387 212.277 100.324 212.082 100.199 211.91C100.082 211.73 99.8242 211.531 99.4258 211.312C99.0273 211.086 98.4023 210.793 97.5508 210.434C96.7305 210.09 96.0547 209.742 95.5234 209.391C95 209.039 94.6094 208.625 94.3516 208.148C94.1016 207.664 93.9766 207.051 93.9766 206.309C93.9766 205.098 94.4453 204.188 95.3828 203.578C96.3281 202.961 97.5898 202.652 99.168 202.652C99.9805 202.652 100.754 202.734 101.488 202.898C102.23 203.062 102.992 203.324 103.773 203.684L102.695 206.262C102.047 205.98 101.434 205.75 100.855 205.57C100.285 205.391 99.7031 205.301 99.1094 205.301C98.5859 205.301 98.1914 205.371 97.9258 205.512C97.6602 205.652 97.5273 205.867 97.5273 206.156C97.5273 206.367 97.5938 206.555 97.7266 206.719C97.8672 206.883 98.1328 207.066 98.5234 207.27C98.9219 207.465 99.5039 207.719 100.27 208.031C101.012 208.336 101.656 208.656 102.203 208.992C102.75 209.32 103.172 209.73 103.469 210.223C103.766 210.707 103.914 211.336 103.914 212.109ZM122.77 206.109L122.219 208.828H125.242V211.242H121.762L120.859 216H118.281L119.195 211.242H116.922L116.031 216H113.512L114.379 211.242H111.59V208.828H114.836L115.387 206.109H112.434V203.66H115.82L116.723 198.891H119.289L118.387 203.66H120.707L121.621 198.891H124.141L123.227 203.66H126.039V206.109H122.77ZM117.379 208.828H119.676L120.227 206.109H117.93L117.379 208.828ZM136.492 216H132.871V206.086C132.871 205.812 132.875 205.477 132.883 205.078C132.891 204.672 132.902 204.258 132.918 203.836C132.934 203.406 132.949 203.02 132.965 202.676C132.879 202.777 132.703 202.953 132.438 203.203C132.18 203.445 131.938 203.664 131.711 203.859L129.742 205.441L127.996 203.262L133.516 198.867H136.492V216ZM169.75 198.867L165.391 216H161.254L158.934 207C158.887 206.828 158.824 206.566 158.746 206.215C158.668 205.863 158.586 205.48 158.5 205.066C158.414 204.645 158.336 204.25 158.266 203.883C158.203 203.508 158.16 203.211 158.137 202.992C158.113 203.211 158.066 203.504 157.996 203.871C157.934 204.238 157.859 204.629 157.773 205.043C157.695 205.457 157.617 205.844 157.539 206.203C157.461 206.562 157.398 206.836 157.352 207.023L155.043 216H150.918L146.547 198.867H150.121L152.312 208.219C152.375 208.5 152.445 208.836 152.523 209.227C152.609 209.617 152.691 210.027 152.77 210.457C152.855 210.879 152.93 211.289 152.992 211.688C153.062 212.078 153.113 212.418 153.145 212.707C153.184 212.41 153.234 212.066 153.297 211.676C153.359 211.277 153.426 210.875 153.496 210.469C153.574 210.055 153.652 209.672 153.73 209.32C153.809 208.969 153.879 208.684 153.941 208.465L156.438 198.867H159.871L162.367 208.465C162.422 208.676 162.484 208.961 162.555 209.32C162.633 209.672 162.711 210.055 162.789 210.469C162.867 210.883 162.938 211.289 163 211.688C163.07 212.078 163.121 212.418 163.152 212.707C163.207 212.316 163.281 211.844 163.375 211.289C163.477 210.727 163.582 210.168 163.691 209.613C163.809 209.059 163.91 208.594 163.996 208.219L166.176 198.867H169.75ZM177.027 202.652C178.238 202.652 179.281 202.887 180.156 203.355C181.031 203.816 181.707 204.488 182.184 205.371C182.66 206.254 182.898 207.332 182.898 208.605V210.34H174.449C174.488 211.348 174.789 212.141 175.352 212.719C175.922 213.289 176.711 213.574 177.719 213.574C178.555 213.574 179.32 213.488 180.016 213.316C180.711 213.145 181.426 212.887 182.16 212.543V215.309C181.512 215.629 180.832 215.863 180.121 216.012C179.418 216.16 178.562 216.234 177.555 216.234C176.242 216.234 175.078 215.992 174.062 215.508C173.055 215.023 172.262 214.285 171.684 213.293C171.113 212.301 170.828 211.051 170.828 209.543C170.828 208.012 171.086 206.738 171.602 205.723C172.125 204.699 172.852 203.934 173.781 203.426C174.711 202.91 175.793 202.652 177.027 202.652ZM177.051 205.195C176.355 205.195 175.777 205.418 175.316 205.863C174.863 206.309 174.602 207.008 174.531 207.961H179.547C179.539 207.43 179.441 206.957 179.254 206.543C179.074 206.129 178.801 205.801 178.434 205.559C178.074 205.316 177.613 205.195 177.051 205.195ZM191.207 202.652C192.418 202.652 193.461 202.887 194.336 203.355C195.211 203.816 195.887 204.488 196.363 205.371C196.84 206.254 197.078 207.332 197.078 208.605V210.34H188.629C188.668 211.348 188.969 212.141 189.531 212.719C190.102 213.289 190.891 213.574 191.898 213.574C192.734 213.574 193.5 213.488 194.195 213.316C194.891 213.145 195.605 212.887 196.34 212.543V215.309C195.691 215.629 195.012 215.863 194.301 216.012C193.598 216.16 192.742 216.234 191.734 216.234C190.422 216.234 189.258 215.992 188.242 215.508C187.234 215.023 186.441 214.285 185.863 213.293C185.293 212.301 185.008 211.051 185.008 209.543C185.008 208.012 185.266 206.738 185.781 205.723C186.305 204.699 187.031 203.934 187.961 203.426C188.891 202.91 189.973 202.652 191.207 202.652ZM191.23 205.195C190.535 205.195 189.957 205.418 189.496 205.863C189.043 206.309 188.781 207.008 188.711 207.961H193.727C193.719 207.43 193.621 206.957 193.434 206.543C193.254 206.129 192.98 205.801 192.613 205.559C192.254 205.316 191.793 205.195 191.23 205.195ZM203.559 197.766V205.922C203.559 206.414 203.539 206.906 203.5 207.398C203.461 207.891 203.418 208.383 203.371 208.875H203.418C203.66 208.531 203.906 208.191 204.156 207.855C204.414 207.52 204.688 207.195 204.977 206.883L208.645 202.898H212.676L207.473 208.582L212.992 216H208.867L205.094 210.691L203.559 211.922V216H199.984V197.766H203.559ZM219.016 216.234C217.555 216.234 216.363 215.664 215.441 214.523C214.527 213.375 214.07 211.691 214.07 209.473C214.07 207.23 214.535 205.535 215.465 204.387C216.395 203.23 217.609 202.652 219.109 202.652C219.734 202.652 220.285 202.738 220.762 202.91C221.238 203.082 221.648 203.312 221.992 203.602C222.344 203.891 222.641 204.215 222.883 204.574H223C222.953 204.324 222.895 203.957 222.824 203.473C222.762 202.98 222.73 202.477 222.73 201.961V197.766H226.316V216H223.574L222.883 214.301H222.73C222.504 214.66 222.219 214.988 221.875 215.285C221.539 215.574 221.137 215.805 220.668 215.977C220.199 216.148 219.648 216.234 219.016 216.234ZM220.27 213.387C221.246 213.387 221.934 213.098 222.332 212.52C222.738 211.934 222.953 211.055 222.977 209.883V209.496C222.977 208.223 222.781 207.25 222.391 206.578C222 205.898 221.273 205.559 220.211 205.559C219.422 205.559 218.805 205.898 218.359 206.578C217.914 207.258 217.691 208.238 217.691 209.52C217.691 210.801 217.914 211.766 218.359 212.414C218.812 213.062 219.449 213.387 220.27 213.387ZM235.422 202.629C237.18 202.629 238.527 203.012 239.465 203.777C240.402 204.543 240.871 205.707 240.871 207.27V216H238.375L237.684 214.219H237.59C237.215 214.688 236.832 215.07 236.441 215.367C236.051 215.664 235.602 215.883 235.094 216.023C234.586 216.164 233.969 216.234 233.242 216.234C232.469 216.234 231.773 216.086 231.156 215.789C230.547 215.492 230.066 215.039 229.715 214.43C229.363 213.812 229.188 213.031 229.188 212.086C229.188 210.695 229.676 209.672 230.652 209.016C231.629 208.352 233.094 207.984 235.047 207.914L237.32 207.844V207.27C237.32 206.582 237.141 206.078 236.781 205.758C236.422 205.438 235.922 205.277 235.281 205.277C234.648 205.277 234.027 205.367 233.418 205.547C232.809 205.727 232.199 205.953 231.59 206.227L230.406 203.812C231.102 203.445 231.879 203.156 232.738 202.945C233.605 202.734 234.5 202.629 235.422 202.629ZM237.32 209.93L235.938 209.977C234.781 210.008 233.977 210.215 233.523 210.598C233.078 210.98 232.855 211.484 232.855 212.109C232.855 212.656 233.016 213.047 233.336 213.281C233.656 213.508 234.074 213.621 234.59 213.621C235.355 213.621 236 213.395 236.523 212.941C237.055 212.488 237.32 211.844 237.32 211.008V209.93ZM242.688 202.898H246.602L249.074 210.27C249.152 210.504 249.219 210.742 249.273 210.984C249.328 211.227 249.375 211.477 249.414 211.734C249.453 211.992 249.484 212.262 249.508 212.543H249.578C249.625 212.121 249.688 211.727 249.766 211.359C249.852 210.992 249.957 210.629 250.082 210.27L252.508 202.898H256.34L250.797 217.676C250.461 218.582 250.023 219.336 249.484 219.938C248.945 220.547 248.324 221.004 247.621 221.309C246.926 221.613 246.16 221.766 245.324 221.766C244.918 221.766 244.566 221.742 244.27 221.695C243.973 221.656 243.719 221.613 243.508 221.566V218.73C243.672 218.77 243.879 218.805 244.129 218.836C244.379 218.867 244.641 218.883 244.914 218.883C245.414 218.883 245.844 218.777 246.203 218.566C246.562 218.355 246.863 218.07 247.105 217.711C247.348 217.359 247.539 216.973 247.68 216.551L247.891 215.906L242.688 202.898Z" fill="white"/>
</svg>
