<svg width="900" height="120" viewBox="0 0 900 120" fill="none" xmlns="http://www.w3.org/2000/svg">
<rect width="224.741" height="27.2629" fill="#F9B938"/>
<rect x="224.741" width="224.741" height="27.2629" fill="#6FA04A"/>
<rect x="449.482" width="225.777" height="27.2629" fill="#5890CA"/>
<rect x="675.259" width="224.741" height="27.2629" fill="#AD2215"/>
<path d="M16.3711 58.9644C16.3711 61.7848 15.5664 63.9449 13.957 65.4449C12.3555 66.9449 10.0391 67.6949 7.00781 67.6949H2.15625V50.5621H7.53516C10.332 50.5621 12.5039 51.3004 14.0508 52.7769C15.5977 54.2535 16.3711 56.316 16.3711 58.9644ZM12.5977 59.0582C12.5977 55.3785 10.9727 53.5387 7.72266 53.5387H5.78906V64.6949H7.34766C10.8477 64.6949 12.5977 62.816 12.5977 59.0582ZM25.0664 56.8902C24.3086 56.8902 23.7148 57.1324 23.2852 57.6168C22.8555 58.0934 22.6094 58.773 22.5469 59.6559H27.5625C27.5469 58.773 27.3164 58.0934 26.8711 57.6168C26.4258 57.1324 25.8242 56.8902 25.0664 56.8902ZM25.5703 67.9293C23.4609 67.9293 21.8125 67.3473 20.625 66.1832C19.4375 65.0191 18.8438 63.3707 18.8438 61.2379C18.8438 59.0426 19.3906 57.3473 20.4844 56.1519C21.5859 54.9488 23.1055 54.3473 25.043 54.3473C26.8945 54.3473 28.3359 54.8746 29.3672 55.9293C30.3984 56.984 30.9141 58.441 30.9141 60.3004V62.0348H22.4648C22.5039 63.0504 22.8047 63.8434 23.3672 64.4137C23.9297 64.984 24.7188 65.2691 25.7344 65.2691C26.5234 65.2691 27.2695 65.1871 27.9727 65.023C28.6758 64.859 29.4102 64.5973 30.1758 64.2379V67.0035C29.5508 67.316 28.8828 67.5465 28.1719 67.6949C27.4609 67.8512 26.5938 67.9293 25.5703 67.9293ZM45.5508 67.6949H41.9766V60.0426C41.9766 59.0973 41.8164 58.3902 41.4961 57.9215C41.1836 57.4449 40.6875 57.2066 40.0078 57.2066C39.0938 57.2066 38.4297 57.5426 38.0156 58.2144C37.6016 58.8863 37.3945 59.9918 37.3945 61.5309V67.6949H33.8203V54.5934H36.5508L37.0312 56.2691H37.2305C37.582 55.6676 38.0898 55.1988 38.7539 54.8629C39.418 54.5191 40.1797 54.3473 41.0391 54.3473C43 54.3473 44.3281 54.9879 45.0234 56.2691H45.3398C45.6914 55.6598 46.207 55.1871 46.8867 54.8512C47.5742 54.5152 48.3477 54.3473 49.207 54.3473C50.6914 54.3473 51.8125 54.7301 52.5703 55.4957C53.3359 56.2535 53.7188 57.4723 53.7188 59.1519V67.6949H50.1328V60.0426C50.1328 59.0973 49.9727 58.3902 49.6523 57.9215C49.3398 57.4449 48.8438 57.2066 48.1641 57.2066C47.2891 57.2066 46.6328 57.5191 46.1953 58.1441C45.7656 58.7691 45.5508 59.7613 45.5508 61.1207V67.6949ZM65.7188 67.6949L65.0273 65.9137H64.9336C64.332 66.6715 63.7109 67.1988 63.0703 67.4957C62.4375 67.7848 61.6094 67.9293 60.5859 67.9293C59.3281 67.9293 58.3359 67.5699 57.6094 66.8512C56.8906 66.1324 56.5312 65.109 56.5312 63.7809C56.5312 62.3902 57.0156 61.3668 57.9844 60.7105C58.9609 60.0465 60.4297 59.6793 62.3906 59.609L64.6641 59.5387V58.9644C64.6641 57.6363 63.9844 56.9723 62.625 56.9723C61.5781 56.9723 60.3477 57.2887 58.9336 57.9215L57.75 55.5074C59.2578 54.7184 60.9297 54.3238 62.7656 54.3238C64.5234 54.3238 65.8711 54.7066 66.8086 55.4723C67.7461 56.2379 68.2148 57.4019 68.2148 58.9644V67.6949H65.7188ZM64.6641 61.6246L63.2812 61.6715C62.2422 61.7027 61.4688 61.8902 60.9609 62.234C60.4531 62.5777 60.1992 63.1012 60.1992 63.8043C60.1992 64.8121 60.7773 65.316 61.9336 65.316C62.7617 65.316 63.4219 65.0777 63.9141 64.6012C64.4141 64.1246 64.6641 63.4918 64.6641 62.7027V61.6246ZM84 67.6949H80.4258V60.0426C80.4258 59.0973 80.2578 58.3902 79.9219 57.9215C79.5859 57.4449 79.0508 57.2066 78.3164 57.2066C77.3164 57.2066 76.5938 57.5426 76.1484 58.2144C75.7031 58.8785 75.4805 59.984 75.4805 61.5309V67.6949H71.9062V54.5934H74.6367L75.1172 56.2691H75.3164C75.7148 55.6363 76.2617 55.1598 76.957 54.8394C77.6602 54.5113 78.457 54.3473 79.3477 54.3473C80.8711 54.3473 82.0273 54.7613 82.8164 55.5894C83.6055 56.4098 84 57.5973 84 59.1519V67.6949ZM91.8281 67.9293C90.2891 67.9293 89.0781 67.3316 88.1953 66.1363C87.3203 64.941 86.8828 63.2848 86.8828 61.1676C86.8828 59.0191 87.3281 57.3473 88.2188 56.1519C89.1172 54.9488 90.3516 54.3473 91.9219 54.3473C93.5703 54.3473 94.8281 54.9879 95.6953 56.2691H95.8125C95.6328 55.2926 95.543 54.4215 95.543 53.6559V49.4605H99.1289V67.6949H96.3867L95.6953 65.9957H95.543C94.7305 67.2848 93.4922 67.9293 91.8281 67.9293ZM93.082 65.0816C93.9961 65.0816 94.6641 64.816 95.0859 64.2848C95.5156 63.7535 95.75 62.8512 95.7891 61.5777V61.191C95.7891 59.7848 95.5703 58.7769 95.1328 58.1676C94.7031 57.5582 94 57.2535 93.0234 57.2535C92.2266 57.2535 91.6055 57.5934 91.1602 58.273C90.7227 58.9449 90.5039 59.9254 90.5039 61.2144C90.5039 62.5035 90.7266 63.4723 91.1719 64.1207C91.6172 64.7613 92.2539 65.0816 93.082 65.0816ZM114.422 67.9293C110.344 67.9293 108.305 65.691 108.305 61.2144C108.305 58.9879 108.859 57.2887 109.969 56.1168C111.078 54.9371 112.668 54.3473 114.738 54.3473C116.254 54.3473 117.613 54.6441 118.816 55.2379L117.762 58.0035C117.199 57.7769 116.676 57.5934 116.191 57.4527C115.707 57.3043 115.223 57.2301 114.738 57.2301C112.879 57.2301 111.949 58.5504 111.949 61.191C111.949 63.7535 112.879 65.0348 114.738 65.0348C115.426 65.0348 116.062 64.9449 116.648 64.7652C117.234 64.5777 117.82 64.2887 118.406 63.898V66.9566C117.828 67.3238 117.242 67.5777 116.648 67.7184C116.062 67.859 115.32 67.9293 114.422 67.9293ZM133.547 67.6949H129.973V60.0426C129.973 58.1519 129.27 57.2066 127.863 57.2066C126.863 57.2066 126.141 57.5465 125.695 58.2262C125.25 58.9059 125.027 60.0074 125.027 61.5309V67.6949H121.453V49.4605H125.027V53.1754C125.027 53.4644 125 54.1441 124.945 55.2144L124.863 56.2691H125.051C125.848 54.9879 127.113 54.3473 128.848 54.3473C130.387 54.3473 131.555 54.7613 132.352 55.5894C133.148 56.4176 133.547 57.6051 133.547 59.1519V67.6949ZM145.547 67.6949L144.855 65.9137H144.762C144.16 66.6715 143.539 67.1988 142.898 67.4957C142.266 67.7848 141.438 67.9293 140.414 67.9293C139.156 67.9293 138.164 67.5699 137.438 66.8512C136.719 66.1324 136.359 65.109 136.359 63.7809C136.359 62.3902 136.844 61.3668 137.812 60.7105C138.789 60.0465 140.258 59.6793 142.219 59.609L144.492 59.5387V58.9644C144.492 57.6363 143.812 56.9723 142.453 56.9723C141.406 56.9723 140.176 57.2887 138.762 57.9215L137.578 55.5074C139.086 54.7184 140.758 54.3238 142.594 54.3238C144.352 54.3238 145.699 54.7066 146.637 55.4723C147.574 56.2379 148.043 57.4019 148.043 58.9644V67.6949H145.547ZM144.492 61.6246L143.109 61.6715C142.07 61.7027 141.297 61.8902 140.789 62.234C140.281 62.5777 140.027 63.1012 140.027 63.8043C140.027 64.8121 140.605 65.316 141.762 65.316C142.59 65.316 143.25 65.0777 143.742 64.6012C144.242 64.1246 144.492 63.4918 144.492 62.7027V61.6246ZM159.047 54.3473C159.531 54.3473 159.934 54.3824 160.254 54.4527L159.984 57.8043C159.695 57.7262 159.344 57.6871 158.93 57.6871C157.789 57.6871 156.898 57.9801 156.258 58.566C155.625 59.1519 155.309 59.9723 155.309 61.0269V67.6949H151.734V54.5934H154.441L154.969 56.7965H155.145C155.551 56.0621 156.098 55.4723 156.785 55.0269C157.48 54.5738 158.234 54.3473 159.047 54.3473ZM174.035 54.5934V56.4098L171.984 56.9371C172.359 57.523 172.547 58.1793 172.547 58.9059C172.547 60.3121 172.055 61.4098 171.07 62.1988C170.094 62.9801 168.734 63.3707 166.992 63.3707L166.348 63.3355L165.82 63.2769C165.453 63.5582 165.27 63.8707 165.27 64.2144C165.27 64.7301 165.926 64.9879 167.238 64.9879H169.465C170.902 64.9879 171.996 65.2965 172.746 65.9137C173.504 66.5309 173.883 67.4371 173.883 68.6324C173.883 70.1637 173.242 71.3512 171.961 72.1949C170.688 73.0387 168.855 73.4605 166.465 73.4605C164.637 73.4605 163.238 73.1402 162.27 72.4996C161.309 71.8668 160.828 70.9762 160.828 69.8277C160.828 69.0387 161.074 68.3785 161.566 67.8473C162.059 67.316 162.781 66.9371 163.734 66.7105C163.367 66.5543 163.047 66.3004 162.773 65.9488C162.5 65.5894 162.363 65.2105 162.363 64.8121C162.363 64.3121 162.508 63.898 162.797 63.5699C163.086 63.234 163.504 62.9059 164.051 62.5855C163.363 62.2887 162.816 61.8121 162.41 61.1559C162.012 60.4996 161.812 59.7262 161.812 58.8355C161.812 57.4059 162.277 56.3004 163.207 55.5191C164.137 54.7379 165.465 54.3473 167.191 54.3473C167.559 54.3473 167.992 54.3824 168.492 54.4527C169 54.5152 169.324 54.5621 169.465 54.5934H174.035ZM163.922 69.5465C163.922 70.0387 164.156 70.4254 164.625 70.7066C165.102 70.9879 165.766 71.1285 166.617 71.1285C167.898 71.1285 168.902 70.9527 169.629 70.6012C170.355 70.2496 170.719 69.7691 170.719 69.1598C170.719 68.6676 170.504 68.3277 170.074 68.1402C169.645 67.9527 168.98 67.859 168.082 67.859H166.23C165.574 67.859 165.023 68.0113 164.578 68.316C164.141 68.6285 163.922 69.0387 163.922 69.5465ZM165.223 58.8824C165.223 59.5934 165.383 60.1559 165.703 60.5699C166.031 60.984 166.527 61.191 167.191 61.191C167.863 61.191 168.355 60.984 168.668 60.5699C168.98 60.1559 169.137 59.5934 169.137 58.8824C169.137 57.3043 168.488 56.5152 167.191 56.5152C165.879 56.5152 165.223 57.3043 165.223 58.8824ZM181.629 56.8902C180.871 56.8902 180.277 57.1324 179.848 57.6168C179.418 58.0934 179.172 58.773 179.109 59.6559H184.125C184.109 58.773 183.879 58.0934 183.434 57.6168C182.988 57.1324 182.387 56.8902 181.629 56.8902ZM182.133 67.9293C180.023 67.9293 178.375 67.3473 177.188 66.1832C176 65.0191 175.406 63.3707 175.406 61.2379C175.406 59.0426 175.953 57.3473 177.047 56.1519C178.148 54.9488 179.668 54.3473 181.605 54.3473C183.457 54.3473 184.898 54.8746 185.93 55.9293C186.961 56.984 187.477 58.441 187.477 60.3004V62.0348H179.027C179.066 63.0504 179.367 63.8434 179.93 64.4137C180.492 64.984 181.281 65.2691 182.297 65.2691C183.086 65.2691 183.832 65.1871 184.535 65.023C185.238 64.859 185.973 64.5973 186.738 64.2379V67.0035C186.113 67.316 185.445 67.5465 184.734 67.6949C184.023 67.8512 183.156 67.9293 182.133 67.9293ZM9.07031 100.929C7.53125 100.929 6.32422 100.371 5.44922 99.2535H5.26172C5.38672 100.347 5.44922 100.98 5.44922 101.152V106.461H1.875V87.5934H4.78125L5.28516 89.2926H5.44922C6.28516 87.9957 7.52344 87.3473 9.16406 87.3473C10.7109 87.3473 11.9219 87.9449 12.7969 89.1402C13.6719 90.3355 14.1094 91.9957 14.1094 94.1207C14.1094 95.5191 13.9023 96.734 13.4883 97.7652C13.082 98.7965 12.5 99.5816 11.7422 100.121C10.9844 100.66 10.0938 100.929 9.07031 100.929ZM8.01562 90.2066C7.13281 90.2066 6.48828 90.4801 6.08203 91.0269C5.67578 91.566 5.46484 92.4605 5.44922 93.7105V94.0973C5.44922 95.5035 5.65625 96.5113 6.07031 97.1207C6.49219 97.7301 7.15625 98.0348 8.0625 98.0348C9.66406 98.0348 10.4648 96.7144 10.4648 94.0738C10.4648 92.7848 10.2656 91.8199 9.86719 91.1793C9.47656 90.5309 8.85938 90.2066 8.01562 90.2066ZM19.9102 94.1207C19.9102 95.4176 20.1211 96.398 20.543 97.0621C20.9727 97.7262 21.668 98.0582 22.6289 98.0582C23.582 98.0582 24.2656 97.7301 24.6797 97.0738C25.1016 96.4098 25.3125 95.4254 25.3125 94.1207C25.3125 92.8238 25.1016 91.8512 24.6797 91.2027C24.2578 90.5543 23.5664 90.2301 22.6055 90.2301C21.6523 90.2301 20.9648 90.5543 20.543 91.2027C20.1211 91.8434 19.9102 92.816 19.9102 94.1207ZM28.9688 94.1207C28.9688 96.2535 28.4062 97.9215 27.2812 99.1246C26.1562 100.328 24.5898 100.929 22.582 100.929C21.3242 100.929 20.2148 100.656 19.2539 100.109C18.293 99.5543 17.5547 98.7613 17.0391 97.7301C16.5234 96.6988 16.2656 95.4957 16.2656 94.1207C16.2656 91.9801 16.8242 90.316 17.9414 89.1285C19.0586 87.941 20.6289 87.3473 22.6523 87.3473C23.9102 87.3473 25.0195 87.6207 25.9805 88.1676C26.9414 88.7144 27.6797 89.4996 28.1953 90.523C28.7109 91.5465 28.9688 92.7457 28.9688 94.1207ZM39.2344 87.3473C39.7188 87.3473 40.1211 87.3824 40.4414 87.4527L40.1719 90.8043C39.8828 90.7262 39.5312 90.6871 39.1172 90.6871C37.9766 90.6871 37.0859 90.9801 36.4453 91.566C35.8125 92.1519 35.4961 92.9723 35.4961 94.0269V100.695H31.9219V87.5934H34.6289L35.1562 89.7965H35.332C35.7383 89.0621 36.2852 88.4723 36.9727 88.0269C37.668 87.5738 38.4219 87.3473 39.2344 87.3473ZM48.3398 98.0816C48.9648 98.0816 49.7148 97.9449 50.5898 97.6715V100.332C49.6992 100.73 48.6055 100.929 47.3086 100.929C45.8789 100.929 44.8359 100.57 44.1797 99.8512C43.5312 99.1246 43.207 98.0387 43.207 96.5934V90.2769H41.4961V88.7652L43.4648 87.5699L44.4961 84.8043H46.7812V87.5934H50.4492V90.2769H46.7812V96.5934C46.7812 97.1012 46.9219 97.4762 47.2031 97.7184C47.4922 97.9605 47.8711 98.0816 48.3398 98.0816ZM53.0977 84.2066C53.0977 83.0426 53.7461 82.4605 55.043 82.4605C56.3398 82.4605 56.9883 83.0426 56.9883 84.2066C56.9883 84.7613 56.8242 85.1949 56.4961 85.5074C56.1758 85.8121 55.6914 85.9644 55.043 85.9644C53.7461 85.9644 53.0977 85.3785 53.0977 84.2066ZM56.8242 100.695H53.25V87.5934H56.8242V100.695ZM63.4336 94.1207C63.4336 95.4176 63.6445 96.398 64.0664 97.0621C64.4961 97.7262 65.1914 98.0582 66.1523 98.0582C67.1055 98.0582 67.7891 97.7301 68.2031 97.0738C68.625 96.4098 68.8359 95.4254 68.8359 94.1207C68.8359 92.8238 68.625 91.8512 68.2031 91.2027C67.7812 90.5543 67.0898 90.2301 66.1289 90.2301C65.1758 90.2301 64.4883 90.5543 64.0664 91.2027C63.6445 91.8434 63.4336 92.816 63.4336 94.1207ZM72.4922 94.1207C72.4922 96.2535 71.9297 97.9215 70.8047 99.1246C69.6797 100.328 68.1133 100.929 66.1055 100.929C64.8477 100.929 63.7383 100.656 62.7773 100.109C61.8164 99.5543 61.0781 98.7613 60.5625 97.7301C60.0469 96.6988 59.7891 95.4957 59.7891 94.1207C59.7891 91.9801 60.3477 90.316 61.4648 89.1285C62.582 87.941 64.1523 87.3473 66.1758 87.3473C67.4336 87.3473 68.543 87.6207 69.5039 88.1676C70.4648 88.7144 71.2031 89.4996 71.7188 90.523C72.2344 91.5465 72.4922 92.7457 72.4922 94.1207ZM87.5391 100.695H83.9648V93.0426C83.9648 92.0973 83.7969 91.3902 83.4609 90.9215C83.125 90.4449 82.5898 90.2066 81.8555 90.2066C80.8555 90.2066 80.1328 90.5426 79.6875 91.2144C79.2422 91.8785 79.0195 92.984 79.0195 94.5309V100.695H75.4453V87.5934H78.1758L78.6562 89.2691H78.8555C79.2539 88.6363 79.8008 88.1598 80.4961 87.8394C81.1992 87.5113 81.9961 87.3473 82.8867 87.3473C84.4102 87.3473 85.5664 87.7613 86.3555 88.5894C87.1445 89.4098 87.5391 90.5973 87.5391 92.1519V100.695Z" fill="white"/>
<path d="M242.355 67.6949H237.738L230.285 54.734H230.18C230.328 57.023 230.402 58.6559 230.402 59.6324V67.6949H227.156V50.5621H231.738L239.18 63.3941H239.262C239.145 61.1676 239.086 59.5934 239.086 58.6715V50.5621H242.355V67.6949ZM249.246 61.1207C249.246 62.4176 249.457 63.398 249.879 64.0621C250.309 64.7262 251.004 65.0582 251.965 65.0582C252.918 65.0582 253.602 64.7301 254.016 64.0738C254.438 63.4098 254.648 62.4254 254.648 61.1207C254.648 59.8238 254.438 58.8512 254.016 58.2027C253.594 57.5543 252.902 57.2301 251.941 57.2301C250.988 57.2301 250.301 57.5543 249.879 58.2027C249.457 58.8434 249.246 59.816 249.246 61.1207ZM258.305 61.1207C258.305 63.2535 257.742 64.9215 256.617 66.1246C255.492 67.3277 253.926 67.9293 251.918 67.9293C250.66 67.9293 249.551 67.6559 248.59 67.109C247.629 66.5543 246.891 65.7613 246.375 64.7301C245.859 63.6988 245.602 62.4957 245.602 61.1207C245.602 58.9801 246.16 57.316 247.277 56.1285C248.395 54.941 249.965 54.3473 251.988 54.3473C253.246 54.3473 254.355 54.6207 255.316 55.1676C256.277 55.7144 257.016 56.4996 257.531 57.523C258.047 58.5465 258.305 59.7457 258.305 61.1207ZM271.641 67.9293C270.102 67.9293 268.891 67.3316 268.008 66.1363C267.133 64.941 266.695 63.2848 266.695 61.1676C266.695 59.0191 267.141 57.3473 268.031 56.1519C268.93 54.9488 270.164 54.3473 271.734 54.3473C273.383 54.3473 274.641 54.9879 275.508 56.2691H275.625C275.445 55.2926 275.355 54.4215 275.355 53.6559V49.4605H278.941V67.6949H276.199L275.508 65.9957H275.355C274.543 67.2848 273.305 67.9293 271.641 67.9293ZM272.895 65.0816C273.809 65.0816 274.477 64.816 274.898 64.2848C275.328 63.7535 275.562 62.8512 275.602 61.5777V61.191C275.602 59.7848 275.383 58.7769 274.945 58.1676C274.516 57.5582 273.812 57.2535 272.836 57.2535C272.039 57.2535 271.418 57.5934 270.973 58.273C270.535 58.9449 270.316 59.9254 270.316 61.2144C270.316 62.5035 270.539 63.4723 270.984 64.1207C271.43 64.7613 272.066 65.0816 272.895 65.0816ZM282.527 51.2066C282.527 50.0426 283.176 49.4605 284.473 49.4605C285.77 49.4605 286.418 50.0426 286.418 51.2066C286.418 51.7613 286.254 52.1949 285.926 52.5074C285.605 52.8121 285.121 52.9644 284.473 52.9644C283.176 52.9644 282.527 52.3785 282.527 51.2066ZM286.254 67.6949H282.68V54.5934H286.254V67.6949ZM295.441 56.8902C294.684 56.8902 294.09 57.1324 293.66 57.6168C293.23 58.0934 292.984 58.773 292.922 59.6559H297.938C297.922 58.773 297.691 58.0934 297.246 57.6168C296.801 57.1324 296.199 56.8902 295.441 56.8902ZM295.945 67.9293C293.836 67.9293 292.188 67.3473 291 66.1832C289.812 65.0191 289.219 63.3707 289.219 61.2379C289.219 59.0426 289.766 57.3473 290.859 56.1519C291.961 54.9488 293.48 54.3473 295.418 54.3473C297.27 54.3473 298.711 54.8746 299.742 55.9293C300.773 56.984 301.289 58.441 301.289 60.3004V62.0348H292.84C292.879 63.0504 293.18 63.8434 293.742 64.4137C294.305 64.984 295.094 65.2691 296.109 65.2691C296.898 65.2691 297.645 65.1871 298.348 65.023C299.051 64.859 299.785 64.5973 300.551 64.2379V67.0035C299.926 67.316 299.258 67.5465 298.547 67.6949C297.836 67.8512 296.969 67.9293 295.945 67.9293ZM313.336 63.8043C313.336 65.148 312.867 66.1715 311.93 66.8746C311 67.5777 309.605 67.9293 307.746 67.9293C306.793 67.9293 305.98 67.8629 305.309 67.7301C304.637 67.6051 304.008 67.4176 303.422 67.1676V64.2144C304.086 64.5269 304.832 64.7887 305.66 64.9996C306.496 65.2105 307.23 65.316 307.863 65.316C309.16 65.316 309.809 64.941 309.809 64.191C309.809 63.9098 309.723 63.6832 309.551 63.5113C309.379 63.3316 309.082 63.1324 308.66 62.9137C308.238 62.6871 307.676 62.4254 306.973 62.1285C305.965 61.7066 305.223 61.316 304.746 60.9566C304.277 60.5973 303.934 60.1871 303.715 59.7262C303.504 59.2574 303.398 58.6832 303.398 58.0035C303.398 56.8394 303.848 55.941 304.746 55.3082C305.652 54.6676 306.934 54.3473 308.59 54.3473C310.168 54.3473 311.703 54.691 313.195 55.3785L312.117 57.9566C311.461 57.6754 310.848 57.4449 310.277 57.2652C309.707 57.0855 309.125 56.9957 308.531 56.9957C307.477 56.9957 306.949 57.2809 306.949 57.8512C306.949 58.1715 307.117 58.4488 307.453 58.6832C307.797 58.9176 308.543 59.2652 309.691 59.7262C310.715 60.1402 311.465 60.5269 311.941 60.8863C312.418 61.2457 312.77 61.6598 312.996 62.1285C313.223 62.5973 313.336 63.1559 313.336 63.8043ZM321.551 56.8902C320.793 56.8902 320.199 57.1324 319.77 57.6168C319.34 58.0934 319.094 58.773 319.031 59.6559H324.047C324.031 58.773 323.801 58.0934 323.355 57.6168C322.91 57.1324 322.309 56.8902 321.551 56.8902ZM322.055 67.9293C319.945 67.9293 318.297 67.3473 317.109 66.1832C315.922 65.0191 315.328 63.3707 315.328 61.2379C315.328 59.0426 315.875 57.3473 316.969 56.1519C318.07 54.9488 319.59 54.3473 321.527 54.3473C323.379 54.3473 324.82 54.8746 325.852 55.9293C326.883 56.984 327.398 58.441 327.398 60.3004V62.0348H318.949C318.988 63.0504 319.289 63.8434 319.852 64.4137C320.414 64.984 321.203 65.2691 322.219 65.2691C323.008 65.2691 323.754 65.1871 324.457 65.023C325.16 64.859 325.895 64.5973 326.66 64.2379V67.0035C326.035 67.316 325.367 67.5465 324.656 67.6949C323.945 67.8512 323.078 67.9293 322.055 67.9293ZM333.879 67.6949H330.305V49.4605H333.879V67.6949ZM238.969 100.695H235.395V93.0426C235.395 91.1519 234.691 90.2066 233.285 90.2066C232.285 90.2066 231.562 90.5465 231.117 91.2262C230.672 91.9059 230.449 93.0074 230.449 94.5309V100.695H226.875V82.4605H230.449V86.1754C230.449 86.4644 230.422 87.1441 230.367 88.2144L230.285 89.2691H230.473C231.27 87.9879 232.535 87.3473 234.27 87.3473C235.809 87.3473 236.977 87.7613 237.773 88.5894C238.57 89.4176 238.969 90.6051 238.969 92.1519V100.695ZM248.074 89.8902C247.316 89.8902 246.723 90.1324 246.293 90.6168C245.863 91.0934 245.617 91.773 245.555 92.6559H250.57C250.555 91.773 250.324 91.0934 249.879 90.6168C249.434 90.1324 248.832 89.8902 248.074 89.8902ZM248.578 100.929C246.469 100.929 244.82 100.347 243.633 99.1832C242.445 98.0191 241.852 96.3707 241.852 94.2379C241.852 92.0426 242.398 90.3473 243.492 89.1519C244.594 87.9488 246.113 87.3473 248.051 87.3473C249.902 87.3473 251.344 87.8746 252.375 88.9293C253.406 89.984 253.922 91.441 253.922 93.3004V95.0348H245.473C245.512 96.0504 245.812 96.8434 246.375 97.4137C246.938 97.984 247.727 98.2691 248.742 98.2691C249.531 98.2691 250.277 98.1871 250.98 98.023C251.684 97.859 252.418 97.5973 253.184 97.2379V100.004C252.559 100.316 251.891 100.546 251.18 100.695C250.469 100.851 249.602 100.929 248.578 100.929ZM265.148 100.695L264.457 98.9137H264.363C263.762 99.6715 263.141 100.199 262.5 100.496C261.867 100.785 261.039 100.929 260.016 100.929C258.758 100.929 257.766 100.57 257.039 99.8512C256.32 99.1324 255.961 98.109 255.961 96.7809C255.961 95.3902 256.445 94.3668 257.414 93.7105C258.391 93.0465 259.859 92.6793 261.82 92.609L264.094 92.5387V91.9644C264.094 90.6363 263.414 89.9723 262.055 89.9723C261.008 89.9723 259.777 90.2887 258.363 90.9215L257.18 88.5074C258.688 87.7184 260.359 87.3238 262.195 87.3238C263.953 87.3238 265.301 87.7066 266.238 88.4723C267.176 89.2379 267.645 90.4019 267.645 91.9644V100.695H265.148ZM264.094 94.6246L262.711 94.6715C261.672 94.7027 260.898 94.8902 260.391 95.234C259.883 95.5777 259.629 96.1012 259.629 96.8043C259.629 97.8121 260.207 98.316 261.363 98.316C262.191 98.316 262.852 98.0777 263.344 97.6012C263.844 97.1246 264.094 96.4918 264.094 95.7027V94.6246ZM276.855 98.0816C277.48 98.0816 278.23 97.9449 279.105 97.6715V100.332C278.215 100.73 277.121 100.929 275.824 100.929C274.395 100.929 273.352 100.57 272.695 99.8512C272.047 99.1246 271.723 98.0387 271.723 96.5934V90.2769H270.012V88.7652L271.98 87.5699L273.012 84.8043H275.297V87.5934H278.965V90.2769H275.297V96.5934C275.297 97.1012 275.438 97.4762 275.719 97.7184C276.008 97.9605 276.387 98.0816 276.855 98.0816ZM287.191 89.8902C286.434 89.8902 285.84 90.1324 285.41 90.6168C284.98 91.0934 284.734 91.773 284.672 92.6559H289.688C289.672 91.773 289.441 91.0934 288.996 90.6168C288.551 90.1324 287.949 89.8902 287.191 89.8902ZM287.695 100.929C285.586 100.929 283.938 100.347 282.75 99.1832C281.562 98.0191 280.969 96.3707 280.969 94.2379C280.969 92.0426 281.516 90.3473 282.609 89.1519C283.711 87.9488 285.23 87.3473 287.168 87.3473C289.02 87.3473 290.461 87.8746 291.492 88.9293C292.523 89.984 293.039 91.441 293.039 93.3004V95.0348H284.59C284.629 96.0504 284.93 96.8434 285.492 97.4137C286.055 97.984 286.844 98.2691 287.859 98.2691C288.648 98.2691 289.395 98.1871 290.098 98.023C290.801 97.859 291.535 97.5973 292.301 97.2379V100.004C291.676 100.316 291.008 100.546 290.297 100.695C289.586 100.851 288.719 100.929 287.695 100.929ZM303.258 87.3473C303.742 87.3473 304.145 87.3824 304.465 87.4527L304.195 90.8043C303.906 90.7262 303.555 90.6871 303.141 90.6871C302 90.6871 301.109 90.9801 300.469 91.566C299.836 92.1519 299.52 92.9723 299.52 94.0269V100.695H295.945V87.5934H298.652L299.18 89.7965H299.355C299.762 89.0621 300.309 88.4723 300.996 88.0269C301.691 87.5738 302.445 87.3473 303.258 87.3473Z" fill="white"/>
<path d="M467.844 67.6949H463.707L461.387 58.6949C461.301 58.3746 461.152 57.7144 460.941 56.7144C460.738 55.7066 460.621 55.0309 460.59 54.6871C460.543 55.109 460.426 55.7887 460.238 56.7262C460.051 57.6559 459.906 58.3199 459.805 58.7184L457.496 67.6949H453.371L449 50.5621H452.574L454.766 59.9137C455.148 61.6402 455.426 63.1363 455.598 64.4019C455.645 63.9566 455.75 63.2691 455.914 62.3394C456.086 61.4019 456.246 60.6754 456.395 60.1598L458.891 50.5621H462.324L464.82 60.1598C464.93 60.5894 465.066 61.2457 465.23 62.1285C465.395 63.0113 465.52 63.7691 465.605 64.4019C465.684 63.7926 465.809 63.0348 465.98 62.1285C466.152 61.2144 466.309 60.4762 466.449 59.9137L468.629 50.5621H472.203L467.844 67.6949ZM473.926 51.2066C473.926 50.0426 474.574 49.4605 475.871 49.4605C477.168 49.4605 477.816 50.0426 477.816 51.2066C477.816 51.7613 477.652 52.1949 477.324 52.5074C477.004 52.8121 476.52 52.9644 475.871 52.9644C474.574 52.9644 473.926 52.3785 473.926 51.2066ZM477.652 67.6949H474.078V54.5934H477.652V67.6949ZM486.934 65.0816C487.559 65.0816 488.309 64.9449 489.184 64.6715V67.3316C488.293 67.7301 487.199 67.9293 485.902 67.9293C484.473 67.9293 483.43 67.5699 482.773 66.8512C482.125 66.1246 481.801 65.0387 481.801 63.5934V57.2769H480.09V55.7652L482.059 54.5699L483.09 51.8043H485.375V54.5934H489.043V57.2769H485.375V63.5934C485.375 64.1012 485.516 64.4762 485.797 64.7184C486.086 64.9605 486.465 65.0816 486.934 65.0816ZM503.938 67.6949H500.363V60.0426C500.363 58.1519 499.66 57.2066 498.254 57.2066C497.254 57.2066 496.531 57.5465 496.086 58.2262C495.641 58.9059 495.418 60.0074 495.418 61.5309V67.6949H491.844V49.4605H495.418V53.1754C495.418 53.4644 495.391 54.1441 495.336 55.2144L495.254 56.2691H495.441C496.238 54.9879 497.504 54.3473 499.238 54.3473C500.777 54.3473 501.945 54.7613 502.742 55.5894C503.539 56.4176 503.938 57.6051 503.938 59.1519V67.6949ZM518 67.9293C516.461 67.9293 515.25 67.3316 514.367 66.1363C513.492 64.941 513.055 63.2848 513.055 61.1676C513.055 59.0191 513.5 57.3473 514.391 56.1519C515.289 54.9488 516.523 54.3473 518.094 54.3473C519.742 54.3473 521 54.9879 521.867 56.2691H521.984C521.805 55.2926 521.715 54.4215 521.715 53.6559V49.4605H525.301V67.6949H522.559L521.867 65.9957H521.715C520.902 67.2848 519.664 67.9293 518 67.9293ZM519.254 65.0816C520.168 65.0816 520.836 64.816 521.258 64.2848C521.688 63.7535 521.922 62.8512 521.961 61.5777V61.191C521.961 59.7848 521.742 58.7769 521.305 58.1676C520.875 57.5582 520.172 57.2535 519.195 57.2535C518.398 57.2535 517.777 57.5934 517.332 58.273C516.895 58.9449 516.676 59.9254 516.676 61.2144C516.676 62.5035 516.898 63.4723 517.344 64.1207C517.789 64.7613 518.426 65.0816 519.254 65.0816ZM528.887 51.2066C528.887 50.0426 529.535 49.4605 530.832 49.4605C532.129 49.4605 532.777 50.0426 532.777 51.2066C532.777 51.7613 532.613 52.1949 532.285 52.5074C531.965 52.8121 531.48 52.9644 530.832 52.9644C529.535 52.9644 528.887 52.3785 528.887 51.2066ZM532.613 67.6949H529.039V54.5934H532.613V67.6949ZM541.801 56.8902C541.043 56.8902 540.449 57.1324 540.02 57.6168C539.59 58.0934 539.344 58.773 539.281 59.6559H544.297C544.281 58.773 544.051 58.0934 543.605 57.6168C543.16 57.1324 542.559 56.8902 541.801 56.8902ZM542.305 67.9293C540.195 67.9293 538.547 67.3473 537.359 66.1832C536.172 65.0191 535.578 63.3707 535.578 61.2379C535.578 59.0426 536.125 57.3473 537.219 56.1519C538.32 54.9488 539.84 54.3473 541.777 54.3473C543.629 54.3473 545.07 54.8746 546.102 55.9293C547.133 56.984 547.648 58.441 547.648 60.3004V62.0348H539.199C539.238 63.0504 539.539 63.8434 540.102 64.4137C540.664 64.984 541.453 65.2691 542.469 65.2691C543.258 65.2691 544.004 65.1871 544.707 65.023C545.41 64.859 546.145 64.5973 546.91 64.2379V67.0035C546.285 67.316 545.617 67.5465 544.906 67.6949C544.195 67.8512 543.328 67.9293 542.305 67.9293ZM559.695 63.8043C559.695 65.148 559.227 66.1715 558.289 66.8746C557.359 67.5777 555.965 67.9293 554.105 67.9293C553.152 67.9293 552.34 67.8629 551.668 67.7301C550.996 67.6051 550.367 67.4176 549.781 67.1676V64.2144C550.445 64.5269 551.191 64.7887 552.02 64.9996C552.855 65.2105 553.59 65.316 554.223 65.316C555.52 65.316 556.168 64.941 556.168 64.191C556.168 63.9098 556.082 63.6832 555.91 63.5113C555.738 63.3316 555.441 63.1324 555.02 62.9137C554.598 62.6871 554.035 62.4254 553.332 62.1285C552.324 61.7066 551.582 61.316 551.105 60.9566C550.637 60.5973 550.293 60.1871 550.074 59.7262C549.863 59.2574 549.758 58.6832 549.758 58.0035C549.758 56.8394 550.207 55.941 551.105 55.3082C552.012 54.6676 553.293 54.3473 554.949 54.3473C556.527 54.3473 558.062 54.691 559.555 55.3785L558.477 57.9566C557.82 57.6754 557.207 57.4449 556.637 57.2652C556.066 57.0855 555.484 56.9957 554.891 56.9957C553.836 56.9957 553.309 57.2809 553.309 57.8512C553.309 58.1715 553.477 58.4488 553.812 58.6832C554.156 58.9176 554.902 59.2652 556.051 59.7262C557.074 60.1402 557.824 60.5269 558.301 60.8863C558.777 61.2457 559.129 61.6598 559.355 62.1285C559.582 62.5973 559.695 63.1559 559.695 63.8043ZM567.91 56.8902C567.152 56.8902 566.559 57.1324 566.129 57.6168C565.699 58.0934 565.453 58.773 565.391 59.6559H570.406C570.391 58.773 570.16 58.0934 569.715 57.6168C569.27 57.1324 568.668 56.8902 567.91 56.8902ZM568.414 67.9293C566.305 67.9293 564.656 67.3473 563.469 66.1832C562.281 65.0191 561.688 63.3707 561.688 61.2379C561.688 59.0426 562.234 57.3473 563.328 56.1519C564.43 54.9488 565.949 54.3473 567.887 54.3473C569.738 54.3473 571.18 54.8746 572.211 55.9293C573.242 56.984 573.758 58.441 573.758 60.3004V62.0348H565.309C565.348 63.0504 565.648 63.8434 566.211 64.4137C566.773 64.984 567.562 65.2691 568.578 65.2691C569.367 65.2691 570.113 65.1871 570.816 65.023C571.52 64.859 572.254 64.5973 573.02 64.2379V67.0035C572.395 67.316 571.727 67.5465 571.016 67.6949C570.305 67.8512 569.438 67.9293 568.414 67.9293ZM580.238 67.6949H576.664V49.4605H580.238V67.6949ZM462.969 100.695H459.395V93.0426C459.395 91.1519 458.691 90.2066 457.285 90.2066C456.285 90.2066 455.562 90.5465 455.117 91.2262C454.672 91.9059 454.449 93.0074 454.449 94.5309V100.695H450.875V82.4605H454.449V86.1754C454.449 86.4644 454.422 87.1441 454.367 88.2144L454.285 89.2691H454.473C455.27 87.9879 456.535 87.3473 458.27 87.3473C459.809 87.3473 460.977 87.7613 461.773 88.5894C462.57 89.4176 462.969 90.6051 462.969 92.1519V100.695ZM472.074 89.8902C471.316 89.8902 470.723 90.1324 470.293 90.6168C469.863 91.0934 469.617 91.773 469.555 92.6559H474.57C474.555 91.773 474.324 91.0934 473.879 90.6168C473.434 90.1324 472.832 89.8902 472.074 89.8902ZM472.578 100.929C470.469 100.929 468.82 100.347 467.633 99.1832C466.445 98.0191 465.852 96.3707 465.852 94.2379C465.852 92.0426 466.398 90.3473 467.492 89.1519C468.594 87.9488 470.113 87.3473 472.051 87.3473C473.902 87.3473 475.344 87.8746 476.375 88.9293C477.406 89.984 477.922 91.441 477.922 93.3004V95.0348H469.473C469.512 96.0504 469.812 96.8434 470.375 97.4137C470.938 97.984 471.727 98.2691 472.742 98.2691C473.531 98.2691 474.277 98.1871 474.98 98.023C475.684 97.859 476.418 97.5973 477.184 97.2379V100.004C476.559 100.316 475.891 100.546 475.18 100.695C474.469 100.851 473.602 100.929 472.578 100.929ZM489.148 100.695L488.457 98.9137H488.363C487.762 99.6715 487.141 100.199 486.5 100.496C485.867 100.785 485.039 100.929 484.016 100.929C482.758 100.929 481.766 100.57 481.039 99.8512C480.32 99.1324 479.961 98.109 479.961 96.7809C479.961 95.3902 480.445 94.3668 481.414 93.7105C482.391 93.0465 483.859 92.6793 485.82 92.609L488.094 92.5387V91.9644C488.094 90.6363 487.414 89.9723 486.055 89.9723C485.008 89.9723 483.777 90.2887 482.363 90.9215L481.18 88.5074C482.688 87.7184 484.359 87.3238 486.195 87.3238C487.953 87.3238 489.301 87.7066 490.238 88.4723C491.176 89.2379 491.645 90.4019 491.645 91.9644V100.695H489.148ZM488.094 94.6246L486.711 94.6715C485.672 94.7027 484.898 94.8902 484.391 95.234C483.883 95.5777 483.629 96.1012 483.629 96.8043C483.629 97.8121 484.207 98.316 485.363 98.316C486.191 98.316 486.852 98.0777 487.344 97.6012C487.844 97.1246 488.094 96.4918 488.094 95.7027V94.6246ZM500.855 98.0816C501.48 98.0816 502.23 97.9449 503.105 97.6715V100.332C502.215 100.73 501.121 100.929 499.824 100.929C498.395 100.929 497.352 100.57 496.695 99.8512C496.047 99.1246 495.723 98.0387 495.723 96.5934V90.2769H494.012V88.7652L495.98 87.5699L497.012 84.8043H499.297V87.5934H502.965V90.2769H499.297V96.5934C499.297 97.1012 499.438 97.4762 499.719 97.7184C500.008 97.9605 500.387 98.0816 500.855 98.0816ZM511.191 89.8902C510.434 89.8902 509.84 90.1324 509.41 90.6168C508.98 91.0934 508.734 91.773 508.672 92.6559H513.688C513.672 91.773 513.441 91.0934 512.996 90.6168C512.551 90.1324 511.949 89.8902 511.191 89.8902ZM511.695 100.929C509.586 100.929 507.938 100.347 506.75 99.1832C505.562 98.0191 504.969 96.3707 504.969 94.2379C504.969 92.0426 505.516 90.3473 506.609 89.1519C507.711 87.9488 509.23 87.3473 511.168 87.3473C513.02 87.3473 514.461 87.8746 515.492 88.9293C516.523 89.984 517.039 91.441 517.039 93.3004V95.0348H508.59C508.629 96.0504 508.93 96.8434 509.492 97.4137C510.055 97.984 510.844 98.2691 511.859 98.2691C512.648 98.2691 513.395 98.1871 514.098 98.023C514.801 97.859 515.535 97.5973 516.301 97.2379V100.004C515.676 100.316 515.008 100.546 514.297 100.695C513.586 100.851 512.719 100.929 511.695 100.929ZM527.258 87.3473C527.742 87.3473 528.145 87.3824 528.465 87.4527L528.195 90.8043C527.906 90.7262 527.555 90.6871 527.141 90.6871C526 90.6871 525.109 90.9801 524.469 91.566C523.836 92.1519 523.52 92.9723 523.52 94.0269V100.695H519.945V87.5934H522.652L523.18 89.7965H523.355C523.762 89.0621 524.309 88.4723 524.996 88.0269C525.691 87.5738 526.445 87.3473 527.258 87.3473Z" fill="white"/>
<path d="M691.371 58.9644C691.371 61.7848 690.566 63.9449 688.957 65.4449C687.355 66.9449 685.039 67.6949 682.008 67.6949H677.156V50.5621H682.535C685.332 50.5621 687.504 51.3004 689.051 52.7769C690.598 54.2535 691.371 56.316 691.371 58.9644ZM687.598 59.0582C687.598 55.3785 685.973 53.5387 682.723 53.5387H680.789V64.6949H682.348C685.848 64.6949 687.598 62.816 687.598 59.0582ZM694.488 51.2066C694.488 50.0426 695.137 49.4605 696.434 49.4605C697.73 49.4605 698.379 50.0426 698.379 51.2066C698.379 51.7613 698.215 52.1949 697.887 52.5074C697.566 52.8121 697.082 52.9644 696.434 52.9644C695.137 52.9644 694.488 52.3785 694.488 51.2066ZM698.215 67.6949H694.641V54.5934H698.215V67.6949ZM707.402 56.8902C706.645 56.8902 706.051 57.1324 705.621 57.6168C705.191 58.0934 704.945 58.773 704.883 59.6559H709.898C709.883 58.773 709.652 58.0934 709.207 57.6168C708.762 57.1324 708.16 56.8902 707.402 56.8902ZM707.906 67.9293C705.797 67.9293 704.148 67.3473 702.961 66.1832C701.773 65.0191 701.18 63.3707 701.18 61.2379C701.18 59.0426 701.727 57.3473 702.82 56.1519C703.922 54.9488 705.441 54.3473 707.379 54.3473C709.23 54.3473 710.672 54.8746 711.703 55.9293C712.734 56.984 713.25 58.441 713.25 60.3004V62.0348H704.801C704.84 63.0504 705.141 63.8434 705.703 64.4137C706.266 64.984 707.055 65.2691 708.07 65.2691C708.859 65.2691 709.605 65.1871 710.309 65.023C711.012 64.859 711.746 64.5973 712.512 64.2379V67.0035C711.887 67.316 711.219 67.5465 710.508 67.6949C709.797 67.8512 708.93 67.9293 707.906 67.9293ZM725.297 63.8043C725.297 65.148 724.828 66.1715 723.891 66.8746C722.961 67.5777 721.566 67.9293 719.707 67.9293C718.754 67.9293 717.941 67.8629 717.27 67.7301C716.598 67.6051 715.969 67.4176 715.383 67.1676V64.2144C716.047 64.5269 716.793 64.7887 717.621 64.9996C718.457 65.2105 719.191 65.316 719.824 65.316C721.121 65.316 721.77 64.941 721.77 64.191C721.77 63.9098 721.684 63.6832 721.512 63.5113C721.34 63.3316 721.043 63.1324 720.621 62.9137C720.199 62.6871 719.637 62.4254 718.934 62.1285C717.926 61.7066 717.184 61.316 716.707 60.9566C716.238 60.5973 715.895 60.1871 715.676 59.7262C715.465 59.2574 715.359 58.6832 715.359 58.0035C715.359 56.8394 715.809 55.941 716.707 55.3082C717.613 54.6676 718.895 54.3473 720.551 54.3473C722.129 54.3473 723.664 54.691 725.156 55.3785L724.078 57.9566C723.422 57.6754 722.809 57.4449 722.238 57.2652C721.668 57.0855 721.086 56.9957 720.492 56.9957C719.438 56.9957 718.91 57.2809 718.91 57.8512C718.91 58.1715 719.078 58.4488 719.414 58.6832C719.758 58.9176 720.504 59.2652 721.652 59.7262C722.676 60.1402 723.426 60.5269 723.902 60.8863C724.379 61.2457 724.73 61.6598 724.957 62.1285C725.184 62.5973 725.297 63.1559 725.297 63.8043ZM733.512 56.8902C732.754 56.8902 732.16 57.1324 731.73 57.6168C731.301 58.0934 731.055 58.773 730.992 59.6559H736.008C735.992 58.773 735.762 58.0934 735.316 57.6168C734.871 57.1324 734.27 56.8902 733.512 56.8902ZM734.016 67.9293C731.906 67.9293 730.258 67.3473 729.07 66.1832C727.883 65.0191 727.289 63.3707 727.289 61.2379C727.289 59.0426 727.836 57.3473 728.93 56.1519C730.031 54.9488 731.551 54.3473 733.488 54.3473C735.34 54.3473 736.781 54.8746 737.812 55.9293C738.844 56.984 739.359 58.441 739.359 60.3004V62.0348H730.91C730.949 63.0504 731.25 63.8434 731.812 64.4137C732.375 64.984 733.164 65.2691 734.18 65.2691C734.969 65.2691 735.715 65.1871 736.418 65.023C737.121 64.859 737.855 64.5973 738.621 64.2379V67.0035C737.996 67.316 737.328 67.5465 736.617 67.6949C735.906 67.8512 735.039 67.9293 734.016 67.9293ZM745.84 67.6949H742.266V49.4605H745.84V67.6949Z" fill="white"/>
</svg>
