<svg width="900" height="120" viewBox="0 0 900 120" fill="none" xmlns="http://www.w3.org/2000/svg">
<rect width="224.741" height="27.2629" fill="#832520"/>
<rect x="224.741" width="224.741" height="27.2629" fill="#832520"/>
<rect x="449.482" width="225.777" height="27.2629" fill="#2D4F6D"/>
<rect x="675.259" width="224.741" height="27.2629" fill="#2D4F6D"/>
<path d="M16.3711 58.9644C16.3711 61.7848 15.5664 63.9449 13.957 65.4449C12.3555 66.9449 10.0391 67.6949 7.00781 67.6949H2.15625V50.5621H7.53516C10.332 50.5621 12.5039 51.3004 14.0508 52.7769C15.5977 54.2535 16.3711 56.316 16.3711 58.9644ZM12.5977 59.0582C12.5977 55.3785 10.9727 53.5387 7.72266 53.5387H5.78906V64.6949H7.34766C10.8477 64.6949 12.5977 62.816 12.5977 59.0582ZM19.4883 51.2066C19.4883 50.0426 20.1367 49.4605 21.4336 49.4605C22.7305 49.4605 23.3789 50.0426 23.3789 51.2066C23.3789 51.7613 23.2148 52.1949 22.8867 52.5074C22.5664 52.8121 22.082 52.9644 21.4336 52.9644C20.1367 52.9644 19.4883 52.3785 19.4883 51.2066ZM23.2148 67.6949H19.6406V54.5934H23.2148V67.6949ZM32.4023 56.8902C31.6445 56.8902 31.0508 57.1324 30.6211 57.6168C30.1914 58.0934 29.9453 58.773 29.8828 59.6559H34.8984C34.8828 58.773 34.6523 58.0934 34.207 57.6168C33.7617 57.1324 33.1602 56.8902 32.4023 56.8902ZM32.9062 67.9293C30.7969 67.9293 29.1484 67.3473 27.9609 66.1832C26.7734 65.0191 26.1797 63.3707 26.1797 61.2379C26.1797 59.0426 26.7266 57.3473 27.8203 56.1519C28.9219 54.9488 30.4414 54.3473 32.3789 54.3473C34.2305 54.3473 35.6719 54.8746 36.7031 55.9293C37.7344 56.984 38.25 58.441 38.25 60.3004V62.0348H29.8008C29.8398 63.0504 30.1406 63.8434 30.7031 64.4137C31.2656 64.984 32.0547 65.2691 33.0703 65.2691C33.8594 65.2691 34.6055 65.1871 35.3086 65.023C36.0117 64.859 36.7461 64.5973 37.5117 64.2379V67.0035C36.8867 67.316 36.2188 67.5465 35.5078 67.6949C34.7969 67.8512 33.9297 67.9293 32.9062 67.9293ZM50.2969 63.8043C50.2969 65.148 49.8281 66.1715 48.8906 66.8746C47.9609 67.5777 46.5664 67.9293 44.707 67.9293C43.7539 67.9293 42.9414 67.8629 42.2695 67.7301C41.5977 67.6051 40.9688 67.4176 40.3828 67.1676V64.2144C41.0469 64.5269 41.793 64.7887 42.6211 64.9996C43.457 65.2105 44.1914 65.316 44.8242 65.316C46.1211 65.316 46.7695 64.941 46.7695 64.191C46.7695 63.9098 46.6836 63.6832 46.5117 63.5113C46.3398 63.3316 46.043 63.1324 45.6211 62.9137C45.1992 62.6871 44.6367 62.4254 43.9336 62.1285C42.9258 61.7066 42.1836 61.316 41.707 60.9566C41.2383 60.5973 40.8945 60.1871 40.6758 59.7262C40.4648 59.2574 40.3594 58.6832 40.3594 58.0035C40.3594 56.8394 40.8086 55.941 41.707 55.3082C42.6133 54.6676 43.8945 54.3473 45.5508 54.3473C47.1289 54.3473 48.6641 54.691 50.1562 55.3785L49.0781 57.9566C48.4219 57.6754 47.8086 57.4449 47.2383 57.2652C46.668 57.0855 46.0859 56.9957 45.4922 56.9957C44.4375 56.9957 43.9102 57.2809 43.9102 57.8512C43.9102 58.1715 44.0781 58.4488 44.4141 58.6832C44.7578 58.9176 45.5039 59.2652 46.6523 59.7262C47.6758 60.1402 48.4258 60.5269 48.9023 60.8863C49.3789 61.2457 49.7305 61.6598 49.957 62.1285C50.1836 62.5973 50.2969 63.1559 50.2969 63.8043ZM58.5117 56.8902C57.7539 56.8902 57.1602 57.1324 56.7305 57.6168C56.3008 58.0934 56.0547 58.773 55.9922 59.6559H61.0078C60.9922 58.773 60.7617 58.0934 60.3164 57.6168C59.8711 57.1324 59.2695 56.8902 58.5117 56.8902ZM59.0156 67.9293C56.9062 67.9293 55.2578 67.3473 54.0703 66.1832C52.8828 65.0191 52.2891 63.3707 52.2891 61.2379C52.2891 59.0426 52.8359 57.3473 53.9297 56.1519C55.0312 54.9488 56.5508 54.3473 58.4883 54.3473C60.3398 54.3473 61.7812 54.8746 62.8125 55.9293C63.8438 56.984 64.3594 58.441 64.3594 60.3004V62.0348H55.9102C55.9492 63.0504 56.25 63.8434 56.8125 64.4137C57.375 64.984 58.1641 65.2691 59.1797 65.2691C59.9688 65.2691 60.7148 65.1871 61.418 65.023C62.1211 64.859 62.8555 64.5973 63.6211 64.2379V67.0035C62.9961 67.316 62.3281 67.5465 61.6172 67.6949C60.9062 67.8512 60.0391 67.9293 59.0156 67.9293ZM70.8398 67.6949H67.2656V49.4605H70.8398V67.6949ZM81.1172 50.5621H86.4492C88.8789 50.5621 90.6406 50.9098 91.7344 51.6051C92.8359 52.2926 93.3867 53.3902 93.3867 54.898C93.3867 55.9215 93.1445 56.7613 92.6602 57.4176C92.1836 58.0738 91.5469 58.4684 90.75 58.6012V58.7184C91.8359 58.9605 92.6172 59.4137 93.0938 60.0777C93.5781 60.7418 93.8203 61.6246 93.8203 62.7262C93.8203 64.2887 93.2539 65.5074 92.1211 66.3824C90.9961 67.2574 89.4648 67.6949 87.5273 67.6949H81.1172V50.5621ZM84.75 57.3473H86.8594C87.8438 57.3473 88.5547 57.1949 88.9922 56.8902C89.4375 56.5855 89.6602 56.0816 89.6602 55.3785C89.6602 54.7223 89.418 54.2535 88.9336 53.9723C88.457 53.6832 87.6992 53.5387 86.6602 53.5387H84.75V57.3473ZM84.75 60.2301V64.6949H87.1172C88.1172 64.6949 88.8555 64.5035 89.332 64.1207C89.8086 63.7379 90.0469 63.1519 90.0469 62.3629C90.0469 60.941 89.0312 60.2301 87 60.2301H84.75ZM106.242 67.6949L105.762 66.0191H105.574C105.191 66.6285 104.648 67.1012 103.945 67.4371C103.242 67.7652 102.441 67.9293 101.543 67.9293C100.004 67.9293 98.8438 67.5191 98.0625 66.6988C97.2812 65.8707 96.8906 64.6832 96.8906 63.1363V54.5934H100.465V62.2457C100.465 63.191 100.633 63.9019 100.969 64.3785C101.305 64.8473 101.84 65.0816 102.574 65.0816C103.574 65.0816 104.297 64.7496 104.742 64.0855C105.188 63.4137 105.41 62.3043 105.41 60.7574V54.5934H108.984V67.6949H106.242ZM121.875 63.8043C121.875 65.148 121.406 66.1715 120.469 66.8746C119.539 67.5777 118.145 67.9293 116.285 67.9293C115.332 67.9293 114.52 67.8629 113.848 67.7301C113.176 67.6051 112.547 67.4176 111.961 67.1676V64.2144C112.625 64.5269 113.371 64.7887 114.199 64.9996C115.035 65.2105 115.77 65.316 116.402 65.316C117.699 65.316 118.348 64.941 118.348 64.191C118.348 63.9098 118.262 63.6832 118.09 63.5113C117.918 63.3316 117.621 63.1324 117.199 62.9137C116.777 62.6871 116.215 62.4254 115.512 62.1285C114.504 61.7066 113.762 61.316 113.285 60.9566C112.816 60.5973 112.473 60.1871 112.254 59.7262C112.043 59.2574 111.938 58.6832 111.938 58.0035C111.938 56.8394 112.387 55.941 113.285 55.3082C114.191 54.6676 115.473 54.3473 117.129 54.3473C118.707 54.3473 120.242 54.691 121.734 55.3785L120.656 57.9566C120 57.6754 119.387 57.4449 118.816 57.2652C118.246 57.0855 117.664 56.9957 117.07 56.9957C116.016 56.9957 115.488 57.2809 115.488 57.8512C115.488 58.1715 115.656 58.4488 115.992 58.6832C116.336 58.9176 117.082 59.2652 118.23 59.7262C119.254 60.1402 120.004 60.5269 120.48 60.8863C120.957 61.2457 121.309 61.6598 121.535 62.1285C121.762 62.5973 121.875 63.1559 121.875 63.8043Z" fill="white"/>
<path d="M451.156 50.5621H456.488C458.918 50.5621 460.68 50.9098 461.773 51.6051C462.875 52.2926 463.426 53.3902 463.426 54.898C463.426 55.9215 463.184 56.7613 462.699 57.4176C462.223 58.0738 461.586 58.4684 460.789 58.6012V58.7184C461.875 58.9605 462.656 59.4137 463.133 60.0777C463.617 60.7418 463.859 61.6246 463.859 62.7262C463.859 64.2887 463.293 65.5074 462.16 66.3824C461.035 67.2574 459.504 67.6949 457.566 67.6949H451.156V50.5621ZM454.789 57.3473H456.898C457.883 57.3473 458.594 57.1949 459.031 56.8902C459.477 56.5855 459.699 56.0816 459.699 55.3785C459.699 54.7223 459.457 54.2535 458.973 53.9723C458.496 53.6832 457.738 53.5387 456.699 53.5387H454.789V57.3473ZM454.789 60.2301V64.6949H457.156C458.156 64.6949 458.895 64.5035 459.371 64.1207C459.848 63.7379 460.086 63.1519 460.086 62.3629C460.086 60.941 459.07 60.2301 457.039 60.2301H454.789ZM477.148 67.6949H467.281V50.5621H477.148V53.5387H470.914V57.3004H476.715V60.2769H470.914V64.6949H477.148V67.6949ZM480.734 50.5621H486.066C488.496 50.5621 490.258 50.9098 491.352 51.6051C492.453 52.2926 493.004 53.3902 493.004 54.898C493.004 55.9215 492.762 56.7613 492.277 57.4176C491.801 58.0738 491.164 58.4684 490.367 58.6012V58.7184C491.453 58.9605 492.234 59.4137 492.711 60.0777C493.195 60.7418 493.438 61.6246 493.438 62.7262C493.438 64.2887 492.871 65.5074 491.738 66.3824C490.613 67.2574 489.082 67.6949 487.145 67.6949H480.734V50.5621ZM484.367 57.3473H486.477C487.461 57.3473 488.172 57.1949 488.609 56.8902C489.055 56.5855 489.277 56.0816 489.277 55.3785C489.277 54.7223 489.035 54.2535 488.551 53.9723C488.074 53.6832 487.316 53.5387 486.277 53.5387H484.367V57.3473ZM484.367 60.2301V64.6949H486.734C487.734 64.6949 488.473 64.5035 488.949 64.1207C489.426 63.7379 489.664 63.1519 489.664 62.3629C489.664 60.941 488.648 60.2301 486.617 60.2301H484.367ZM503.094 50.5621H508.426C510.855 50.5621 512.617 50.9098 513.711 51.6051C514.812 52.2926 515.363 53.3902 515.363 54.898C515.363 55.9215 515.121 56.7613 514.637 57.4176C514.16 58.0738 513.523 58.4684 512.727 58.6012V58.7184C513.812 58.9605 514.594 59.4137 515.07 60.0777C515.555 60.7418 515.797 61.6246 515.797 62.7262C515.797 64.2887 515.23 65.5074 514.098 66.3824C512.973 67.2574 511.441 67.6949 509.504 67.6949H503.094V50.5621ZM506.727 57.3473H508.836C509.82 57.3473 510.531 57.1949 510.969 56.8902C511.414 56.5855 511.637 56.0816 511.637 55.3785C511.637 54.7223 511.395 54.2535 510.91 53.9723C510.434 53.6832 509.676 53.5387 508.637 53.5387H506.727V57.3473ZM506.727 60.2301V64.6949H509.094C510.094 64.6949 510.832 64.5035 511.309 64.1207C511.785 63.7379 512.023 63.1519 512.023 62.3629C512.023 60.941 511.008 60.2301 508.977 60.2301H506.727ZM528.219 67.6949L527.738 66.0191H527.551C527.168 66.6285 526.625 67.1012 525.922 67.4371C525.219 67.7652 524.418 67.9293 523.52 67.9293C521.98 67.9293 520.82 67.5191 520.039 66.6988C519.258 65.8707 518.867 64.6832 518.867 63.1363V54.5934H522.441V62.2457C522.441 63.191 522.609 63.9019 522.945 64.3785C523.281 64.8473 523.816 65.0816 524.551 65.0816C525.551 65.0816 526.273 64.7496 526.719 64.0855C527.164 63.4137 527.387 62.3043 527.387 60.7574V54.5934H530.961V67.6949H528.219ZM543.852 63.8043C543.852 65.148 543.383 66.1715 542.445 66.8746C541.516 67.5777 540.121 67.9293 538.262 67.9293C537.309 67.9293 536.496 67.8629 535.824 67.7301C535.152 67.6051 534.523 67.4176 533.938 67.1676V64.2144C534.602 64.5269 535.348 64.7887 536.176 64.9996C537.012 65.2105 537.746 65.316 538.379 65.316C539.676 65.316 540.324 64.941 540.324 64.191C540.324 63.9098 540.238 63.6832 540.066 63.5113C539.895 63.3316 539.598 63.1324 539.176 62.9137C538.754 62.6871 538.191 62.4254 537.488 62.1285C536.48 61.7066 535.738 61.316 535.262 60.9566C534.793 60.5973 534.449 60.1871 534.23 59.7262C534.02 59.2574 533.914 58.6832 533.914 58.0035C533.914 56.8394 534.363 55.941 535.262 55.3082C536.168 54.6676 537.449 54.3473 539.105 54.3473C540.684 54.3473 542.219 54.691 543.711 55.3785L542.633 57.9566C541.977 57.6754 541.363 57.4449 540.793 57.2652C540.223 57.0855 539.641 56.9957 539.047 56.9957C537.992 56.9957 537.465 57.2809 537.465 57.8512C537.465 58.1715 537.633 58.4488 537.969 58.6832C538.312 58.9176 539.059 59.2652 540.207 59.7262C541.23 60.1402 541.98 60.5269 542.457 60.8863C542.934 61.2457 543.285 61.6598 543.512 62.1285C543.738 62.5973 543.852 63.1559 543.852 63.8043Z" fill="white"/>
</svg>
