<svg width="62" height="39" viewBox="0 0 62 39" fill="none" xmlns="http://www.w3.org/2000/svg">
<path d="M9.59305 20.7715C7.89047 20.7715 6.37169 20.3919 5.03672 19.6326C3.72109 18.8734 2.69568 17.7539 1.96047 16.2743C1.22527 14.7948 0.857666 12.9939 0.857666 10.8719C0.857666 8.78878 1.24462 7.00743 2.01851 5.52784C2.79241 4.04825 3.89522 2.90935 5.32693 2.11115C6.77799 1.31295 8.48057 0.913849 10.4347 0.913849C12.6016 0.913849 14.3525 1.31295 15.6875 2.11115C17.0225 2.88988 18.0576 4.13585 18.7928 5.84906L14.1784 7.68882C13.9269 6.69594 13.4819 5.97561 12.8434 5.52784C12.205 5.08007 11.4117 4.85618 10.4637 4.85618C9.51566 4.85618 8.70306 5.0898 8.0259 5.55704C7.34874 6.00481 6.83603 6.67647 6.48778 7.57201C6.13952 8.44809 5.9654 9.53831 5.9654 10.8427C5.9654 12.2055 6.13952 13.3444 6.48778 14.2594C6.85538 15.1744 7.38744 15.8558 8.08394 16.3035C8.7998 16.7319 9.68011 16.946 10.7249 16.946C11.286 16.946 11.7987 16.8779 12.263 16.7416C12.7273 16.6053 13.1336 16.4106 13.4819 16.1575C13.8301 15.885 14.101 15.554 14.2945 15.1647C14.488 14.7558 14.5847 14.2788 14.5847 13.7337V13.4417H10.2025V10.0834H18.8218V20.4795H15.4263L15.049 15.9531L15.8616 16.654C15.4553 17.9778 14.7201 18.9999 13.656 19.7202C12.6113 20.4211 11.2569 20.7715 9.59305 20.7715Z" fill="#FF5151"/>
<path d="M39.9392 1.20587V20.4795H34.9476V1.20587H39.9392ZM27.6343 1.20587V20.4795H22.6426V1.20587H27.6343ZM37.6176 8.82772V12.7116H25.0804V8.82772H37.6176Z" fill="#FF5151"/>
<path d="M52.1046 20.7715C50.402 20.7715 48.8832 20.3919 47.5482 19.6326C46.2326 18.8734 45.2072 17.7539 44.472 16.2743C43.7368 14.7948 43.3692 12.9939 43.3692 10.8719C43.3692 8.78878 43.7561 7.00743 44.53 5.52784C45.3039 4.04825 46.4067 2.90935 47.8385 2.11115C49.2895 1.31295 50.9921 0.913849 52.9462 0.913849C55.1131 0.913849 56.864 1.31295 58.199 2.11115C59.534 2.88988 60.5691 4.13585 61.3043 5.84906L56.6899 7.68882C56.4384 6.69594 55.9934 5.97561 55.355 5.52784C54.7165 5.08007 53.9232 4.85618 52.9752 4.85618C52.0272 4.85618 51.2146 5.0898 50.5374 5.55704C49.8603 6.00481 49.3476 6.67647 48.9993 7.57201C48.651 8.44809 48.4769 9.53831 48.4769 10.8427C48.4769 12.2055 48.651 13.3444 48.9993 14.2594C49.3669 15.1744 49.899 15.8558 50.5955 16.3035C51.3113 16.7319 52.1916 16.946 53.2364 16.946C53.7975 16.946 54.3102 16.8779 54.7745 16.7416C55.2389 16.6053 55.6452 16.4106 55.9934 16.1575C56.3417 15.885 56.6125 15.554 56.806 15.1647C56.9995 14.7558 57.0962 14.2788 57.0962 13.7337V13.4417H52.714V10.0834H61.3333V20.4795H57.9378L57.5606 15.9531L58.3731 16.654C57.9669 17.9778 57.2317 18.9999 56.1675 19.7202C55.1228 20.4211 53.7685 20.7715 52.1046 20.7715Z" fill="#FF5151"/>
<path d="M0.857666 38.6881V29.7237H7.2373V31.5301H2.99249V33.3502H6.36848V35.048H2.99249V36.8817H7.39866V38.6881H0.857666Z" fill="#FF5151"/>
<path d="M8.53879 38.6881V31.8969H10.4254L10.4874 33.2144C10.686 32.7345 10.9632 32.3723 11.319 32.1278C11.6831 31.8833 12.101 31.761 12.5726 31.761C13.036 31.761 13.4373 31.8742 13.7765 32.1006C14.1158 32.327 14.3682 32.662 14.5337 33.1057C14.6661 32.8069 14.8357 32.5579 15.0425 32.3587C15.2577 32.1595 15.5018 32.0101 15.7748 31.9105C16.0479 31.8108 16.3292 31.761 16.6188 31.761C17.0326 31.761 17.3966 31.8516 17.7111 32.0327C18.0255 32.2047 18.2737 32.4719 18.4558 32.8341C18.6461 33.1872 18.7412 33.6309 18.7412 34.1652V38.6881H16.6313V34.6949C16.6313 34.2602 16.5526 33.9569 16.3954 33.7848C16.2465 33.6128 16.0438 33.5268 15.7873 33.5268C15.5804 33.5268 15.3901 33.5856 15.2163 33.7033C15.0508 33.812 14.9226 33.9795 14.8315 34.2059C14.7405 34.4323 14.695 34.7175 14.695 35.0616V38.6881H12.585V34.6949C12.585 34.2602 12.5064 33.9569 12.3492 33.7848C12.192 33.6128 11.9893 33.5268 11.741 33.5268C11.5507 33.5268 11.3687 33.5811 11.1949 33.6898C11.0294 33.7984 10.897 33.9705 10.7977 34.2059C10.6984 34.4323 10.6488 34.7311 10.6488 35.1023V38.6881H8.53879Z" fill="#FF5151"/>
<path d="M21.2783 31.1091C20.848 31.1091 20.5336 31.0231 20.335 30.851C20.1447 30.6699 20.0495 30.3892 20.0495 30.0089C20.0495 29.6195 20.1447 29.3388 20.335 29.1668C20.5336 28.9857 20.848 28.8951 21.2783 28.8951C21.7003 28.8951 22.0106 28.9857 22.2092 29.1668C22.4078 29.3388 22.507 29.6195 22.507 30.0089C22.507 30.3892 22.4078 30.6699 22.2092 30.851C22.0106 31.0231 21.7003 31.1091 21.2783 31.1091ZM22.3333 31.8969V38.6881H20.2233V31.8969H22.3333Z" fill="#FF5151"/>
<path d="M26.4418 38.824C25.8212 38.824 25.242 38.7153 24.7041 38.498C24.1746 38.2716 23.736 37.9502 23.3885 37.5336L24.3814 36.2569C24.5883 36.5466 24.8613 36.7911 25.2006 36.9903C25.5481 37.1805 25.9329 37.2756 26.3549 37.2756C26.6114 37.2756 26.8224 37.2348 26.9879 37.1533C27.1534 37.0718 27.2361 36.945 27.2361 36.773C27.2361 36.6462 27.1947 36.5466 27.112 36.4742C27.0293 36.3927 26.8638 36.3248 26.6155 36.2704L25.7467 36.0803C24.9689 35.9082 24.4145 35.6547 24.0835 35.3197C23.7608 34.9756 23.5995 34.5274 23.5995 33.975C23.5995 33.6037 23.7029 33.2506 23.9098 32.9156C24.1166 32.5715 24.4352 32.2953 24.8655 32.087C25.2958 31.8697 25.846 31.761 26.5162 31.761C27.1451 31.761 27.6995 31.8606 28.1794 32.0599C28.6593 32.2591 29.04 32.5488 29.3213 32.9291L28.3159 34.1787C28.1174 33.9071 27.8608 33.6943 27.5464 33.5404C27.232 33.3864 26.9176 33.3095 26.6031 33.3095C26.4045 33.3095 26.2349 33.3321 26.0942 33.3774C25.9618 33.4136 25.8626 33.4679 25.7964 33.5404C25.7302 33.6128 25.6971 33.7033 25.6971 33.812C25.6971 33.9297 25.7467 34.0339 25.846 34.1244C25.9536 34.2059 26.148 34.2783 26.4294 34.3417L27.5588 34.5862C28.196 34.713 28.6552 34.9439 28.9365 35.2789C29.2179 35.614 29.3585 36.0169 29.3585 36.4878C29.3585 36.9315 29.251 37.3299 29.0358 37.683C28.8207 38.0362 28.498 38.3169 28.0677 38.5251C27.6374 38.7244 27.0955 38.824 26.4418 38.824Z" fill="#FF5151"/>
<path d="M33.0597 38.824C32.4392 38.824 31.8599 38.7153 31.3221 38.498C30.7925 38.2716 30.354 37.9502 30.0065 37.5336L30.9994 36.2569C31.2063 36.5466 31.4793 36.7911 31.8186 36.9903C32.1661 37.1805 32.5509 37.2756 32.9729 37.2756C33.2294 37.2756 33.4404 37.2348 33.6059 37.1533C33.7714 37.0718 33.8541 36.945 33.8541 36.773C33.8541 36.6462 33.8127 36.5466 33.73 36.4742C33.6472 36.3927 33.4818 36.3248 33.2335 36.2704L32.3647 36.0803C31.5869 35.9082 31.0325 35.6547 30.7015 35.3197C30.3788 34.9756 30.2175 34.5274 30.2175 33.975C30.2175 33.6037 30.3209 33.2506 30.5278 32.9156C30.7346 32.5715 31.0532 32.2953 31.4835 32.087C31.9137 31.8697 32.464 31.761 33.1342 31.761C33.7631 31.761 34.3175 31.8606 34.7974 32.0599C35.2773 32.2591 35.6579 32.5488 35.9393 32.9291L34.9339 34.1787C34.7353 33.9071 34.4788 33.6943 34.1644 33.5404C33.85 33.3864 33.5355 33.3095 33.2211 33.3095C33.0225 33.3095 32.8529 33.3321 32.7122 33.3774C32.5798 33.4136 32.4805 33.4679 32.4143 33.5404C32.3481 33.6128 32.315 33.7033 32.315 33.812C32.315 33.9297 32.3647 34.0339 32.464 34.1244C32.5716 34.2059 32.766 34.2783 33.0473 34.3417L34.1768 34.5862C34.8139 34.713 35.2732 34.9439 35.5545 35.2789C35.8358 35.614 35.9765 36.0169 35.9765 36.4878C35.9765 36.9315 35.8689 37.3299 35.6538 37.683C35.4387 38.0362 35.116 38.3169 34.6857 38.5251C34.2554 38.7244 33.7134 38.824 33.0597 38.824Z" fill="#FF5151"/>
<path d="M38.1263 31.1091C37.696 31.1091 37.3816 31.0231 37.183 30.851C36.9927 30.6699 36.8975 30.3892 36.8975 30.0089C36.8975 29.6195 36.9927 29.3388 37.183 29.1668C37.3816 28.9857 37.696 28.8951 38.1263 28.8951C38.5483 28.8951 38.8586 28.9857 39.0571 29.1668C39.2557 29.3388 39.355 29.6195 39.355 30.0089C39.355 30.3892 39.2557 30.6699 39.0571 30.851C38.8586 31.0231 38.5483 31.1091 38.1263 31.1091ZM39.1813 31.8969V38.6881H37.0713V31.8969H39.1813Z" fill="#FF5151"/>
<path d="M43.6373 31.761C44.291 31.761 44.8619 31.9014 45.3501 32.1821C45.8466 32.4538 46.2313 32.8567 46.5044 33.3909C46.7857 33.9161 46.9264 34.55 46.9264 35.2925C46.9264 36.035 46.7857 36.6734 46.5044 37.2076C46.2313 37.7328 45.8466 38.1358 45.3501 38.4165C44.8619 38.6881 44.291 38.824 43.6373 38.824C43.0001 38.824 42.4333 38.6881 41.9369 38.4165C41.4404 38.1358 41.0515 37.7328 40.7702 37.2076C40.4971 36.6734 40.3606 36.035 40.3606 35.2925C40.3606 34.55 40.4971 33.9161 40.7702 33.3909C41.0515 32.8567 41.4404 32.4538 41.9369 32.1821C42.4333 31.9014 43.0001 31.761 43.6373 31.761ZM43.6373 33.4045C43.3973 33.4045 43.1904 33.4679 43.0167 33.5947C42.8429 33.7215 42.7105 33.9252 42.6195 34.2059C42.5285 34.4866 42.483 34.8488 42.483 35.2925C42.483 35.7362 42.5285 36.0984 42.6195 36.3791C42.7105 36.6508 42.8429 36.8545 43.0167 36.9903C43.1904 37.1171 43.3973 37.1805 43.6373 37.1805C43.8855 37.1805 44.0965 37.1171 44.2703 36.9903C44.444 36.8545 44.5764 36.6508 44.6674 36.3791C44.7585 36.0984 44.804 35.7362 44.804 35.2925C44.804 34.8488 44.7585 34.4866 44.6674 34.2059C44.5764 33.9252 44.444 33.7215 44.2703 33.5947C44.0965 33.4679 43.8855 33.4045 43.6373 33.4045Z" fill="#FF5151"/>
<path d="M48.1134 38.6881V31.8969H49.9999L50.1116 34.2331L49.8758 33.975C49.9586 33.486 50.1034 33.0785 50.3102 32.7526C50.5254 32.4266 50.7902 32.1821 51.1046 32.0191C51.4273 31.8471 51.7872 31.761 52.1844 31.761C52.6147 31.761 52.987 31.8516 53.3015 32.0327C53.6242 32.2138 53.8765 32.4809 54.0586 32.8341C54.2406 33.1872 54.3316 33.6309 54.3316 34.1652V38.6881H52.2216V34.7764C52.2216 34.3055 52.1389 33.9795 51.9734 33.7984C51.8079 33.6173 51.5969 33.5268 51.3404 33.5268C51.1418 33.5268 50.9556 33.5811 50.7819 33.6898C50.6081 33.7894 50.4716 33.9524 50.3723 34.1787C50.273 34.4051 50.2234 34.7085 50.2234 35.0888V38.6881H48.1134Z" fill="#FF5151"/>
<path d="M58.4166 38.824C57.796 38.824 57.2168 38.7153 56.6789 38.498C56.1493 38.2716 55.7108 37.9502 55.3633 37.5336L56.3562 36.2569C56.5631 36.5466 56.8361 36.7911 57.1754 36.9903C57.5229 37.1805 57.9077 37.2756 58.3297 37.2756C58.5862 37.2756 58.7972 37.2348 58.9627 37.1533C59.1282 37.0718 59.2109 36.945 59.2109 36.773C59.2109 36.6462 59.1695 36.5466 59.0868 36.4742C59.0041 36.3927 58.8386 36.3248 58.5903 36.2704L57.7215 36.0803C56.9437 35.9082 56.3893 35.6547 56.0583 35.3197C55.7356 34.9756 55.5743 34.5274 55.5743 33.975C55.5743 33.6037 55.6777 33.2506 55.8846 32.9156C56.0914 32.5715 56.41 32.2953 56.8403 32.087C57.2705 31.8697 57.8208 31.761 58.491 31.761C59.1199 31.761 59.6743 31.8606 60.1542 32.0599C60.6341 32.2591 61.0148 32.5488 61.2961 32.9291L60.2907 34.1787C60.0922 33.9071 59.8356 33.6943 59.5212 33.5404C59.2068 33.3864 58.8923 33.3095 58.5779 33.3095C58.3793 33.3095 58.2097 33.3321 58.069 33.3774C57.9366 33.4136 57.8373 33.4679 57.7711 33.5404C57.705 33.6128 57.6719 33.7033 57.6719 33.812C57.6719 33.9297 57.7215 34.0339 57.8208 34.1244C57.9284 34.2059 58.1228 34.2783 58.4041 34.3417L59.5336 34.5862C60.1708 34.713 60.63 34.9439 60.9113 35.2789C61.1927 35.614 61.3333 36.0169 61.3333 36.4878C61.3333 36.9315 61.2258 37.3299 61.0106 37.683C60.7955 38.0362 60.4728 38.3169 60.0425 38.5251C59.6122 38.7244 59.0702 38.824 58.4166 38.824Z" fill="#FF5151"/>
</svg>
