<svg width="49" height="58" viewBox="0 0 49 58" fill="none" xmlns="http://www.w3.org/2000/svg">
<path d="M4.71167 41.2672C4.71167 41.2672 4.80551 48.3995 23.2154 48.3995C41.6253 48.3995 41.7192 41.2672 41.7192 41.2672V22.2477H4.71167V41.2672Z" stroke="#A3A3A3" stroke-width="4" stroke-linejoin="round"/>
<path d="M23.7441 2.27716V16.5418" stroke="#A3A3A3" stroke-width="4" stroke-linecap="round" stroke-linejoin="round"/>
<path d="M13.1705 5.1301V14.6399" stroke="#A3A3A3" stroke-width="4" stroke-linecap="round" stroke-linejoin="round"/>
<path d="M34.3176 5.1301V14.6399" stroke="#A3A3A3" stroke-width="4" stroke-linecap="round" stroke-linejoin="round"/>
<path d="M9.99841 47.2108V53.1544C9.99841 53.7849 10.2769 54.3896 10.7726 54.8355C11.2684 55.2814 11.9407 55.5318 12.6418 55.5318H33.7889C34.49 55.5318 35.1624 55.2814 35.6581 54.8355C36.1538 54.3896 36.4323 53.7849 36.4323 53.1544V47.2108" stroke="#A3A3A3" stroke-width="4" stroke-linecap="round" stroke-linejoin="round"/>
<line x1="2.00378" y1="53.606" x2="45.2091" y2="10.4008" stroke="white" stroke-width="4" stroke-linecap="round"/>
</svg>
