<svg width="54" height="62" viewBox="0 0 54 62" fill="none" xmlns="http://www.w3.org/2000/svg">
<path d="M12.624 0.610474C7.04265 0.610474 0.348328 3.65074 0.348328 11.8468V49.7131C0.348328 49.7131 0.348328 53.805 4.44021 53.805V57.8969C4.44021 57.8969 4.44021 61.9888 8.5321 61.9888C12.624 61.9888 12.624 57.8969 12.624 57.8969V53.805H41.2672V57.8969C41.2672 57.8969 41.2672 61.9888 45.3591 61.9888C49.4509 61.9888 49.451 57.8969 49.451 57.8969V53.805C49.451 53.805 53.5428 53.805 53.5428 49.7131V11.8468C53.5428 3.47888 48.4853 0.610474 42.9039 0.610474H12.624ZM13.647 6.7483H40.2442C40.5155 6.7483 40.7757 6.85608 40.9676 7.04792C41.1594 7.23977 41.2672 7.49996 41.2672 7.77127C41.2672 8.04258 41.1594 8.30278 40.9676 8.49462C40.7757 8.68647 40.5155 8.79424 40.2442 8.79424H13.647C13.3756 8.79424 13.1154 8.68647 12.9236 8.49462C12.7318 8.30278 12.624 8.04258 12.624 7.77127C12.624 7.49996 12.7318 7.23977 12.9236 7.04792C13.1154 6.85608 13.3756 6.7483 13.647 6.7483ZM8.5321 11.0809H45.3591C49.4509 11.0809 49.451 15.0377 49.451 15.0377V34.6694C49.451 34.6694 49.4509 38.7613 45.3591 38.7613H8.5321C4.44021 38.7613 4.44021 34.6694 4.44021 34.6694V15.1728C4.44021 15.1728 4.44021 11.0809 8.5321 11.0809ZM8.5321 41.5293C9.61733 41.5293 10.6581 41.9604 11.4255 42.7278C12.1929 43.4952 12.624 44.536 12.624 45.6212C12.624 46.7064 12.1929 47.7472 11.4255 48.5146C10.6581 49.282 9.61733 49.7131 8.5321 49.7131C7.44686 49.7131 6.40608 49.282 5.6387 48.5146C4.87132 47.7472 4.44021 46.7064 4.44021 45.6212C4.44021 44.536 4.87132 43.4952 5.6387 42.7278C6.40608 41.9604 7.44686 41.5293 8.5321 41.5293ZM45.3591 41.5293C46.4443 41.5293 47.4851 41.9604 48.2525 42.7278C49.0198 43.4952 49.451 44.536 49.451 45.6212C49.451 46.7064 49.0198 47.7472 48.2525 48.5146C47.4851 49.282 46.4443 49.7131 45.3591 49.7131C44.2738 49.7131 43.233 49.282 42.4657 48.5146C41.6983 47.7472 41.2672 46.7064 41.2672 45.6212C41.2672 44.536 41.6983 43.4952 42.4657 42.7278C43.233 41.9604 44.2738 41.5293 45.3591 41.5293Z" fill="#FF5151"/>
<path d="M26.4465 15.955C29.3412 15.955 31.5821 16.7783 33.1695 18.4249C34.7569 20.0524 35.5506 22.3883 35.5506 25.4326C35.5506 28.4577 34.7569 30.7936 33.1695 32.4402C31.5821 34.0868 29.3412 34.9101 26.4465 34.9101H19.3034V15.955H26.4465ZM26.2505 31.7509C28.0059 31.7509 29.3225 31.2148 30.2002 30.1426C31.0966 29.0513 31.5448 27.4813 31.5448 25.4326C31.5448 23.3839 31.0966 21.8235 30.2002 20.7513C29.3225 19.6599 28.0059 19.1142 26.2505 19.1142H23.1691V31.7509H26.2505Z" fill="#FF5151"/>
</svg>
