<svg width="54" height="62" viewBox="0 0 54 62" fill="none" xmlns="http://www.w3.org/2000/svg">
<path d="M13.0097 0.610474C7.42839 0.610474 0.73407 3.65074 0.73407 11.8468V49.7131C0.73407 49.7131 0.73407 53.805 4.82596 53.805V57.8969C4.82596 57.8969 4.82596 61.9888 8.91784 61.9888C13.0097 61.9888 13.0097 57.8969 13.0097 57.8969V53.805H41.6529V57.8969C41.6529 57.8969 41.6529 61.9888 45.7448 61.9888C49.8367 61.9888 49.8367 57.8969 49.8367 57.8969V53.805C49.8367 53.805 53.9286 53.805 53.9286 49.7131V11.8468C53.9286 3.47888 48.871 0.610474 43.2897 0.610474H13.0097ZM14.0327 6.7483H40.63C40.9013 6.7483 41.1615 6.85608 41.3533 7.04792C41.5451 7.23977 41.6529 7.49996 41.6529 7.77127C41.6529 8.04258 41.5451 8.30278 41.3533 8.49462C41.1615 8.68647 40.9013 8.79424 40.63 8.79424H14.0327C13.7614 8.79424 13.5012 8.68647 13.3093 8.49462C13.1175 8.30278 13.0097 8.04258 13.0097 7.77127C13.0097 7.49996 13.1175 7.23977 13.3093 7.04792C13.5012 6.85608 13.7614 6.7483 14.0327 6.7483ZM8.91784 11.0809H45.7448C49.8367 11.0809 49.8367 15.0377 49.8367 15.0377V34.6694C49.8367 34.6694 49.8367 38.7613 45.7448 38.7613H8.91784C4.82596 38.7613 4.82596 34.6694 4.82596 34.6694V15.1728C4.82596 15.1728 4.82596 11.0809 8.91784 11.0809ZM8.91784 41.5293C10.0031 41.5293 11.0439 41.9604 11.8112 42.7278C12.5786 43.4952 13.0097 44.536 13.0097 45.6212C13.0097 46.7064 12.5786 47.7472 11.8112 48.5146C11.0439 49.282 10.0031 49.7131 8.91784 49.7131C7.8326 49.7131 6.79182 49.282 6.02444 48.5146C5.25706 47.7472 4.82596 46.7064 4.82596 45.6212C4.82596 44.536 5.25706 43.4952 6.02444 42.7278C6.79182 41.9604 7.8326 41.5293 8.91784 41.5293ZM45.7448 41.5293C46.83 41.5293 47.8708 41.9604 48.6382 42.7278C49.4056 43.4952 49.8367 44.536 49.8367 45.6212C49.8367 46.7064 49.4056 47.7472 48.6382 48.5146C47.8708 49.282 46.83 49.7131 45.7448 49.7131C44.6596 49.7131 43.6188 49.282 42.8514 48.5146C42.084 47.7472 41.6529 46.7064 41.6529 45.6212C41.6529 44.536 42.084 43.4952 42.8514 42.7278C43.6188 41.9604 44.6596 41.5293 45.7448 41.5293Z" fill="#4FFF56"/>
<path d="M32.7345 13.3508C32.8836 13.4372 32.9989 13.5716 33.0617 13.7321C33.1246 13.8925 33.1311 14.0696 33.0803 14.2342L30.337 23.1478H35.3985C35.5473 23.1478 35.6928 23.1913 35.8171 23.273C35.9414 23.3546 36.0391 23.4709 36.098 23.6075C36.157 23.7441 36.1747 23.8949 36.1489 24.0414C36.1231 24.1879 36.055 24.3236 35.953 24.4319L23.7676 37.3788C23.6497 37.5042 23.4928 37.586 23.3225 37.6108C23.1522 37.6355 22.9785 37.6019 22.8297 37.5153C22.681 37.4288 22.5659 37.2944 22.5033 37.1341C22.4407 36.9737 22.4343 36.7969 22.4851 36.6325L25.2283 27.7173H20.1668C20.0181 27.7174 19.8725 27.6739 19.7482 27.5922C19.6239 27.5105 19.5263 27.3942 19.4673 27.2577C19.4083 27.1211 19.3907 26.9703 19.4164 26.8238C19.4422 26.6773 19.5103 26.5415 19.6124 26.4333L31.7978 13.4863C31.9155 13.3611 32.0722 13.2794 32.2422 13.2545C32.4123 13.2297 32.5858 13.263 32.7345 13.3492V13.3508Z" fill="#4FFF56"/>
</svg>
