<svg width="62" height="65" viewBox="0 0 62 65" fill="none" xmlns="http://www.w3.org/2000/svg">
<path d="M12.8637 3.61047C7.28234 3.61047 0.588013 6.65074 0.588013 14.8468V52.7131C0.588013 52.7131 0.588013 56.805 4.6799 56.805V60.8969C4.6799 60.8969 4.6799 64.9888 8.77178 64.9888C12.8637 64.9888 12.8637 60.8969 12.8637 60.8969V56.805H41.5069V60.8969C41.5069 60.8969 41.5069 64.9888 45.5987 64.9888C49.6906 64.9888 49.6906 60.8969 49.6906 60.8969V56.805C49.6906 56.805 53.7825 56.805 53.7825 52.7131V14.8468C53.7825 6.47888 48.7249 3.61047 43.1436 3.61047H12.8637ZM13.8866 9.7483H40.4839C40.7552 9.7483 41.0154 9.85608 41.2072 10.0479C41.3991 10.2398 41.5069 10.5 41.5069 10.7713C41.5069 11.0426 41.3991 11.3028 41.2072 11.4946C41.0154 11.6865 40.7552 11.7942 40.4839 11.7942H13.8866C13.6153 11.7942 13.3551 11.6865 13.1633 11.4946C12.9714 11.3028 12.8637 11.0426 12.8637 10.7713C12.8637 10.5 12.9714 10.2398 13.1633 10.0479C13.3551 9.85608 13.6153 9.7483 13.8866 9.7483ZM8.77178 14.0809H45.5987C49.6906 14.0809 49.6906 18.0377 49.6906 18.0377V37.6694C49.6906 37.6694 49.6906 41.7613 45.5987 41.7613H8.77178C4.6799 41.7613 4.6799 37.6694 4.6799 37.6694V18.1728C4.6799 18.1728 4.6799 14.0809 8.77178 14.0809ZM8.77178 44.5293C9.85702 44.5293 10.8978 44.9604 11.6652 45.7278C12.4326 46.4952 12.8637 47.536 12.8637 48.6212C12.8637 49.7064 12.4326 50.7472 11.6652 51.5146C10.8978 52.282 9.85702 52.7131 8.77178 52.7131C7.68655 52.7131 6.64576 52.282 5.87838 51.5146C5.11101 50.7472 4.6799 49.7064 4.6799 48.6212C4.6799 47.536 5.11101 46.4952 5.87838 45.7278C6.64576 44.9604 7.68655 44.5293 8.77178 44.5293ZM45.5987 44.5293C46.684 44.5293 47.7248 44.9604 48.4921 45.7278C49.2595 46.4952 49.6906 47.536 49.6906 48.6212C49.6906 49.7064 49.2595 50.7472 48.4921 51.5146C47.7248 52.282 46.684 52.7131 45.5987 52.7131C44.5135 52.7131 43.4727 52.282 42.7054 51.5146C41.938 50.7472 41.5069 49.7064 41.5069 48.6212C41.5069 47.536 41.938 46.4952 42.7054 45.7278C43.4727 44.9604 44.5135 44.5293 45.5987 44.5293Z" fill="#4FFF56"/>
<path d="M32.5885 16.3508C32.7375 16.4372 32.8529 16.5716 32.9157 16.7321C32.9785 16.8925 32.985 17.0696 32.9342 17.2342L30.191 26.1478H35.2525C35.4012 26.1478 35.5467 26.1913 35.671 26.273C35.7954 26.3546 35.893 26.4709 35.952 26.6075C36.0109 26.7441 36.0286 26.8949 36.0029 27.0414C35.9771 27.1879 35.909 27.3236 35.8069 27.4319L23.6215 40.3788C23.5036 40.5042 23.3467 40.586 23.1764 40.6108C23.0061 40.6355 22.8324 40.6019 22.6837 40.5153C22.5349 40.4288 22.4199 40.2944 22.3573 40.1341C22.2947 39.9737 22.2883 39.7969 22.339 39.6325L25.0822 30.7173H20.0207C19.872 30.7174 19.7265 30.6739 19.6022 30.5922C19.4779 30.5105 19.3802 30.3942 19.3212 30.2577C19.2623 30.1211 19.2446 29.9703 19.2704 29.8238C19.2962 29.6773 19.3643 29.5415 19.4663 29.4333L31.6517 16.4863C31.7695 16.3611 31.9261 16.2794 32.0962 16.2545C32.2663 16.2297 32.4398 16.263 32.5885 16.3492V16.3508Z" fill="#4FFF56"/>
<circle cx="49.7809" cy="12.1854" r="12.1854" fill="white"/>
<path d="M48.5425 19.7133V11.4814C48.5425 11.1059 48.5425 10.7232 48.5425 10.3332C48.5569 9.92885 48.5642 9.51725 48.5642 9.09844C48.0876 9.5317 47.5604 9.91441 46.9828 10.2466C46.4051 10.5643 45.7985 10.7809 45.1631 10.8965L44.8165 7.82033C45.192 7.79144 45.5891 7.69757 46.0079 7.53871C46.4412 7.37985 46.8672 7.18488 47.286 6.95381C47.7049 6.72274 48.0803 6.47722 48.4125 6.21727C48.7447 5.94287 48.9974 5.6757 49.1707 5.41574H52.1385V19.7133H48.5425Z" fill="#202020"/>
</svg>
