<svg width="52" height="51" viewBox="0 0 52 51" fill="none" xmlns="http://www.w3.org/2000/svg">
<path fill-rule="evenodd" clip-rule="evenodd" d="M51.1867 37.194C51.2317 37.2433 51.2665 37.301 51.289 37.3639C51.308 37.4207 51.3206 37.4776 51.3206 37.5408V41.3063C51.3206 41.5148 51.1879 41.7043 50.9858 41.7801L26.7359 50.5937C26.2873 50.7579 25.8008 50.7579 25.3522 50.5937L1.10868 41.7738C0.906489 41.698 0.773804 41.5084 0.773804 41.2999V37.5344C0.773804 37.2565 1.00126 37.029 1.27927 37.029C1.33614 37.029 1.393 37.0416 1.44987 37.0606L5.32302 38.4695V4.46626C5.32302 2.0907 7.2438 0.170044 9.6195 0.170044H42.4749C44.8506 0.170044 46.7714 2.0907 46.7714 4.46626V38.4695L50.6382 37.0606C50.7009 37.0375 50.7674 37.027 50.8341 37.0297C50.9008 37.0325 50.9663 37.0484 51.0268 37.0766C51.0873 37.1048 51.1417 37.1447 51.1867 37.194ZM35.4935 29.9273L35.492 29.7889L35.501 29.7964V29.7362C35.501 29.0833 35.4077 28.4515 35.2437 27.9024L35.2302 27.8512C35.0737 27.3142 34.8586 26.8012 34.6089 26.3604L34.5954 26.3363C34.3125 25.8655 33.9575 25.4442 33.5408 25.0802L33.5498 25.0892C33.1632 24.7357 32.757 24.4047 32.2907 24.0738L32.3343 24.1008C31.8349 23.768 31.3114 23.4729 30.7682 23.2178C30.1234 22.9019 29.6129 22.6667 29.2368 22.5122C28.8607 22.3578 28.3166 22.1462 27.6045 21.8774C26.9727 21.6367 26.5023 21.4522 26.1935 21.3238C25.8846 21.1954 25.4784 21.0139 24.9749 20.7792L24.9298 20.7611C24.5401 20.5866 24.1686 20.3775 23.8451 20.1549L23.8211 20.1383C23.5503 19.9352 23.2915 19.7171 23.0493 19.49L23.0463 19.4884C22.7936 19.2643 22.592 18.9845 22.4536 18.6535L22.4596 18.6716C22.2404 18.0971 22.2232 17.4651 22.4107 16.8795C22.5983 16.2939 22.9795 15.7895 23.4916 15.4492L23.472 15.4613C24.398 14.8396 25.4991 14.5317 26.6132 14.5827H26.6147C27.1961 14.583 27.7749 14.6609 28.3357 14.8144L28.3989 14.8279C28.8926 14.9543 29.374 15.125 29.837 15.3379L29.9002 15.365C30.2845 15.5472 30.6569 15.7537 31.015 15.9833C31.384 16.219 31.6458 16.397 31.8002 16.5173C31.9547 16.6377 32.052 16.7179 32.0921 16.758H32.0906C32.1644 16.8219 32.2519 16.8678 32.3463 16.8923C32.4408 16.9169 32.5396 16.9193 32.6352 16.8994H32.6367C32.7356 16.8926 32.8308 16.8591 32.9121 16.8024C32.9935 16.7457 33.0579 16.6679 33.0985 16.5775L34.7262 13.6349L34.7247 13.6365C34.8057 13.5188 34.8403 13.3754 34.822 13.2338C34.8036 13.0922 34.7337 12.9624 34.6254 12.8692C34.5462 12.788 34.4454 12.6942 34.3231 12.5879C34.2007 12.4816 33.9389 12.287 33.5378 12.0042L33.5679 12.0253C33.1707 11.7455 32.751 11.4942 32.2576 11.249L32.3358 11.2821C31.7777 11.0143 31.197 10.7842 30.5065 10.5736L30.5862 10.5961C29.8626 10.3614 29.1074 10.1975 28.28 10.1102V6.56592V6.56441V6.54034C28.28 6.19735 28.0017 5.91904 27.6587 5.91904H24.9102C24.8265 5.91903 24.7436 5.93595 24.6666 5.96878C24.5895 6.00161 24.5199 6.04968 24.4619 6.11009C24.3446 6.22292 24.2709 6.38238 24.2709 6.55839V6.56441V10.1975L24.2167 10.205C22.2782 10.5358 20.4967 11.479 19.1334 12.8963L19.1349 12.8948C17.9119 14.1374 17.1582 15.8434 17.1582 17.7238V17.769V17.8051C17.1571 18.3224 17.2146 18.8382 17.3297 19.3425L17.3402 19.3967C17.4408 19.8361 17.5792 20.2659 17.7539 20.6814L17.766 20.713C17.9473 21.1223 18.1836 21.505 18.4685 21.8503L18.4881 21.8744C18.7567 22.2095 19.0426 22.5305 19.3444 22.836C19.3443 22.8359 19.3442 22.8358 19.3441 22.8357L19.3456 22.8372C19.3452 22.8368 19.3448 22.8364 19.3444 22.836C19.6774 23.156 20.0405 23.443 20.4287 23.6932C20.872 23.988 21.2516 24.2262 21.5675 24.4077C21.8834 24.5893 22.3032 24.7974 22.8267 25.0321C23.3502 25.2667 23.7634 25.4447 24.0663 25.5661C24.3692 25.6875 24.7824 25.8554 25.3059 26.0701C26.035 26.3509 26.5721 26.569 26.9171 26.7245C27.2621 26.8799 27.7033 27.095 28.2409 27.3698L28.274 27.3849C28.6846 27.5841 29.0691 27.8332 29.4188 28.1265L29.4203 28.128C29.683 28.3753 29.9094 28.6584 30.0928 28.969L30.0883 28.96C30.2823 29.2714 30.3952 29.6399 30.3952 30.0356V30.0296C30.4162 30.5118 30.3134 30.9913 30.0963 31.4225C29.8793 31.8536 29.5554 32.2219 29.1556 32.4922L29.1721 32.4817C28.3793 33.0353 27.4165 33.3602 26.377 33.3602L26.2837 33.3587C25.7557 33.3587 25.2412 33.3001 24.7929 33.1978L24.7237 33.1842C22.9225 32.7879 21.2579 31.9234 19.8977 30.6779L19.8585 30.6388L19.857 30.6373C19.801 30.566 19.7265 30.5114 19.6417 30.4793C19.5568 30.4472 19.4649 30.4389 19.3756 30.4553H19.3741C19.2844 30.4598 19.1966 30.4837 19.1169 30.5252C19.0372 30.5667 18.9674 30.625 18.9123 30.696L16.8378 33.4159L16.8393 33.4144C16.7408 33.532 16.69 33.6822 16.697 33.8354C16.7039 33.9886 16.7681 34.1337 16.8769 34.2418C16.9441 34.322 17.0614 34.4424 17.2289 34.6029L17.2184 34.5938C17.5173 34.8638 17.8305 35.1175 18.1567 35.3538C19.2282 36.1655 20.425 36.797 21.6999 37.2235L21.6111 37.1949C22.4705 37.5078 23.3613 37.7267 24.2679 37.8478V41.374C24.2698 41.5446 24.3384 41.7076 24.459 41.8282C24.5797 41.9488 24.7427 42.0174 24.9132 42.0194H27.6301H27.6316H27.6557C27.8205 42.0194 27.9785 41.9539 28.095 41.8374C28.2115 41.7209 28.277 41.5629 28.277 41.3981V37.8478L28.3236 37.8418C30.3112 37.5548 32.1368 36.5846 33.4866 35.0978L33.4821 35.1038C34.778 33.6916 35.4959 31.844 35.4935 29.9273Z" fill="white"/>
</svg>
