<svg width="62" height="65" viewBox="0 0 62 65" fill="none" xmlns="http://www.w3.org/2000/svg">
<path d="M12.8412 3.61047C7.25988 3.61047 0.565552 6.65074 0.565552 14.8468V52.7131C0.565552 52.7131 0.565552 56.805 4.65744 56.805V60.8969C4.65744 60.8969 4.65744 64.9888 8.74932 64.9888C12.8412 64.9888 12.8412 60.8969 12.8412 60.8969V56.805H41.4844V60.8969C41.4844 60.8969 41.4844 64.9888 45.5763 64.9888C49.6682 64.9888 49.6682 60.8969 49.6682 60.8969V56.805C49.6682 56.805 53.7601 56.805 53.7601 52.7131V14.8468C53.7601 6.47888 48.7025 3.61047 43.1212 3.61047H12.8412ZM13.8642 9.7483H40.4614C40.7327 9.7483 40.9929 9.85608 41.1848 10.0479C41.3766 10.2398 41.4844 10.5 41.4844 10.7713C41.4844 11.0426 41.3766 11.3028 41.1848 11.4946C40.9929 11.6865 40.7327 11.7942 40.4614 11.7942H13.8642C13.5929 11.7942 13.3327 11.6865 13.1408 11.4946C12.949 11.3028 12.8412 11.0426 12.8412 10.7713C12.8412 10.5 12.949 10.2398 13.1408 10.0479C13.3327 9.85608 13.5929 9.7483 13.8642 9.7483ZM8.74932 14.0809H45.5763C49.6682 14.0809 49.6682 18.0377 49.6682 18.0377V37.6694C49.6682 37.6694 49.6682 41.7613 45.5763 41.7613H8.74932C4.65744 41.7613 4.65744 37.6694 4.65744 37.6694V18.1728C4.65744 18.1728 4.65744 14.0809 8.74932 14.0809ZM8.74932 44.5293C9.83456 44.5293 10.8753 44.9604 11.6427 45.7278C12.4101 46.4952 12.8412 47.536 12.8412 48.6212C12.8412 49.7064 12.4101 50.7472 11.6427 51.5146C10.8753 52.282 9.83456 52.7131 8.74932 52.7131C7.66409 52.7131 6.6233 52.282 5.85592 51.5146C5.08854 50.7472 4.65744 49.7064 4.65744 48.6212C4.65744 47.536 5.08854 46.4952 5.85592 45.7278C6.6233 44.9604 7.66409 44.5293 8.74932 44.5293ZM45.5763 44.5293C46.6615 44.5293 47.7023 44.9604 48.4697 45.7278C49.2371 46.4952 49.6682 47.536 49.6682 48.6212C49.6682 49.7064 49.2371 50.7472 48.4697 51.5146C47.7023 52.282 46.6615 52.7131 45.5763 52.7131C44.4911 52.7131 43.4503 52.282 42.6829 51.5146C41.9155 50.7472 41.4844 49.7064 41.4844 48.6212C41.4844 47.536 41.9155 46.4952 42.6829 45.7278C43.4503 44.9604 44.4911 44.5293 45.5763 44.5293Z" fill="#4FFF56"/>
<path d="M32.566 16.3508C32.7151 16.4372 32.8304 16.5716 32.8932 16.7321C32.956 16.8925 32.9626 17.0696 32.9118 17.2342L30.1685 26.1478H35.23C35.3788 26.1478 35.5243 26.1913 35.6486 26.273C35.7729 26.3546 35.8706 26.4709 35.9295 26.6075C35.9885 26.7441 36.0062 26.8949 35.9804 27.0414C35.9546 27.1879 35.8865 27.3236 35.7845 27.4319L23.5991 40.3788C23.4812 40.5042 23.3243 40.586 23.154 40.6108C22.9836 40.6355 22.81 40.6019 22.6612 40.5153C22.5124 40.4288 22.3974 40.2944 22.3348 40.1341C22.2722 39.9737 22.2658 39.7969 22.3166 39.6325L25.0598 30.7173H19.9983C19.8495 30.7174 19.704 30.6739 19.5797 30.5922C19.4554 30.5105 19.3578 30.3942 19.2988 30.2577C19.2398 30.1211 19.2221 29.9703 19.2479 29.8238C19.2737 29.6773 19.3418 29.5415 19.4438 29.4333L31.6292 16.4863C31.747 16.3611 31.9037 16.2794 32.0737 16.2545C32.2438 16.2297 32.4173 16.263 32.566 16.3492V16.3508Z" fill="#4FFF56"/>
<circle cx="49.7585" cy="12.1854" r="12.1854" fill="white"/>
<path d="M54.7228 18.9551H44.8327V16.8613L48.3843 13.2484C49.4359 12.1642 50.1229 11.4144 50.4455 10.9989C50.7681 10.5769 51.0003 10.1873 51.1423 9.83025C51.2842 9.47318 51.3552 9.10312 51.3552 8.72008C51.3552 8.14877 51.1971 7.72353 50.881 7.44436C50.5713 7.1652 50.1552 7.02561 49.6326 7.02561C49.0842 7.02561 48.552 7.15221 48.0359 7.40541C47.5198 7.6586 46.9811 8.01892 46.4198 8.48636L44.794 6.54843C45.4908 5.95115 46.0682 5.52916 46.5262 5.28245C46.9843 5.03575 47.4843 4.84747 48.0262 4.71763C48.5681 4.58129 49.1746 4.51312 49.8455 4.51312C50.7294 4.51312 51.51 4.67543 52.1874 5.00004C52.8648 5.32465 53.3906 5.77911 53.7648 6.36341C54.139 6.94771 54.3261 7.6164 54.3261 8.3695C54.3261 9.02522 54.21 9.64198 53.9777 10.2198C53.7519 10.7911 53.3971 11.3786 52.9132 11.9824C52.4358 12.5862 51.5906 13.4464 50.3778 14.5631L48.5584 16.2868V16.4231H54.7228V18.9551Z" fill="#202020"/>
</svg>
